{
.appVersion = "3151";
.formatVersion = 3;
DisplayStrings = (
"ﬁﬂ
fi

fíorfinn"
);
customParameters = (
{
name = fsType;
value = (
);
},
{
name = "Use Typo Metrics";
value = 1;
}
);
date = "2016-03-12 21:15:21 +0000";
familyName = "Secular One";
featurePrefixes = (
{
automatic = 1;
code = "languagesystem DFLT dflt;

languagesystem latn dflt;
languagesystem latn AZE;
languagesystem latn CRT;
languagesystem latn KAZ;
languagesystem latn TAT;
languagesystem latn TRK;
languagesystem latn ROM;
languagesystem latn MOL;

languagesystem hebr dflt;
languagesystem hebr IWR;
";
name = Languagesystems;
}
);
features = (
{
automatic = 1;
code = "feature locl;
feature sups;
feature frac;
feature ordn;
feature lnum;
feature onum;
feature case;
";
tag = aalt;
},
{
code = "lookup ccmp_Other_1 {
	@CombiningTopAccents = [acutecomb brevecomb caroncomb circumflexcomb commaturnedabovecomb dieresiscomb dotaccentcomb gravecomb hungarumlautcomb macroncomb ringcomb tildecomb];
	@CombiningNonTopAccents = [cedillacomb ogonekcomb slashlongcomb slashshortcomb strokelongcomb strokeshortcomb];
	sub [i j]' @CombiningTopAccents by [idotless jdotless];
	sub [i j]' @CombiningNonTopAccents @CombiningTopAccents by [idotless jdotless];
	sub iogonek' @CombiningTopAccents by idotless ogonekcomb;
} ccmp_Other_1;

lookup ccmp_latn_1 {
	sub fi by f i;
	sub fl by f l;
} ccmp_latn_1;

script latn;
lookup ccmp_latn_1;
";
tag = ccmp;
},
{
automatic = 1;
code = "lookup locl_latn_0 {
	script latn;
	language AZE;
	sub i by idotaccent;
	language CRT;
	sub i by idotaccent;
	language KAZ;
	sub i by idotaccent;
	language TAT;
	sub i by idotaccent;
	language TRK;
	sub i by idotaccent;
} locl_latn_0;

lookup locl_latn_1 {
	script latn;
	language ROM;
	sub Scedilla by Scommaaccent;
	sub scedilla by scommaaccent;
	sub Tcedilla by Tcommaaccent;
	sub tcedilla by tcommaaccent;
	language MOL;
	sub Scedilla by Scommaaccent;
	sub scedilla by scommaaccent;
	sub Tcedilla by Tcommaaccent;
	sub tcedilla by tcommaaccent;

glyphs = (
{
glyphname = A;
kernLeft = A;
kernRight = A;
lastChange = "2023-04-05 13:05:38 +0000";
layers = (
{
anchors = (
{
name = bottom;
pos = (340,0);
},
{
name = ogonek;
pos = (619,0);
},
{
name = top;
pos = (340,666);
}
);
hints = (
{
horizontal = 1;
origin = (0,7);
target = up;
type = BottomGhost;
},
{
horizontal = 1;
origin = (0,1);
target = (1,2);
type = Stem;
},
{
horizontal = 1;
origin = (0,6);
target = down;
type = TopGhost;
},
{
horizontal = 1;
origin = (0,6);
target = (1,0);
type = Stem;
}
);
layerId = "67A5D7A9-2C6D-4B81-A947-AF9C36497881";
name = Regular;
shapes = (
{
closed = 1;
nodes = (
(155,0,l),
(206,152,l),
(468,152,l),
(522,0,l),
(672,0,l),
(425,666,l),
(251,666,l),
(7,0,l)
);
},
{
closed = 1;
nodes = (
(335,531,l),
(425,276,l),
(248,276,l)
);
}
);
width = 679;
}
);
note = A;
unicode = 65;
},
{
glyphname = Aogonek;
kernLeft = A;
kernRight = A;
lastChange = "2023-04-05 13:05:38 +0000";
layers = (
{
hints = (
{
horizontal = 1;
origin = (0,26);
target = (0,6);
type = Stem;
},
{
horizontal = 1;
origin = (0,16);
target = up;
type = BottomGhost;
},
{
horizontal = 1;
origin = (0,18);
target = (1,2);
type = Stem;
},
{
horizontal = 1;
origin = (0,15);
target = down;
type = TopGhost;
},
{
horizontal = 1;
origin = (0,12);
target = up;
type = BottomGhost;
},
{
horizontal = 1;
origin = (0,15);
target = (1,0);
type = Stem;
},
{
origin = (0,23);
target = (0,9);
type = Stem;
}
);
layerId = "67A5D7A9-2C6D-4B81-A947-AF9C36497881";
name = Regular;
shapes = (
{
closed = 1;
nodes = (
(616,-220,o),
(648,-212,o),
(668,-197,c),
(673,-120,l),
(655,-131,o),
(634,-137,o),
(615,-137,cs),
(586,-137,o),
(561,-123,o),
(561,-93,cs),
(561,-54,o),
(603,-17,o),
(660,-3,cs),
(672,0,l),
(425,666,l),
(251,666,l),
(7,0,l),
(155,0,l),
(206,152,l),
(469,152,l),
(529,-18,l),
(495,-41,o),
(470,-76,o),
(470,-122,cs),
(470,-181,o),
(512,-220,o),
(584,-220,cs)
);
},
{
closed = 1;
nodes = (
(335,531,l),
(425,276,l),
(248,276,l)
);
}
);
width = 680;
}
);
metricRight = A;
unicode = 260;
},
{
glyphname = AE;
lastChange = "2023-04-05 13:05:38 +0000";
layers = (
{
anchors = (
{
name = bottom;
pos = (447,0);
},
{
name = top;
pos = (447,666);
}
);
hints = (
{
horizontal = 1;
origin = (0,15);
target = (0,6);
type = Stem;
},
{
horizontal = 1;
origin = (0,7);
target = (0,10);
type = Stem;
},
{
horizontal = 1;
origin = (0,14);
target = (0,11);
type = Stem;
},
{
horizontal = 1;
origin = (0,1);
target = (1,3);
type = Stem;
},
{
horizontal = 1;
origin = (0,14);
target = (1,0);
type = Stem;
},
{
origin = (0,3);
target = (0,6);
type = Stem;
}
);
layerId = "67A5D7A9-2C6D-4B81-A947-AF9C36497881";
name = Regular;
shapes = (
{
closed = 1;
nodes = (
(148,0,l),
(222,152,l),
(433,152,l),
(433,0,l),
(838,0,l),
(838,126,l),
(576,126,l),
(576,285,l),
(793,285,l),
(793,407,l),
(576,407,l),
(576,540,l),
(838,540,l),
(838,666,l),
(328,666,l),
(0,0,l)
);
},
{
closed = 1;
nodes = (
(415,548,l),
(433,548,l),
(433,276,l),
(283,276,l)
);
}
);
width = 893;
}
);
metricRight = E;
unicode = 198;
},
{
glyphname = B;
kernLeft = H;
kernRight = B;
lastChange = "2023-04-05 13:05:38 +0000";
layers = (
{
anchors = (
{
name = bottom;
pos = (285,0);
},
{
name = top;
pos = (285,666);
}
);
hints = (
{
horizontal = 1;
origin = (0,14);
target = (1,8);
type = Stem;
},
{
horizontal = 1;
origin = (1,0);
target = (2,8);
type = Stem;
},
{
horizontal = 1;
origin = (0,13);
target = (2,0);
type = Stem;
},
{
origin = (0,14);
target = (1,8);
type = Stem;
},
{
origin = (1,4);
target = (0,3);
type = Stem;
},
{
origin = (2,4);
target = (0,9);
type = Stem;
}
);
layerId = "67A5D7A9-2C6D-4B81-A947-AF9C36497881";
name = Regular;
shapes = (
{
closed = 1;
nodes = (
(295,0,ls),
(430,0,o),
(529,83,o),
(529,205,cs),
(529,277,o),
(494,325,o),
(424,353,c),
(477,386,o),
(503,432,o),
(503,493,cs),
(503,600,o),
(423,666,o),
(293,666,cs),
(70,666,l),
(70,0,l)
);
},
{
closed = 1;
nodes = (
(209,283,l),
(287,283,ls),
(353,283,o),
(388,254,o),
(388,203,cs),
(388,147,o),
(345,111,o),
(273,111,cs),
(209,111,l)
);
},
{
closed = 1;
nodes = (
(209,556,l),
(272,556,ls),
(333,556,o),
(364,531,o),
(364,482,cs),
(364,428,o),
(326,395,o),
(259,395,cs),
(209,395,l)
);
}
);
width = 569;
}
);
note = B;
unicode = 66;
},
{
glyphname = C;
kernLeft = O;
kernRight = C;
lastChange = "2023-04-05 13:05:38 +0000";
layers = (
{
anchors = (
{
name = bottom;
pos = (342,0);
},
{
name = top;
pos = (352,666);
}
);
hints = (
{
horizontal = 1;
origin = (0,25);
target = (0,6);
type = Stem;
},
{
horizontal = 1;
origin = (0,19);
target = (0,12);
type = Stem;
},
{
origin = (0,22);
target = (0,9);
type = Stem;
}
);
layerId = "67A5D7A9-2C6D-4B81-A947-AF9C36497881";
name = Regular;
shapes = (
{
closed = 1;
nodes = (
(443,-13,o),
(500,-3,o),
(547,15,c),
(525,138,l),
(484,124,o),
(439,117,o),
(399,117,cs),
(267,117,o),
(188,195,o),
(188,330,cs),
(188,460,o),
(262,548,o),
(385,548,cs),
(429,548,o),
(473,537,o),
(517,517,c),
(544,646,l),
(495,665,o),
(441,676,o),
(384,676,cs),
(177,676,o),
(41,533,o),
(41,316,cs),
(41,106,o),
(169,-13,o),
(381,-13,cs)
);
}
);
width = 594;
}
);
note = C;
unicode = 67;
},
{
glyphname = D;
kernLeft = H;
kernRight = O;
lastChange = "2023-04-05 13:05:38 +0000";
layers = (
{
anchors = (
{
name = bottom;
pos = (313,0);
},
{
name = center;
pos = (162,324);
},
{
name = top;
pos = (303,666);
}
);
hints = (
{
horizontal = 1;
origin = (0,15);
target = (1,8);
type = Stem;
},
{
horizontal = 1;
origin = (0,14);
target = (1,0);
type = Stem;
},
{
origin = (0,15);
target = (1,8);
type = Stem;
},
{
origin = (1,4);
target = (0,5);
type = Stem;
}
);
layerId = "67A5D7A9-2C6D-4B81-A947-AF9C36497881";
name = Regular;
shapes = (
{
closed = 1;
nodes = (
(210,-1,o),
(245,-1,o),
(280,0,cs),
(500,3,o),
(645,140,o),
(645,351,cs),
(645,543,o),
(520,664,o),
(323,666,cs),
(281,667,o),
(238,667,o),
(196,667,cs),
(154,667,o),
(112,667,o),
(69,666,c),
(69,0,l),
(104,-1,o),
(139,-1,o),
(175,-1,cs)
);
},
{
closed = 1;
nodes = (
(214,540,l),
(304,540,ls),
(428,540,o),
(496,471,o),
(496,347,cs),
(496,210,o),
(413,126,o),
(279,126,cs),
(214,126,l)
);
}
);
width = 685;
}
);
note = D;
unicode = 68;
},
{
glyphname = E;
kernLeft = H;
kernRight = E;
lastChange = "2023-04-05 13:05:38 +0000";
layers = (
{
anchors = (
{
name = bottom;
pos = (275,0);
},
{
name = ogonek;
pos = (424,0);
},
{
name = top;
pos = (275,666);
},
{
name = topleft;
pos = (20,666);
}
);
hints = (
{
horizontal = 1;
origin = (0,11);
target = (0,2);
type = Stem;
},
{
horizontal = 1;
origin = (0,3);
target = (0,6);
type = Stem;
},
{
horizontal = 1;
origin = (0,10);
target = (0,7);
type = Stem;
},
{
origin = (0,11);
target = (0,2);
type = Stem;
}
);
layerId = "67A5D7A9-2C6D-4B81-A947-AF9C36497881";
name = Regular;
shapes = (
{
closed = 1;
nodes = (
(475,0,l),
(475,126,l),
(213,126,l),
(213,285,l),
(430,285,l),
(430,407,l),
(213,407,l),
(213,540,l),
(475,540,l),
(475,666,l),
(70,666,l),
(70,0,l)
);
}
);
width = 530;
}
);
note = E;
unicode = 69;
},
{
glyphname = F;
kernLeft = H;
kernRight = F;
lastChange = "2023-04-05 13:05:38 +0000";
layers = (
{
anchors = (
{
name = bottom;
pos = (141,0);
},
{
name = top;
pos = (279,666);
}
);
hints = (
{
horizontal = 1;
origin = (0,9);
target = up;
type = BottomGhost;
},
{
horizontal = 1;
origin = (0,1);
target = (0,4);
type = Stem;
},
{
horizontal = 1;
origin = (0,8);
target = (0,5);
type = Stem;
},
{
origin = (0,9);
target = (0,0);
type = Stem;
}
);
layerId = "67A5D7A9-2C6D-4B81-A947-AF9C36497881";
name = Regular;
shapes = (
{
closed = 1;
nodes = (
(215,0,l),
(215,263,l),
(432,263,l),
(432,388,l),
(215,388,l),
(215,540,l),
(477,540,l),
(477,666,l),
(70,666,l),
(70,0,l)
);
}
);
width = 517;
}
);
note = F;
unicode = 70;
},
{
glyphname = G;
kernLeft = O;
kernRight = G;
lastChange = "2023-04-05 13:05:38 +0000";
layers = (
{
anchors = (
{
name = bottom;
pos = (399,0);
},
{
name = top;
pos = (394,666);
}
);
hints = (
{
horizontal = 1;
origin = (0,29);
target = (0,10);
type = Stem;
},
{
horizontal = 1;
origin = (0,5);
target = (0,4);
type = Stem;
},
{
horizontal = 1;
origin = (0,23);
target = (0,16);
type = Stem;
},
{
origin = (0,26);
target = (0,13);
type = Stem;
},
{
origin = (0,7);
target = (0,2);
type = Stem;
}
);
layerId = "67A5D7A9-2C6D-4B81-A947-AF9C36497881";
name = Regular;
shapes = (
{
closed = 1;
nodes = (
(480,-15,o),
(558,-1,o),
(624,24,c),
(624,370,l),
(407,370,l),
(407,253,l),
(491,253,l),
(491,115,l),
(467,111,o),
(441,109,o),
(413,109,cs),
(273,109,o),
(187,191,o),
(187,324,cs),
(187,461,o),
(276,552,o),
(409,552,cs),
(471,552,o),
(538,533,o),
(590,501,c),
(625,621,l),
(568,656,o),
(491,675,o),
(409,675,cs),
(190,675,o),
(45,531,o),
(45,314,cs),
(45,108,o),
(179,-15,o),
(403,-15,cs)
);
}
);
width = 688;
}
);
note = G;
unicode = 71;
},
{
glyphname = H;
kernLeft = H;
kernRight = H;
lastChange = "2023-04-05 13:05:38 +0000";
layers = (
{
anchors = (
{
name = bottom;
pos = (358,0);
},
{
name = center;
pos = (358,536);
},
{
name = top;
pos = (358,666);
},
{
name = topleft;
pos = (20,666);
}
);
hints = (
{
horizontal = 1;
origin = (0,11);
target = up;
type = BottomGhost;
},
{
horizontal = 1;
origin = (0,1);
target = (0,8);
type = Stem;
},
{
horizontal = 1;
origin = (0,10);
target = down;
type = TopGhost;
},
{
origin = (0,11);
target = (0,0);
type = Stem;
},
{
origin = (0,3);
target = (0,4);
type = Stem;
}
);
layerId = "67A5D7A9-2C6D-4B81-A947-AF9C36497881";
name = Regular;
shapes = (
{
closed = 1;
nodes = (
(216,0,l),
(216,284,l),
(499,284,l),
(499,0,l),
(646,0,l),
(646,666,l),
(499,666,l),
(499,408,l),
(216,408,l),
(216,666,l),
(70,666,l),
(70,0,l)
);
}
);
width = 716;
}
);
note = H;
unicode = 72;
},
{
glyphname = I;
kernLeft = H;
kernRight = H;
lastChange = "2023-04-05 13:05:38 +0000";
layers = (
{
anchors = (
{
name = bottom;
pos = (151,0);
},
{
name = ogonek;
pos = (172,0);
},
{
name = top;
pos = (151,666);
},
{
name = topleft;
pos = (20,666);
}
);
hints = (
{
horizontal = 1;
origin = (0,3);
target = up;
type = BottomGhost;
},
{
horizontal = 1;
origin = (0,2);
target = down;
type = TopGhost;
},
{
origin = (0,3);
target = (0,0);
type = Stem;
}
);
layerId = "67A5D7A9-2C6D-4B81-A947-AF9C36497881";
name = Regular;
shapes = (
{
closed = 1;
nodes = (
(223,0,l),
(223,666,l),
(78,666,l),
(78,0,l)
);
}
);
width = 301;
}
);
note = I;
unicode = 73;
},
{
glyphname = Iogonek;
kernLeft = H;
kernRight = H;
lastChange = "2023-04-05 13:05:38 +0000";
layers = (
{
hints = (
{
horizontal = 1;
origin = (0,21);
target = (0,6);
type = Stem;
},
{
horizontal = 1;
origin = (0,12);
target = down;
type = TopGhost;
},
{
horizontal = 1;
origin = (0,14);
target = down;
type = TopGhost;
},
{
origin = (0,15);
target = (0,12);
type = Stem;
}
);
layerId = "67A5D7A9-2C6D-4B81-A947-AF9C36497881";
name = Regular;
shapes = (
{
closed = 1;
nodes = (
(169,-220,o),
(201,-212,o),
(221,-197,c),
(226,-120,l),
(208,-131,o),
(187,-137,o),
(168,-137,cs),
(139,-137,o),
(114,-123,o),
(114,-93,cs),
(114,-52,o),
(160,-19,o),
(223,0,c),
(223,666,l),
(78,666,l),
(78,-20,l),
(46,-43,o),
(23,-78,o),
(23,-122,cs),
(23,-181,o),
(65,-220,o),
(137,-220,cs)
);
}
);
width = 301;
}
);
unicode = 302;
},
{
glyphname = J;
kernLeft = J;
kernRight = J;
lastChange = "2023-04-05 13:05:38 +0000";
layers = (
{
anchors = (
{
name = bottom;
pos = (169,0);
},
{
name = top;
pos = (181,666);
}
);
hints = (
{
horizontal = 1;
origin = (0,15);
target = (0,8);
type = Stem;
},
{
horizontal = 1;
origin = (0,4);
target = down;
type = TopGhost;
},
{
horizontal = 1;
origin = (0,15);
target = up;
type = BottomGhost;
},
{
origin = (0,5);
target = (0,2);
type = Stem;
},
{
horizontal = 1;
origin = (0,11);
target = down;
type = TopGhost;
}
);
layerId = "67A5D7A9-2C6D-4B81-A947-AF9C36497881";
name = Regular;
shapes = (
{
closed = 1;
nodes = (
(200,-15,o),
(268,53,o),
(268,161,cs),
(268,666,l),
(128,666,l),
(128,173,ls),
(128,129,o),
(109,111,o),
(78,111,cs),
(59,111,o),
(42,118,o),
(25,127,c),
(-13,6,l),
(21,-9,o),
(60,-15,o),
(93,-15,cs)
);
}
);
width = 338;
}
);
note = J;
unicode = 74;
},
{
glyphname = K;
kernLeft = H;
kernRight = K;
lastChange = "2023-04-05 13:05:38 +0000";
layers = (
{
anchors = (
{
name = bottom;
pos = (308,0);
},
{
name = top;
pos = (308,666);
}
);
hints = (
{
horizontal = 1;
origin = (0,10);
target = up;
type = BottomGhost;
},
{
horizontal = 1;
origin = (0,9);
target = down;
type = TopGhost;
},
{
origin = (0,10);
target = (0,0);
type = Stem;
}
);
layerId = "67A5D7A9-2C6D-4B81-A947-AF9C36497881";
name = Regular;
shapes = (
{
closed = 1;
nodes = (
(215,0,l),
(215,269,l),
(415,0,l),
(591,0,l),
(331,350,l),
(605,666,l),
(432,666,l),
(215,408,l),
(215,666,l),
(70,666,l),
(70,0,l)
);
}
);
width = 615;
}
);
note = K;
unicode = 75;
},
{
glyphname = L;
kernLeft = H;
kernRight = L;
lastChange = "2023-04-05 13:23:13 +0000";
layers = (
{
anchors = (
{
name = bottom;
pos = (261,0);
},
{
name = center;
pos = (151,363);
},
{
name = top;
pos = (143,666);
},
{
name = topright;
pos = (304,730);
}
);
hints = (
{
horizontal = 1;
origin = (0,5);
target = (0,2);
type = Stem;
},
{
horizontal = 1;
origin = (0,4);
target = down;
type = TopGhost;
},
{
origin = (0,5);
target = (0,2);
type = Stem;
}
);
layerId = "67A5D7A9-2C6D-4B81-A947-AF9C36497881";
name = Regular;
shapes = (
{
closed = 1;
nodes = (
(455,0,l),
(455,126,l),
(215,126,l),
(215,666,l),
(70,666,l),
(70,0,l)
);
}
);
width = 485;
}
);
note = L;
unicode = 76;
},
{
glyphname = Lcaron;
kernLeft = H;
lastChange = "2023-04-05 13:23:13 +0000";
layers = (
{
background = {
shapes = (
{
closed = 1;
nodes = (
(455,0,l),
(455,126,l),
(215,126,l),
(215,666,l),
(70,666,l),
(70,0,l)
);
},
{
closed = 1;
nodes = (
(418,484,o),
(477,546,o),
(477,609,cs),
(477,659,o),
(443,691,o),
(404,691,cs),
(381,691,o),
(361,681,o),
(348,666,cs),
(336,651,o),
(330,631,o),
(332,609,c),
(370,561,l),
(361,537,o),
(344,508,o),
(324,484,c),
(350,449,l)
);
}
);
};
hints = (
{
horizontal = 1;
place = (0, 126);
place = (0, 126);
type = Stem;
},
{
horizontal = 1;
place = (666, -20);
target = down;
type = TopGhost;
},
{
place = (70, 145);
place = (70, 145);
type = Stem;
},
{
place = (332, 145);
place = (332, 145);
type = Stem;
},
{
horizontal = 1;
place = (449, 21);
target = up;
type = BottomGhost;
},
{
horizontal = 1;
place = (561, 130);
place = (561, 130);
type = Stem;
}
);
layerId = "67A5D7A9-2C6D-4B81-A947-AF9C36497881";
name = Regular;
shapes = (
{
ref = L;
},
{
pos = (274,0);
ref = caroncomb.alt;
}
);
width = 485;
}
);
unicode = 317;
},
{
glyphname = M;
kernLeft = M;
kernRight = M;
lastChange = "2023-04-05 13:05:38 +0000";
layers = (
{
anchors = (
{
name = bottom;
pos = (453,0);
},
{
name = top;
pos = (453,666);
}
);
guides = (
{
pos = (221,457);
}
);
hints = (
{
horizontal = 1;
origin = (0,0);
target = up;
type = BottomGhost;
},
{
horizontal = 1;
origin = (0,8);
target = down;
type = TopGhost;
},
{
horizontal = 1;
origin = (0,9);
target = down;
type = TopGhost;
}
);
layerId = "67A5D7A9-2C6D-4B81-A947-AF9C36497881";
name = Regular;
shapes = (
{
closed = 1;
nodes = (
(512,-7,l),
(688,468,l),
(734,0,l),
(864,0,l),
(803,666,l),
(623,666,l),
(458,188,l),
(288,666,l),
(108,666,l),
(45,0,ls),
(174,0,l),
(216,470,l),
(393,-18,l)
);
}
);
width = 911;
}
);
note = M;
unicode = 77;
},
{
glyphname = N;
kernLeft = H;
kernRight = H;
lastChange = "2023-04-05 13:05:38 +0000";
layers = (
{
anchors = (
{
name = bottom;
pos = (360,0);
},
{
name = top;
pos = (360,666);
}
);
hints = (
{
horizontal = 1;
origin = (0,9);
target = up;
type = BottomGhost;
},
{
horizontal = 1;
origin = (0,8);
target = down;
type = TopGhost;
},
{
origin = (0,9);
target = (0,0);
type = Stem;
},
{
origin = (0,6);
target = (0,3);
type = Stem;
}
);
layerId = "67A5D7A9-2C6D-4B81-A947-AF9C36497881";
name = Regular;
shapes = (
{
closed = 1;
nodes = (
(203,0,l),
(203,470,l),
(481,0,l),
(649,0,l),
(649,666,l),
(516,666,l),
(516,199,l),
(240,666,l),
(70,666,l),
(70,0,l)
);
}
);
width = 719;
}
);
note = N;
unicode = 78;
},
{
glyphname = Eng;
kernLeft = H;
kernRight = J;
lastChange = "2023-04-05 13:05:38 +0000";
layers = (
{
hints = (
{
horizontal = 1;
origin = (0,23);
target = (0,16);
type = Stem;
},
{
horizontal = 1;
origin = (0,8);
target = up;
type = BottomGhost;
},
{
horizontal = 1;
origin = (0,7);
target = down;
type = TopGhost;
},
{
horizontal = 1;
origin = (0,23);
target = up;
type = BottomGhost;
},
{
origin = (0,8);
target = (0,9);
type = Stem;
},
{
origin = (0,5);
target = (0,2);
type = Stem;
}
);
layerId = "67A5D7A9-2C6D-4B81-A947-AF9C36497881";
name = Regular;
shapes = (
{
closed = 1;
nodes = (
(581,-233,o),
(649,-165,o),
(649,-57,cs),
(649,666,l),
(516,666,l),
(516,199,l),
(240,666,l),
(70,666,l),
(70,0,l),
(203,0,l),
(203,470,l),
(481,0,l),
(509,0,l),
(509,-46,ls),
(509,-87,o),
(492,-107,o),
(457,-107,cs),
(443,-107,o),
(426,-103,o),
(411,-96,c),
(373,-214,l),
(408,-226,o),
(442,-233,o),
(474,-233,cs)
);
}
);
width = 719;
}
);
metricRight = J;
unicode = 330;
},
{
glyphname = O;
kernLeft = O;
kernRight = O;
lastChange = "2023-04-05 13:05:38 +0000";
layers = (
{
anchors = (
{
name = bottom;
pos = (371,0);
},
{
name = center;
pos = (371,333);
},
{
name = ogonek;
pos = (420,0);
},
{
name = top;
pos = (371,666);
},
{
name = topleft;
pos = (20,666);
},
{
name = topright;
pos = (721,666);
}
);
hints = (
{
horizontal = 1;
origin = (0,11);
target = (1,11);
type = Stem;
},
{
horizontal = 1;
origin = (0,5);
target = (1,5);
type = Stem;
},
{
origin = (0,8);
target = (1,2);
type = Stem;
},
{
origin = (1,8);
target = (0,2);
type = Stem;
}
);
layerId = "67A5D7A9-2C6D-4B81-A947-AF9C36497881";
name = Regular;
shapes = (
{
closed = 1;
nodes = (
(569,-13,o),
(701,126,o),
(701,334,cs),
(701,538,o),
(569,674,o),
(371,674,cs),
(172,674,o),
(40,537,o),
(40,330,cs),
(40,125,o),
(173,-13,o),
(371,-13,cs)
);
},
{
closed = 1;
nodes = (
(262,114,o),
(190,200,o),
(190,330,cs),
(190,460,o),
(263,547,o),
(371,546,cs),
(479,547,o),
(552,460,o),
(552,330,cs),
(552,199,o),
(481,114,o),
(371,114,cs)
);
}
);
width = 741;
}
);
note = O;
unicode = 79;
},
{
glyphname = OE;
kernLeft = O;
kernRight = E;
lastChange = "2023-04-05 13:05:38 +0000";
layers = (
{
anchors = (
{
name = bottom;
pos = (455,0);
},
{
name = top;
pos = (455,666);
}
);
hints = (
{
horizontal = 1;
origin = (0,22);
target = (1,12);
type = Stem;
},
{
horizontal = 1;
origin = (0,6);
target = (0,9);
type = Stem;
},
{
horizontal = 1;
origin = (0,13);
target = (0,10);
type = Stem;
},
{
horizontal = 1;
origin = (0,2);
target = (0,5);
type = Stem;
},
{
horizontal = 1;
origin = (0,16);
target = (1,5);
type = Stem;
},
{
origin = (0,19);
target = (1,2);
type = Stem;
},
{
origin = (1,9);
target = (0,5);
type = Stem;
}
);
layerId = "67A5D7A9-2C6D-4B81-A947-AF9C36497881";
name = Regular;
shapes = (
{
closed = 1;
nodes = (
(406,-13,o),
(440,-9,o),
(470,0,c),
(855,0,l),
(855,126,l),
(593,126,l),
(593,285,l),
(810,285,l),
(810,407,l),
(593,407,l),
(593,540,l),
(855,540,l),
(855,666,l),
(450,666,l),
(425,671,o),
(399,674,o),
(371,674,cs),
(172,674,o),
(40,537,o),
(40,330,cs),
(40,125,o),
(173,-13,o),
(371,-13,cs)
);
},
{
closed = 1;
nodes = (
(262,114,o),
(190,200,o),
(190,330,cs),
(190,459,o),
(262,546,o),
(369,546,cs),
(399,546,o),
(426,540,o),
(450,529,c),
(450,131,l),
(427,120,o),
(400,114,o),
(371,114,cs)
);
}
);
width = 910;
}
);
metricRight = E;
unicode = 338;
},
{
glyphname = P;
kernLeft = H;
kernRight = P;
lastChange = "2023-04-05 13:05:38 +0000";
layers = (
{
anchors = (
{
name = bottom;
pos = (142,0);
},
{
name = top;
pos = (274,666);
}
);
hints = (
{
horizontal = 1;
origin = (0,15);
target = up;
type = BottomGhost;
},
{
horizontal = 1;
origin = (0,1);
target = (1,8);
type = Stem;
},
{
horizontal = 1;
origin = (0,14);
target = (1,0);
type = Stem;
},
{
origin = (0,15);
target = (0,0);
type = Stem;
},
{
origin = (1,4);
target = (0,5);
type = Stem;
}
);
layerId = "67A5D7A9-2C6D-4B81-A947-AF9C36497881";
name = Regular;
shapes = (
{
closed = 1;
nodes = (
(209,0,l),
(209,238,l),
(274,238,ls),
(414,238,o),
(512,328,o),
(512,464,cs),
(512,591,o),
(427,663,o),
(291,666,cs),
(262,667,o),
(221,667,o),
(180,667,cs),
(139,667,o),
(99,667,o),
(70,666,c),
(70,0,l)
);
},
{
closed = 1;
nodes = (
(209,548,l),
(275,548,ls),
(339,548,o),
(372,518,o),
(372,460,cs),
(372,396,o),
(333,356,o),
(268,356,cs),
(209,356,l)
);
}
);
width = 547;
}
);
note = P;
unicode = 80;
},
{
glyphname = Thorn;
kernLeft = H;
lastChange = "2023-04-05 13:05:38 +0000";
layers = (
{
anchors = (
{
name = bottom;
pos = (132,0);
},
{
name = top;
pos = (300,666);
}
);
hints = (
{
horizontal = 1;
origin = (0,12);
target = up;
type = BottomGhost;
},
{
horizontal = 1;
place = (113, 119);
place = (113, 119);
type = Stem;
},
{
horizontal = 1;
origin = (1,0);
target = (0,9);
type = Stem;
},
{
horizontal = 1;
origin = (0,11);
target = down;
type = TopGhost;
},
{
origin = (0,12);
target = (0,0);
type = Stem;
},
{
origin = (1,4);
target = (0,5);
type = Stem;
}
);
layerId = "67A5D7A9-2C6D-4B81-A947-AF9C36497881";
name = Regular;
shapes = (
{
closed = 1;
nodes = (
(209,0,l),
(209,112,l),
(268,114,ls),
(414,119,o),
(512,204,o),
(512,341,cs),
(512,467,o),
(428,542,o),
(286,542,cs),
(209,542,l),
(209,666,l),
(70,666,l),
(70,0,l)
);
},
{
closed = 1;
nodes = (
(209,425,l),
(267,425,ls),
(335,425,o),
(372,394,o),
(372,336,cs),
(372,272,o),
(326,232,o),
(253,232,cs),
(209,232,l)
);
}
);
width = 557;
}
);
unicode = 222;
},
{
glyphname = Q;
kernLeft = O;
kernRight = Q;
lastChange = "2023-04-05 13:05:38 +0000";
layers = (
{
anchors = (
{
name = bottom;
pos = (373,0);
},
{
name = top;
pos = (371,673);
}
);
hints = (
{
horizontal = 1;
origin = (0,13);
target = (1,13);
type = Stem;
},
{
horizontal = 1;
origin = (0,7);
target = (1,5);
type = Stem;
},
{
origin = (0,10);
target = (1,2);
type = Stem;
},
{
origin = (1,8);
target = (0,4);
type = Stem;
},
{
horizontal = 1;
origin = (0,17);
target = up;
type = BottomGhost;
},
{
horizontal = 1;
origin = (1,12);
target = down;
type = TopGhost;
}
);
layerId = "67A5D7A9-2C6D-4B81-A947-AF9C36497881";
name = Regular;
shapes = (
{
closed = 1;
nodes = (
(704,34,l),
(611,82,l),
(668,143,o),
(701,230,o),
(701,333,cs),
(701,538,o),
(569,673,o),
(371,673,cs),
(172,673,o),
(40,536,o),
(40,329,cs),
(40,124,o),
(173,-14,o),
(371,-14,cs),
(410,-14,o),
(446,-9,o),
(479,1,c),
(689,-103,l)
);
},
{
closed = 1;
nodes = (
(261,114,o),
(190,200,o),
(190,329,cs),
(190,459,o),
(263,547,o),
(371,546,cs),
(479,547,o),
(552,460,o),
(552,329,cs),
(552,250,o),
(526,187,o),
(481,150,c),
(378,204,l),
(369,113,l)
);
}
);
width = 746;
}
);
note = Q;
unicode = 81;
},
{
glyphname = R;
kernLeft = H;
kernRight = R;
lastChange = "2023-04-05 13:05:38 +0000";
layers = (
{
anchors = (
{
name = bottom;
pos = (297,0);
},
{
name = top;
pos = (270,666);
}
);
hints = (
{
horizontal = 1;
origin = (0,25);
target = up;
type = BottomGhost;
},
{
horizontal = 1;
origin = (0,1);
target = (1,8);
type = Stem;
},
{
horizontal = 1;
origin = (0,24);
target = (1,0);
type = Stem;
},
{
origin = (0,25);
target = (0,0);
type = Stem;
},
{
origin = (1,4);
target = (0,15);
type = Stem;
}
);
layerId = "67A5D7A9-2C6D-4B81-A947-AF9C36497881";
name = Regular;
shapes = (
{
closed = 1;
nodes = (
(205,0,l),
(205,260,l),
(241,260,o),
(256,256,o),
(281,210,cs),
(394,0,l),
(562,0,l),
(532,54,o),
(516,82,o),
(479,141,cs),
(430,219,o),
(405,255,o),
(375,279,c),
(464,301,o),
(517,374,o),
(517,472,cs),
(517,583,o),
(448,660,o),
(291,666,cs),
(261,667,o),
(219,667,o),
(178,667,cs),
(137,667,o),
(96,667,o),
(66,666,c),
(66,0,l)
);
},
{
closed = 1;
nodes = (
(205,549,l),
(275,549,ls),
(342,549,o),
(377,521,o),
(377,467,cs),
(377,408,o),
(336,371,o),
(267,371,cs),
(205,371,l)
);
}
);
width = 560;
}
);
note = R;
unicode = 82;
},
{
glyphname = S;
kernLeft = S;
kernRight = S;
lastChange = "2023-04-05 13:05:38 +0000";
layers = (
{
anchors = (
{
name = bottom;
pos = (271,0);
},
{
name = top;
pos = (271,666);
}
);
hints = (
{
horizontal = 1;
origin = (0,37);
target = (0,30);
type = Stem;
},
{
horizontal = 1;
origin = (0,18);
target = (0,11);
type = Stem;
},
{
origin = (0,21);
target = (0,8);
type = Stem;
},
{
origin = (0,27);
target = (0,2);
type = Stem;
},
{
horizontal = 1;
origin = (0,14);
target = up;
type = BottomGhost;
},
{
horizontal = 1;
origin = (0,33);
target = down;
type = TopGhost;
}
);
layerId = "67A5D7A9-2C6D-4B81-A947-AF9C36497881";
name = Regular;
shapes = (
{
closed = 1;
nodes = (
(404,-13,o),
(496,63,o),
(496,192,cs),
(496,350,o),
(356,376,o),
(267,414,cs),
(223,433,o),
(191,449,o),
(191,488,cs),
(191,529,o),
(227,556,o),
(290,556,cs),
(340,556,o),
(401,539,o),
(450,511,c),
(472,643,l),
(411,667,o),
(351,679,o),
(292,679,cs),
(137,679,o),
(46,600,o),
(46,473,cs),
(46,334,o),
(157,303,o),
(244,266,cs),
(301,242,o),
(351,230,o),
(351,183,cs),
(351,139,o),
(307,110,o),
(243,110,cs),
(187,110,o),
(117,132,o),
(57,169,c),
(45,35,l),
(94,6,o),
(167,-13,o),
(246,-13,cs)
);
}
);
width = 541;
}
);
note = S;
unicode = 83;
},
{
glyphname = T;
kernLeft = T;
kernRight = T;
lastChange = "2023-04-05 13:05:38 +0000";
layers = (
{
anchors = (
{
name = bottom;
pos = (284,0);
},
{
name = center;
pos = (284,333);
},
{
name = top;
pos = (284,666);
}
);
hints = (
{
horizontal = 1;
origin = (0,7);
target = up;
type = BottomGhost;
},
{
horizontal = 1;
origin = (0,4);
target = (0,5);
type = Stem;
},
{
origin = (0,7);
target = (0,0);
type = Stem;
}
);
layerId = "67A5D7A9-2C6D-4B81-A947-AF9C36497881";
name = Regular;
shapes = (
{
closed = 1;
nodes = (
(358,0,l),
(358,540,l),
(538,540,l),
(538,666,l),
(30,666,l),
(30,540,l),
(212,540,l),
(212,0,l)
);
}
);
width = 568;
}
);
note = T;
unicode = 84;
},
{
glyphname = U;
kernLeft = U;
kernRight = U;
lastChange = "2023-04-05 13:05:38 +0000";
layers = (
{
anchors = (
{
name = bottom;
pos = (348,0);
},
{
name = ogonek;
pos = (390,0);
},
{
name = top;
pos = (348,666);
},
{
name = topright;
pos = (710,666);
}
);
hints = (
{
horizontal = 1;
origin = (0,17);
target = (0,8);
type = Stem;
},
{
horizontal = 1;
origin = (0,13);
target = down;
type = TopGhost;
},
{
origin = (0,14);
target = (0,11);
type = Stem;
},
{
origin = (0,5);
target = (0,2);
type = Stem;
}
);
layerId = "67A5D7A9-2C6D-4B81-A947-AF9C36497881";
name = Regular;
shapes = (
{
closed = 1;
nodes = (
(515,-13,o),
(626,99,o),
(626,267,cs),
(626,666,l),
(481,666,l),
(481,278,ls),
(481,180,o),
(429,117,o),
(348,117,cs),
(267,117,o),
(216,179,o),
(216,278,cs),
(216,666,l),
(70,666,l),
(70,267,ls),
(70,99,o),
(181,-13,o),
(348,-13,cs)
);
}
);
width = 696;
}
);
note = U;
unicode = 85;
},
{
glyphname = V;
kernLeft = V;
kernRight = V;
lastChange = "2023-04-05 13:05:38 +0000";
layers = (
{
anchors = (
{
name = bottom;
pos = (322,0);
},
{
name = top;
pos = (322,666);
}
);
hints = (
{
horizontal = 1;
origin = (0,6);
target = up;
type = BottomGhost;
},
{
horizontal = 1;
origin = (0,5);
target = down;
type = TopGhost;
},
{
horizontal = 1;
origin = (0,0);
target = (0,3);
type = Stem;
}
);
layerId = "67A5D7A9-2C6D-4B81-A947-AF9C36497881";
name = Regular;
shapes = (
{
closed = 1;
nodes = (
(410,0,l),
(634,666,l),
(485,666,l),
(328,158,l),
(170,666,l),
(10,666,l),
(235,0,l)
);
}
);
width = 644;
}
);
note = V;
unicode = 86;
},
{
glyphname = W;
kernLeft = V;
kernRight = V;
lastChange = "2023-04-05 13:05:38 +0000";
layers = (
{
anchors = (
{
name = bottom;
pos = (511,0);
},
{
name = top;
pos = (511,666);
}
);
hints = (
{
horizontal = 1;
origin = (0,12);
target = up;
type = BottomGhost;
},
{
horizontal = 1;
origin = (0,7);
target = down;
type = TopGhost;
},
{
horizontal = 1;
origin = (0,11);
target = down;
type = TopGhost;
},
{
horizontal = 1;
origin = (0,7);
target = (0,1);
type = Stem;
},
{
horizontal = 1;
origin = (0,3);
target = (0,6);
type = Stem;
}
);
layerId = "67A5D7A9-2C6D-4B81-A947-AF9C36497881";
name = Regular;
shapes = (
{
closed = 1;
nodes = (
(374,0,l),
(508,527,l),
(637,0,l),
(812,0,l),
(992,666,l),
(849,666,l),
(732,173,l),
(606,676,l),
(419,662,l),
(300,187,l),
(184,666,l),
(30,666,l),
(201,0,l)
);
}
);
width = 1022;
}
);
note = W;
unicode = 87;
},
{
glyphname = X;
kernLeft = X;
kernRight = X;
lastChange = "2023-04-05 13:05:38 +0000";
layers = (
{
anchors = (
{
name = bottom;
pos = (337,0);
},
{
name = top;
pos = (337,666);
}
);
hints = (
{
horizontal = 1;
origin = (0,11);
target = up;
type = BottomGhost;
},
{
horizontal = 1;
origin = (0,9);
target = down;
type = TopGhost;
}
);
layerId = "67A5D7A9-2C6D-4B81-A947-AF9C36497881";
name = Regular;
shapes = (
{
closed = 1;
nodes = (
(173,0,l),
(329,235,l),
(490,0,l),
(667,0,l),
(426,350,l),
(645,666,l),
(485,666,l),
(340,452,l),
(195,666,l),
(23,666,l),
(243,342,l),
(6,0,l)
);
}
);
width = 673;
}
);
note = X;
unicode = 88;
},
{
glyphname = Y;
kernLeft = Y;
kernRight = Y;
lastChange = "2023-04-05 13:05:38 +0000";
layers = (
{
anchors = (
{
name = bottom;
pos = (301,0);
},
{
name = top;
pos = (301,666);
},
{
name = topleft;
pos = (20,666);
}
);
hints = (
{
horizontal = 1;
origin = (0,8);
target = up;
type = BottomGhost;
},
{
horizontal = 1;
origin = (0,6);
target = down;
type = TopGhost;
},
{
origin = (0,8);
target = (0,0);
type = Stem;
}
);
layerId = "67A5D7A9-2C6D-4B81-A947-AF9C36497881";
name = Regular;
shapes = (
{
closed = 1;
nodes = (
(373,0,l),
(373,277,l),
(597,666,l),
(437,666,l),
(303,403,l),
(168,666,l),
(5,666,l),
(228,277,l),
(228,0,l)
);
}
);
width = 607;
}
);
note = Y;
unicode = 89;
},
{
glyphname = Z;
kernLeft = Z;
kernRight = Z;
lastChange = "2023-04-05 13:05:38 +0000";
layers = (
{
anchors = (
{
name = bottom;
pos = (295,0);
},
{
name = top;
pos = (295,666);
}
);
hints = (
{
horizontal = 1;
origin = (0,9);
target = (0,2);
type = Stem;
},
{
horizontal = 1;
origin = (0,5);
target = (0,6);
type = Stem;
}
);
layerId = "67A5D7A9-2C6D-4B81-A947-AF9C36497881";
name = Regular;
shapes = (
{
closed = 1;
nodes = (
(540,0,l),
(540,126,l),
(224,126,l),
(540,552,l),
(540,666,l),
(54,666,l),
(54,540,l),
(363,540,l),
(45,109,l),
(45,0,l)
);
}
);
width = 590;
}
);
note = Z;
unicode = 90;
},
{
glyphname = a;
kernLeft = o;
kernRight = a;
lastChange = "2023-04-05 13:40:54 +0000";
layers = (
{
anchors = (
{
name = bottom;
pos = (279,0);
},
{
name = ogonek;
pos = (434,0);
},
{
name = top;
pos = (305,515);
}
);
hints = (
{
horizontal = 1;
origin = (0,15);
target = (1,12);
type = Stem;
},
{
horizontal = 1;
origin = (0,9);
target = (1,5);
type = Stem;
},
{
horizontal = 1;
origin = (0,4);
target = up;
type = BottomGhost;
},
{
origin = (0,12);
target = (1,2);
type = Stem;
},
{
origin = (1,9);
target = (0,5);
type = Stem;
}
);
layerId = "67A5D7A9-2C6D-4B81-A947-AF9C36497881";
name = Regular;
shapes = (
{
closed = 1;
nodes = (
(277,-15,o),
(328,19,o),
(362,82,c),
(366,82,l),
(363,0,l),
(497,0,l),
(497,505,l),
(429,521,o),
(369,529,o),
(319,529,cs),
(139,529,o),
(40,427,o),
(40,238,cs),
(40,81,o),
(108,-15,o),
(214,-15,cs)
);
},
{
closed = 1;
nodes = (
(201,108,o),
(176,160,o),
(176,244,cs),
(176,351,o),
(217,406,o),
(297,406,cs),
(315,406,o),
(340,403,o),
(361,397,c),
(361,229,l),
(329,161,o),
(288,108,o),
(244,108,cs)
);
}
);
width = 557;
}
);
note = a;
unicode = 97;
},
{
glyphname = aogonek;
kernLeft = o;
kernRight = a;
lastChange = "2023-04-05 13:05:38 +0000";
layers = (
{
hints = (
{
horizontal = 1;
origin = (0,33);
target = (0,6);
type = Stem;
},
{
horizontal = 1;
origin = (0,12);
target = up;
type = BottomGhost;
},
{
horizontal = 1;
origin = (0,16);
target = (1,5);
type = Stem;
},
{
horizontal = 1;
origin = (0,22);
target = (1,12);
type = Stem;
},
{
origin = (0,19);
target = (1,2);
type = Stem;
},
{
origin = (0,30);
target = (0,9);
type = Stem;
},
{
origin = (1,9);
target = (0,12);
type = Stem;
}
);
layerId = "67A5D7A9-2C6D-4B81-A947-AF9C36497881";
name = Regular;
shapes = (
{
closed = 1;
nodes = (
(443,-220,o),
(475,-212,o),
(495,-197,c),
(500,-120,l),
(482,-131,o),
(461,-137,o),
(442,-137,cs),
(413,-137,o),
(388,-123,o),
(388,-93,cs),
(388,-52,o),
(434,-19,o),
(497,0,c),
(497,505,l),
(429,521,o),
(369,529,o),
(319,529,cs),
(139,529,o),
(40,427,o),
(40,238,cs),
(40,81,o),
(108,-15,o),
(214,-15,cs),
(277,-15,o),
(328,19,o),
(362,82,c),
(366,82,l),
(364,-12,l),
(326,-36,o),
(297,-73,o),
(297,-122,cs),
(297,-181,o),
(339,-220,o),
(411,-220,cs)
);
},
{
closed = 1;
nodes = (
(201,108,o),
(176,160,o),
(176,244,cs),
(176,351,o),
(217,406,o),
(297,406,cs),
(315,406,o),
(340,403,o),
(361,397,c),
(361,229,l),
(329,161,o),
(288,108,o),
(244,108,cs)
);
}
);
width = 557;
}
);
unicode = 261;
},
{
glyphname = ae;
kernLeft = o;
kernRight = e;
lastChange = "2023-04-05 13:05:38 +0000";
layers = (
{
anchors = (
{
name = bottom;
pos = (429,0);
},
{
name = top;
pos = (429,515);
}
);
hints = (
{
horizontal = 1;
origin = (0,35);
target = (0,13);
type = Stem;
},
{
horizontal = 1;
origin = (0,16);
target = (2,6);
type = Stem;
},
{
horizontal = 1;
origin = (0,29);
target = (2,2);
type = Stem;
},
{
horizontal = 1;
origin = (0,29);
target = (1,5);
type = Stem;
},
{
origin = (0,32);
target = (1,2);
type = Stem;
},
{
origin = (1,11);
target = (2,6);
type = Stem;
},
{
origin = (2,5);
target = (0,20);
type = Stem;
},
{
horizontal = 1;
origin = (0,10);
target = down;
type = TopGhost;
}
);
layerId = "67A5D7A9-2C6D-4B81-A947-AF9C36497881";
name = Regular;
shapes = (
{
closed = 1;
nodes = (
(285,-15,o),
(348,21,o),
(377,87,c),
(381,87,l),
(426,21,o),
(503,-15,o),
(602,-15,cs),
(668,-15,o),
(736,1,o),
(789,29,c),
(766,142,l),
(726,121,o),
(669,107,o),
(619,107,cs),
(538,107,o),
(489,144,o),
(476,215,c),
(816,215,l),
(817,226,o),
(817,237,o),
(817,249,cs),
(817,430,o),
(734,529,o),
(585,529,cs),
(546,529,o),
(510,522,o),
(479,509,c),
(415,522,o),
(360,529,o),
(313,529,cs),
(137,529,o),
(40,425,o),
(40,236,cs),
(40,80,o),
(106,-15,o),
(217,-15,cs)
);
},
{
closed = 1;
nodes = (
(204,108,o),
(176,160,o),
(176,246,cs),
(176,350,o),
(217,406,o),
(297,406,cs),
(315,406,o),
(342,403,o),
(362,397,c),
(344,357,o),
(334,310,o),
(334,257,cs),
(334,225,o),
(337,196,o),
(344,170,c),
(317,129,o),
(285,108,o),
(254,108,cs)
);
},
{
closed = 1;
nodes = (
(484,380,o),
(522,415,o),
(580,415,cs),
(640,415,o),
(678,378,o),
(682,321,c),
(475,321,l)
);
}
);
width = 857;
}
);
metricLeft = a;
metricRight = e;
unicode = 230;
},
{
glyphname = b;
kernLeft = h;
kernRight = o;
lastChange = "2023-04-05 13:55:09 +0000";
layers = (
{
anchors = (
{
name = bottom;
pos = (289,0);
},
{
name = top;
pos = (289,515);
}
);
hints = (
{
horizontal = 1;
origin = (0,14);
target = (1,12);
type = Stem;
},
{
horizontal = 1;
origin = (0,5);
target = (1,6);
type = Stem;
},
{
horizontal = 1;
origin = (0,10);
target = down;
type = TopGhost;
},
{
origin = (0,11);
target = (1,2);
type = Stem;
},
{
origin = (1,9);
target = (0,2);
type = Stem;
}
);
layerId = "67A5D7A9-2C6D-4B81-A947-AF9C36497881";
name = Regular;
shapes = (
{
closed = 1;
nodes = (
(436,-15,o),
(537,88,o),
(537,277,cs),
(537,435,o),
(467,529,o),
(349,529,cs),
(292,529,o),
(243,507,o),
(204,465,c),
(204,730,l),
(65,730,l),
(65,9,l),
(133,-6,o),
(200,-15,o),
(254,-15,cs)
);
},
{
closed = 1;
nodes = (
(249,108,o),
(225,111,o),
(204,117,c),
(204,318,l),
(233,375,o),
(272,406,o),
(314,406,cs),
(367,406,o),
(396,355,o),
(396,269,cs),
(396,163,o),
(352,108,o),
(269,108,cs)
);
}
);
width = 577;
}
);
note = b;
unicode = 98;
},
{
glyphname = c;
kernLeft = o;
kernRight = c;
lastChange = "2023-04-05 13:05:38 +0000";
layers = (
{
anchors = (
{
name = bottom;
pos = (299,0);
},
{
name = top;
pos = (277,515);
}
);
hints = (
{
horizontal = 1;
origin = (0,25);
target = (0,6);
type = Stem;
},
{
horizontal = 1;
origin = (0,19);
target = (0,12);
type = Stem;
},
{
origin = (0,22);
target = (0,9);
type = Stem;
},
{
horizontal = 1;
origin = (0,15);
target = up;
type = BottomGhost;
},
{
horizontal = 1;
origin = (0,3);
target = down;
type = TopGhost;
}
);
layerId = "67A5D7A9-2C6D-4B81-A947-AF9C36497881";
name = Regular;
shapes = (
{
closed = 1;
nodes = (
(354,-15,o),
(400,-7,o),
(445,11,c),
(424,125,l),
(388,113,o),
(355,107,o),
(323,107,cs),
(229,107,o),
(175,160,o),
(175,253,cs),
(175,345,o),
(230,406,o),
(312,406,cs),
(343,406,o),
(383,397,o),
(414,382,c),
(441,501,l),
(412,516,o),
(351,529,o),
(301,529,cs),
(142,529,o),
(36,415,o),
(36,245,cs),
(36,80,o),
(134,-15,o),
(305,-15,cs)
);
}
);
width = 480;
}
);
note = c;
unicode = 99;
},
{
glyphname = d;
kernLeft = o;
kernRight = d;
lastChange = "2023-04-05 13:23:22 +0000";
layers = (
{
anchors = (
{
name = bottom;
pos = (279,0);
},
{
name = center;
pos = (407,623);
},
{
name = top;
pos = (289,515);
},
{
name = topright;
pos = (552,846);
}
);
guides = (
{
angle = 90;
pos = (486,460);
}
);
hints = (
{
horizontal = 1;
origin = (0,17);
target = (1,12);
type = Stem;
},
{
horizontal = 1;
origin = (0,11);
target = (1,5);
type = Stem;
},
{
horizontal = 1;
origin = (0,7);
target = down;
type = TopGhost;
},
{
horizontal = 1;
origin = (0,4);
target = up;
type = BottomGhost;
},
{
origin = (0,14);
target = (1,2);
type = Stem;
},
{
origin = (1,9);
target = (0,5);
type = Stem;
}
);
layerId = "67A5D7A9-2C6D-4B81-A947-AF9C36497881";
name = Regular;
shapes = (
{
closed = 1;
nodes = (
(290,-15,o),
(341,14,o),
(375,67,c),
(379,67,l),
(376,0,l),
(513,0,l),
(513,730,l),
(374,730,l),
(374,527,l),
(357,528,o),
(341,529,o),
(323,529,cs),
(142,529,o),
(40,426,o),
(40,237,cs),
(40,78,o),
(111,-15,o),
(226,-15,cs)
);
},
{
closed = 1;
nodes = (
(210,108,o),
(181,159,o),
(181,245,cs),
(181,350,o),
(225,406,o),
(309,406,cs),
(329,406,o),
(351,403,o),
(374,397,c),
(374,214,l),
(342,146,o),
(300,108,o),
(258,108,cs)
);
}
);
width = 577;
}
);
note = d;
unicode = 100;
},
{
glyphname = eth;
kernLeft = o;
kernRight = o;
lastChange = "2023-04-05 13:05:38 +0000";
layers = (
{
hints = (
{
horizontal = 1;
origin = (0,18);
target = (1,11);
type = Stem;
},
{
horizontal = 1;
origin = (0,12);
target = (1,5);
type = Stem;
},
{
horizontal = 1;
origin = (2,1);
target = down;
type = TopGhost;
},
{
origin = (0,15);
target = (1,2);
type = Stem;
},
{
origin = (1,8);
target = (0,2);
type = Stem;
},
{
horizontal = 1;
origin = (2,1);
target = down;
type = TopGhost;
},
{
horizontal = 1;
origin = (2,3);
target = up;
type = BottomGhost;
}
);
layerId = "67A5D7A9-2C6D-4B81-A947-AF9C36497881";
name = Regular;
shapes = (
{
closed = 1;
nodes = (
(460,-15,o),
(541,117,o),
(541,298,cs),
(541,488,o),
(451,636,o),
(308,751,c),
(161,712,l),
(254,638,o),
(325,578,o),
(377,512,c),
(350,524,o),
(323,529,o),
(291,529,cs),
(144,529,o),
(45,420,o),
(45,257,cs),
(45,93,o),
(144,-15,o),
(294,-15,cs)
);
},
{
closed = 1;
nodes = (
(225,106,o),
(182,166,o),
(182,258,cs),
(182,349,o),
(225,408,o),
(292,408,cs),
(359,408,o),
(402,349,o),
(402,258,cs),
(402,166,o),
(359,106,o),
(292,106,cs)
);
},
{
closed = 1;
nodes = (
(501,663,l),
(488,735,l),
(170,625,l),
(183,553,l)
);
}
);
width = 586;
}
);
unicode = 240;
},
{
glyphname = dcaron;
kernLeft = o;
kernRight = dcaron;
lastChange = "2023-04-05 13:24:00 +0000";
layers = (
{
background = {
shapes = (
{
closed = 1;
nodes = (
(287,-15,o),
(339,10,o),
(377,56,c),
(377,0,l),
(513,0,l),
(513,730,l),
(374,730,l),
(374,527,l),
(357,528,o),
(340,529,o),
(325,529,cs),
(141,529,o),
(40,426,o),
(40,237,cs),
(40,79,o),
(110,-15,o),
(227,-15,cs)
);
},
{
closed = 1;
nodes = (
(211,108,o),
(181,158,o),
(181,245,cs),
(181,350,o),
(225,406,o),
(309,406,cs),
(329,406,o),
(351,403,o),
(374,397,c),
(374,196,l),
(345,139,o),
(306,108,o),
(264,108,cs)
);
},
{
closed = 1;
nodes = (
(666,600,o),
(725,662,o),
(725,725,cs),
(725,775,o),
(691,807,o),
(652,807,cs),
(629,807,o),
(609,797,o),
(596,782,cs),
(584,767,o),
(578,747,o),
(580,725,c),
(618,677,l),
(609,653,o),
(592,624,o),
(572,600,c),
(598,565,l)
);
}
);
};
hints = (
{
horizontal = 1;
place = (0, 21);
target = up;
type = BottomGhost;
},
{
horizontal = 1;
place = (529, 123);
place = (529, 123);
type = Stem;
},
{
horizontal = 1;
place = (730, -20);
target = down;
type = TopGhost;
},
{
horizontal = 1;
place = (-15, 123);
place = (-15, 123);
type = Stem;
},
{
place = (40, 141);
place = (40, 141);
type = Stem;
},
{
place = (374, 139);
place = (374, 139);
type = Stem;
},
{
place = (580, 145);
place = (580, 145);
type = Stem;
},
{
horizontal = 1;
place = (565, 21);
target = up;
type = BottomGhost;
}
);
layerId = "67A5D7A9-2C6D-4B81-A947-AF9C36497881";
name = Regular;
shapes = (
{
ref = d;
},
{
pos = (522,116);
ref = caroncomb.alt;
}
);
width = 577;
}
);
unicode = 271;
},
{
glyphname = e;
kernLeft = o;
kernRight = e;
lastChange = "2023-04-05 13:05:38 +0000";
layers = (
{
anchors = (
{
name = bottom;
pos = (292,0);
},
{
name = ogonek;
pos = (369,0);
},
{
name = top;
pos = (291,515);
}
);
hints = (
{
horizontal = 1;
origin = (0,22);
target = (0,6);
type = Stem;
},
{
horizontal = 1;
origin = (0,9);
target = (1,6);
type = Stem;
},
{
horizontal = 1;
origin = (0,16);
target = (1,2);
type = Stem;
},
{
origin = (0,19);
target = (1,6);
type = Stem;
},
{
origin = (1,5);
target = (0,13);
type = Stem;
},
{
horizontal = 1;
origin = (0,3);
target = down;
type = TopGhost;
}
);
layerId = "67A5D7A9-2C6D-4B81-A947-AF9C36497881";
name = Regular;
shapes = (
{
closed = 1;
nodes = (
(374,-15,o),
(442,1,o),
(495,29,c),
(472,142,l),
(432,121,o),
(375,107,o),
(325,107,cs),
(244,107,o),
(195,144,o),
(182,215,c),
(522,215,l),
(523,226,o),
(523,237,o),
(523,249,cs),
(523,430,o),
(440,529,o),
(291,529,cs),
(138,529,o),
(40,425,o),
(40,257,cs),
(40,86,o),
(142,-15,o),
(308,-15,cs)
);
},
{
closed = 1;
nodes = (
(190,380,o),
(228,415,o),
(286,415,cs),
(346,415,o),
(384,378,o),
(388,321,c),
(181,321,l)
);
}
);
width = 563;
}
);
note = e;
unicode = 101;
},
{
glyphname = f;
kernLeft = f;
kernRight = f;
lastChange = "2023-04-05 14:30:58 +0000";
layers = (
{
anchors = (
{
name = bottom;
pos = (226,0);
},
{
name = top;
pos = (245,730);
}
);
hints = (
{
horizontal = 1;
origin = (0,27);
target = (0,26);
type = Stem;
},
{
horizontal = 1;
origin = (0,22);
target = (0,23);
type = Stem;
},
{
horizontal = 1;
origin = (0,17);
target = (0,10);
type = Stem;
},
{
origin = (0,25);
target = (0,2);
type = Stem;
},
{
horizontal = 1;
origin = (0,13);
target = up;
type = BottomGhost;
}
);
layerId = "67A5D7A9-2C6D-4B81-A947-AF9C36497881";
name = Regular;
shapes = (
{
closed = 1;
nodes = (
(398,0,l),
(398,121,l),
(278,121,l),
(278,394,l),
(398,394,l),
(398,515,l),
(278,515,l),
(278,571,ls),
(278,604,o),
(296,622,o),
(327,622,cs),
(345,622,o),
(366,616,o),
(388,605,c),
(437,716,l),
(393,734,o),
(350,744,o),
(313,744,cs),
(207,744,o),
(137,678,o),
(137,578,cs),
(137,515,l),
(46,515,l),
(46,394,l),
(137,394,l),
(137,121,l),
(46,121,l),
(46,0,l)
);
}
);
width = 452;
}
);
note = f;
unicode = 102;
},
{
glyphname = g;
kernLeft = g;
kernRight = g;
lastChange = "2023-04-05 14:00:43 +0000";
layers = (
{
anchors = (
{
name = bottom;
pos = (277,-218);
},
{
name = top;
pos = (309,515);
}
);
hints = (
{
horizontal = 1;
origin = (0,31);
target = (0,24);
type = Stem;
},
{
horizontal = 1;
origin = (0,17);
target = (1,12);
type = Stem;
},
{
horizontal = 1;
origin = (0,11);
target = (1,5);
type = Stem;
},
{
origin = (0,14);
target = (1,2);
type = Stem;
},
{
place = (373.5, 140.5);
place = (373.5, 140.5);
type = Stem;
},
{
horizontal = 1;
origin = (0,27);
target = down;
type = TopGhost;
}
);
layerId = "67A5D7A9-2C6D-4B81-A947-AF9C36497881";
name = Regular;
shapes = (
{
closed = 1;
nodes = (
(420,-227,o),
(510,-134,o),
(513,55,cs),
(514,102,o),
(514,148,o),
(514,195,cs),
(514,298,o),
(513,402,o),
(512,505,c),
(444,520,o),
(378,529,o),
(324,529,cs),
(142,529,o),
(40,427,o),
(40,236,cs),
(40,78,o),
(110,-15,o),
(227,-15,cs),
(285,-15,o),
(336,8,o),
(373,51,c),
(376,51,l),
(372,-61,o),
(348,-108,o),
(245,-108,cs),
(193,-108,o),
(140,-96,o),
(85,-80,c),
(58,-204,l),
(121,-221,o),
(184,-227,o),
(232,-227,cs)
);
},
{
closed = 1;
nodes = (
(211,108,o),
(181,159,o),
(181,246,cs),
(181,350,o),
(224,406,o),
(309,406,cs),
(329,406,o),
(351,403,o),
(373,397,c),
(373,196,l),
(344,141,o),
(306,108,o),
(264,108,cs)
);
}
);
width = 577;
}
);
note = g;
unicode = 103;
},
{
glyphname = h;
kernLeft = h;
kernRight = n;
lastChange = "2023-04-05 14:00:55 +0000";
layers = (
{
anchors = (
{
name = bottom;
pos = (303,0);
},
{
name = center;
pos = (168,623);
},
{
name = top;
pos = (389,515);
}
);
hints = (
{
horizontal = 1;
origin = (0,19);
target = up;
type = BottomGhost;
},
{
horizontal = 1;
origin = (0,13);
target = (0,4);
type = Stem;
},
{
horizontal = 1;
origin = (0,18);
target = down;
type = TopGhost;
},
{
origin = (0,19);
target = (0,0);
type = Stem;
},
{
origin = (0,8);
target = (0,9);
type = Stem;
}
);
layerId = "67A5D7A9-2C6D-4B81-A947-AF9C36497881";
name = Regular;
shapes = (
{
closed = 1;
nodes = (
(206,0,l),
(206,312,l),
(233,366,o),
(280,405,o),
(331,405,cs),
(376,405,o),
(405,374,o),
(405,320,cs),
(405,0,l),
(546,0,l),
(546,342,ls),
(546,459,o),
(479,529,o),
(369,529,cs),
(301,529,o),
(248,502,o),
(206,440,c),
(206,730,l),
(65,730,l),
(65,0,l)
);
}
);
width = 606;
}
);
note = h;
unicode = 104;
},
{
glyphname = i;
kernLeft = i;
kernRight = i;
lastChange = "2023-04-05 14:00:59 +0000";
layers = (
{
hints = (
{
horizontal = 1;
origin = (0,9);
target = (0,8);
type = Stem;
},
{
horizontal = 1;
origin = (0,4);
target = (0,5);
type = Stem;
},
{
horizontal = 1;
origin = (1,2);
target = (1,3);
type = Stem;
},
{
origin = (1,3);
target = (1,0);
type = Stem;
},
{
origin = (0,7);
target = (0,2);
type = Stem;
}
);
layerId = "67A5D7A9-2C6D-4B81-A947-AF9C36497881";
name = Regular;
shapes = (
{
closed = 1;
nodes = (
(370,0,l),
(370,121,l),
(284,121,l),
(284,515,l),
(47,515,l),
(47,394,l),
(143,394,l),
(143,121,l),
(47,121,l),
(47,0,l)
);
},
{
closed = 1;
nodes = (
(286,600,l),
(286,730,l),
(125,730,l),
(125,600,l)
);
}
);
width = 398;
}
);
note = i;
unicode = 105;
},
{
glyphname = idotless;
kernLeft = i;
kernRight = i;
lastChange = "2023-04-05 13:05:38 +0000";
layers = (
{
anchors = (
{
name = bottom;
pos = (199,0);
},
{
name = ogonek;
pos = (319,0);
},
{
name = top;
pos = (199,515);
}
);
hints = (
{
horizontal = 1;
origin = (0,9);
target = (0,8);
type = Stem;
},
{
horizontal = 1;
origin = (0,4);
target = (0,5);
type = Stem;
},
{
origin = (0,7);
target = (0,2);
type = Stem;
}
);
layerId = "67A5D7A9-2C6D-4B81-A947-AF9C36497881";
name = Regular;
shapes = (
{
closed = 1;
nodes = (
(370,0,l),
(370,121,l),
(284,121,l),
(284,515,l),
(47,515,l),
(47,394,l),
(143,394,l),
(143,121,l),
(47,121,l),
(47,0,l)
);
}
);
width = 398;
}
);
unicode = 305;
},
{
glyphname = j;
kernLeft = j;
kernRight = j;
lastChange = "2023-04-05 14:28:08 +0000";
layers = (
{
background = {
shapes = (
{
closed = 1;
nodes = (
(164,-233,o),
(232,-165,o),
(232,-56,cs),
(232,515,l),
(91,515,l),
(91,-45,ls),
(91,-87,o),
(75,-107,o),
(40,-107,cs),
(26,-107,o),
(9,-103,o),
(-6,-96,c),
(-43,-213,l),
(-11,-226,o),
(24,-233,o),
(57,-233,cs)
);
},
{
closed = 1;
nodes = (
(242,600,l),
(242,730,l),
(81,730,l),
(81,600,l)
);
}
);
};
hints = (
{
horizontal = 1;
origin = (0,15);
target = (0,12);
type = Stem;
},
{
horizontal = 1;
origin = (0,4);
target = down;
type = TopGhost;
},
{
horizontal = 1;
origin = (1,2);
target = (1,3);
type = Stem;
},
{
horizontal = 1;
origin = (0,15);
target = (0,8);
type = Stem;
},
{
origin = (1,3);
target = (1,0);
type = Stem;
},
{
origin = (0,5);
target = (0,2);
type = Stem;
},
{
horizontal = 1;
origin = (0,11);
target = down;
type = TopGhost;
}
);
layerId = "67A5D7A9-2C6D-4B81-A947-AF9C36497881";
name = Regular;
shapes = (
{
closed = 1;
nodes = (
(164,-233,o),
(232,-165,o),
(232,-56,cs),
(232,515,l),
(91,515,l),
(91,-45,ls),
(91,-87,o),
(75,-107,o),
(40,-107,cs),
(26,-107,o),
(9,-103,o),
(-6,-96,c),
(-43,-213,l),
(-11,-226,o),
(24,-233,o),
(57,-233,cs)
);
},
{
closed = 1;
nodes = (
(242,600,l),
(242,730,l),
(81,730,l),
(81,600,l)
);
}
);
width = 303;
}
);
note = j;
unicode = 106;
},
{
glyphname = jdotless;
kernLeft = j;
lastChange = "2023-04-05 13:55:49 +0000";
layers = (
{
anchors = (
{
name = bottom;
pos = (147,-218);
},
{
name = top;
pos = (162,515);
}
);
layerId = "67A5D7A9-2C6D-4B81-A947-AF9C36497881";
shapes = (
{
closed = 1;
nodes = (
(164,-233,o),
(232,-165,o),
(232,-56,cs),
(232,515,l),
(91,515,l),
(91,-45,ls),
(91,-87,o),
(75,-107,o),
(40,-107,cs),
(26,-107,o),
(9,-103,o),
(-6,-96,c),
(-43,-213,l),
(-11,-226,o),
(24,-233,o),
(57,-233,cs)
);
}
);
width = 293;
}
);
unicode = 567;
},
{
glyphname = k;
kernLeft = h;
kernRight = k;
lastChange = "2023-04-05 14:30:01 +0000";
layers = (
{
anchors = (
{
name = bottom;
pos = (278,0);
},
{
name = top;
pos = (132,730);
}
);
hints = (
{
horizontal = 1;
origin = (0,10);
target = up;
type = BottomGhost;
},
{
horizontal = 1;
origin = (0,3);
target = up;
type = BottomGhost;
},
{
horizontal = 1;
origin = (0,6);
target = down;
type = TopGhost;
},
{
horizontal = 1;
origin = (0,7);
target = down;
type = TopGhost;
},
{
origin = (0,7);
target = (0,8);
type = Stem;
}
);
layerId = "67A5D7A9-2C6D-4B81-A947-AF9C36497881";
name = Regular;
shapes = (
{
closed = 1;
nodes = (
(545,6,l),
(328,284,l),
(534,515,l),
(367,515,l),
(206,327,l),
(206,731,l),
(65,731,l),
(65,0,l),
(206,0,l),
(206,224,l),
(392,-15,l)
);
}
);
width = 545;
}
);
note = k;
unicode = 107;
},
{
glyphname = l;
kernLeft = l;
kernRight = l;
lastChange = "2023-04-05 13:25:39 +0000";
layers = (
{
anchors = (
{
name = bottom;
pos = (197,0);
},
{
name = center;
pos = (197,379);
},
{
name = top;
pos = (187,730);
},
{
name = topright;
pos = (318,847);
}
);
hints = (
{
horizontal = 1;
origin = (0,9);
target = (0,8);
type = Stem;
},
{
horizontal = 1;
origin = (0,4);
target = (0,5);
type = Stem;
},
{
origin = (0,7);
target = (0,2);
type = Stem;
}
);
layerId = "67A5D7A9-2C6D-4B81-A947-AF9C36497881";
name = Regular;
shapes = (
{
closed = 1;
nodes = (
(365,0,l),
(365,121,l),
(274,121,l),
(274,730,l),
(47,730,l),
(47,610,l),
(133,610,l),
(133,121,l),
(42,121,l),
(42,0,l)
);
}
);
width = 393;
}
);
note = l;
unicode = 108;
},
{
glyphname = lacute;
kernLeft = l;
kernRight = l;
lastChange = "2023-04-05 13:05:38 +0000";
layers = (
{
hints = (
{
horizontal = 1;
origin = (0,9);
target = (0,8);
type = Stem;
},
{
horizontal = 1;
origin = (0,4);
target = (0,5);
type = Stem;
},
{
origin = (0,7);
target = (0,2);
type = Stem;
},
{
origin = (1,8);
target = (1,2);
type = Stem;
},
{
horizontal = 1;
origin = (1,13);
target = up;
type = BottomGhost;
}
);
layerId = "67A5D7A9-2C6D-4B81-A947-AF9C36497881";
name = Regular;
shapes = (
{
closed = 1;
nodes = (
(365,0,l),
(365,121,l),
(274,121,l),
(274,730,l),
(47,730,l),
(47,610,l),
(133,610,l),
(133,121,l),
(42,121,l),
(42,0,l)
);
},
{
closed = 1;
nodes = (
(256,817,o),
(334,874,o),
(334,946,cs),
(334,991,o),
(301,1022,o),
(261,1022,cs),
(220,1022,o),
(191,988,o),
(191,953,c),
(217,900,l),
(203,878,o),
(181,854,o),
(156,834,c),
(174,795,l)
);
}
);
width = 393;
}
);
metricRight = l;
unicode = 314;
},
{
glyphname = lcaron;
kernLeft = l;
kernRight = lcaron;
lastChange = "2023-04-05 13:25:04 +0000";
layers = (
{
background = {
shapes = (
{
closed = 1;
nodes = (
(365,0,l),
(365,121,l),
(274,121,l),
(274,730,l),
(47,730,l),
(47,610,l),
(133,610,l),
(133,121,l),
(42,121,l),
(42,0,l)
);
},
{
closed = 1;
nodes = (
(433,600,o),
(492,662,o),
(492,725,cs),
(492,775,o),
(458,807,o),
(419,807,cs),
(396,807,o),
(376,797,o),
(363,782,cs),
(351,767,o),
(345,747,o),
(347,725,c),
(385,677,l),
(376,653,o),
(359,624,o),
(339,600,c),
(365,565,l)
);
}
);
};
hints = (
{
horizontal = 1;
place = (0, 121);
place = (0, 121);
type = Stem;
},
{
horizontal = 1;
place = (730, 120);
place = (730, 120);
type = Stem;
},
{
place = (133, 141);
place = (133, 141);
type = Stem;
},
{
place = (347, 145);
place = (347, 145);
type = Stem;
},
{
horizontal = 1;
place = (565, 21);
target = up;
type = BottomGhost;
}
);
layerId = "67A5D7A9-2C6D-4B81-A947-AF9C36497881";
name = Regular;
shapes = (
{
ref = l;
},
{
pos = (288,117);
ref = caroncomb.alt;
}
);
width = 393;
}
);
unicode = 318;
},
{
glyphname = m;
kernLeft = n;
kernRight = n;
lastChange = "2023-04-05 14:01:16 +0000";
layers = (
{
anchors = (
{
name = bottom;
pos = (472,0);
},
{
name = top;
pos = (472,515);
}
);
hints = (
{
horizontal = 1;
origin = (0,34);
target = up;
type = BottomGhost;
},
{
horizontal = 1;
origin = (0,28);
target = (0,4);
type = Stem;
},
{
horizontal = 1;
origin = (0,33);
target = down;
type = TopGhost;
},
{
origin = (0,34);
target = (0,0);
type = Stem;
},
{
origin = (0,8);
target = (0,9);
type = Stem;
},
{
origin = (0,17);
target = (0,18);
type = Stem;
}
);
layerId = "67A5D7A9-2C6D-4B81-A947-AF9C36497881";
name = Regular;
shapes = (
{
closed = 1;
nodes = (
(206,0,l),
(206,300,l),
(233,367,o),
(280,405,o),
(328,405,cs),
(372,405,o),
(401,373,o),
(401,320,cs),
(401,0,l),
(542,0,l),
(542,284,l),
(564,354,o),
(614,405,o),
(670,405,cs),
(714,405,o),
(742,374,o),
(742,320,cs),
(742,0,l),
(883,0,l),
(883,342,ls),
(883,459,o),
(817,529,o),
(707,529,cs),
(632,529,o),
(576,496,o),
(529,423,c),
(504,490,o),
(447,529,o),
(368,529,cs),
(298,529,o),
(244,498,o),
(203,435,c),
(203,515,l),
(65,515,l),
(65,0,l)
);
}
);
width = 943;
}
);
note = m;
unicode = 109;
},
{
glyphname = n;
kernLeft = n;
kernRight = n;
lastChange = "2023-04-05 13:05:38 +0000";
layers = (
{
anchors = (
{
name = bottom;
pos = (306,0);
},
{
name = top;
pos = (306,515);
}
);
hints = (
{
horizontal = 1;
origin = (0,19);
target = up;
type = BottomGhost;
},
{
horizontal = 1;
origin = (0,18);
target = down;
type = TopGhost;
},
{
horizontal = 1;
origin = (0,13);
target = (0,4);
type = Stem;
},
{
origin = (0,19);
target = (0,0);
type = Stem;
},
{
origin = (0,8);
target = (0,9);
type = Stem;
}
);
layerId = "67A5D7A9-2C6D-4B81-A947-AF9C36497881";
name = Regular;
shapes = (
{
closed = 1;
nodes = (
(206,0,l),
(206,299,l),
(231,359,o),
(282,405,o),
(337,405,cs),
(382,405,o),
(411,374,o),
(411,320,cs),
(411,0,l),
(552,0,l),
(552,342,ls),
(552,459,o),
(485,529,o),
(375,529,cs),
(302,529,o),
(246,498,o),
(203,426,c),
(203,515,l),
(65,515,l),
(65,0,l)
);
}
);
width = 612;
}
);
note = n;
unicode = 110;
},
{
glyphname = eng;
kernLeft = n;
kernRight = j;
lastChange = "2023-04-05 13:05:38 +0000";
layers = (
{
hints = (
{
horizontal = 1;
origin = (0,31);
target = (0,28);
type = Stem;
},
{
horizontal = 1;
origin = (0,12);
target = up;
type = BottomGhost;
},
{
horizontal = 1;
origin = (0,11);
target = down;
type = TopGhost;
},
{
horizontal = 1;
origin = (0,6);
target = (0,17);
type = Stem;
},
{
horizontal = 1;
origin = (0,31);
target = (0,24);
type = Stem;
},
{
origin = (0,12);
target = (0,13);
type = Stem;
},
{
origin = (0,21);
target = (0,2);
type = Stem;
},
{
horizontal = 1;
origin = (0,27);
target = down;
type = TopGhost;
}
);
layerId = "67A5D7A9-2C6D-4B81-A947-AF9C36497881";
name = Regular;
shapes = (
{
closed = 1;
nodes = (
(484,-233,o),
(552,-165,o),
(552,-56,cs),
(552,342,ls),
(552,459,o),
(485,529,o),
(375,529,cs),
(302,529,o),
(246,498,o),
(203,426,c),
(203,515,l),
(65,515,l),
(65,0,l),
(206,0,l),
(206,299,l),
(231,359,o),
(282,405,o),
(337,405,cs),
(382,405,o),
(411,374,o),
(411,320,cs),
(411,-45,ls),
(411,-87,o),
(395,-107,o),
(360,-107,cs),
(346,-107,o),
(329,-103,o),
(314,-96,c),
(277,-213,l),
(309,-226,o),
(344,-233,o),
(377,-233,cs)
);
}
);
width = 613;
}
);
metricRight = j;
unicode = 331;
},
{
glyphname = o;
kernLeft = o;
kernRight = o;
lastChange = "2023-04-05 13:05:38 +0000";
layers = (
{
anchors = (
{
name = bottom;
pos = (302,0);
},
{
name = center;
pos = (302,258);
},
{
name = ogonek;
pos = (347,0);
},
{
name = top;
pos = (302,515);
},
{
name = topright;
pos = (584,515);
}
);
hints = (
{
horizontal = 1;
origin = (0,11);
target = (1,11);
type = Stem;
},
{
horizontal = 1;
origin = (0,5);
target = (1,5);
type = Stem;
},
{
origin = (0,8);
target = (1,2);
type = Stem;
},
{
origin = (1,8);
target = (0,2);
type = Stem;
}
);
layerId = "67A5D7A9-2C6D-4B81-A947-AF9C36497881";
name = Regular;
shapes = (
{
closed = 1;
nodes = (
(459,-15,o),
(564,96,o),
(564,260,cs),
(564,422,o),
(459,529,o),
(302,529,cs),
(145,529,o),
(40,420,o),
(40,257,cs),
(40,93,o),
(145,-15,o),
(303,-15,cs)
);
},
{
closed = 1;
nodes = (
(230,107,o),
(183,167,o),
(183,258,cs),
(183,348,o),
(230,407,o),
(302,407,cs),
(374,407,o),
(421,348,o),
(421,258,cs),
(421,167,o),
(374,107,o),
(302,107,cs)
);
}
);
width = 604;
}
);
note = o;
unicode = 111;
},
{
glyphname = oslash;
kernLeft = o;
kernRight = o;
lastChange = "2023-04-05 13:05:38 +0000";
layers = (
{
hints = (
{
horizontal = 1;
origin = (1,11);
target = (2,11);
type = Stem;
},
{
horizontal = 1;
origin = (1,5);
target = (2,5);
type = Stem;
},
{
origin = (1,8);
target = (2,2);
type = Stem;
},
{
origin = (2,8);
target = (1,2);
type = Stem;
},
{
horizontal = 1;
origin = (0,1);
target = down;
type = TopGhost;
},
{
horizontal = 1;
origin = (0,3);
target = up;
type = BottomGhost;
}
);
layerId = "67A5D7A9-2C6D-4B81-A947-AF9C36497881";
name = Regular;
shapes = (
{
closed = 1;
nodes = (
(558,449,l),
(534,557,l),
(50,67,l),
(74,-41,l)
);
},
{
closed = 1;
nodes = (
(461,-15,o),
(566,96,o),
(566,260,cs),
(566,422,o),
(461,529,o),
(304,529,cs),
(147,529,o),
(42,420,o),
(42,257,cs),
(42,93,o),
(147,-15,o),
(305,-15,cs)
);
},
{
closed = 1;
nodes = (
(232,107,o),
(185,167,o),
(185,258,cs),
(185,348,o),
(232,407,o),
(304,407,cs),
(376,407,o),
(423,348,o),
(423,258,cs),
(423,167,o),
(376,107,o),
(304,107,cs)
);
}
);
width = 607;
}
);
unicode = 248;
},
{
glyphname = oe;
kernLeft = o;
kernRight = e;
lastChange = "2023-04-05 13:05:38 +0000";
layers = (
{
anchors = (
{
name = bottom;
pos = (452,0);
},
{
name = top;
pos = (452,515);
}
);
hints = (
{
horizontal = 1;
origin = (0,34);
target = (1,17);
type = Stem;
},
{
horizontal = 1;
origin = (0,15);
target = (2,6);
type = Stem;
},
{
horizontal = 1;
origin = (0,28);
target = (2,2);
type = Stem;
},
{
horizontal = 1;
origin = (0,28);
target = (1,5);
type = Stem;
},
{
origin = (0,31);
target = (1,2);
type = Stem;
},
{
origin = (1,14);
target = (2,6);
type = Stem;
},
{
origin = (2,5);
target = (0,19);
type = Stem;
},
{
horizontal = 1;
origin = (0,9);
target = down;
type = TopGhost;
}
);
layerId = "67A5D7A9-2C6D-4B81-A947-AF9C36497881";
name = Regular;
shapes = (
{
closed = 1;
nodes = (
(369,-15,o),
(426,5,o),
(469,41,c),
(514,5,o),
(575,-15,o),
(648,-15,cs),
(714,-15,o),
(782,1,o),
(835,29,c),
(812,142,l),
(772,121,o),
(715,107,o),
(665,107,cs),
(584,107,o),
(535,144,o),
(522,215,c),
(862,215,l),
(863,226,o),
(863,237,o),
(863,249,cs),
(863,430,o),
(780,529,o),
(631,529,cs),
(566,529,o),
(511,510,o),
(469,476,c),
(425,510,o),
(368,529,o),
(302,529,cs),
(145,529,o),
(40,420,o),
(40,257,cs),
(40,93,o),
(145,-15,o),
(303,-15,cs)
);
},
{
closed = 1;
nodes = (
(230,107,o),
(183,167,o),
(183,258,cs),
(183,348,o),
(230,407,o),
(302,407,cs),
(341,407,o),
(373,389,o),
(394,359,c),
(385,328,o),
(380,294,o),
(380,257,cs),
(380,220,o),
(385,186,o),
(394,156,c),
(373,125,o),
(341,107,o),
(302,107,cs)
);
},
{
closed = 1;
nodes = (
(530,380,o),
(568,415,o),
(626,415,cs),
(686,415,o),
(724,378,o),
(728,321,c),
(521,321,l)
);
}
);
width = 903;
}
);
metricRight = e;
unicode = 339;
},
{
glyphname = p;
kernLeft = p;
kernRight = o;
lastChange = "2023-04-05 14:01:24 +0000";
layers = (
{
anchors = (
{
name = bottom;
pos = (133,-218);
},
{
name = top;
pos = (289,515);
}
);
hints = (
{
horizontal = 1;
origin = (0,17);
target = up;
type = BottomGhost;
},
{
horizontal = 1;
origin = (0,4);
target = (1,12);
type = Stem;
},
{
horizontal = 1;
origin = (0,10);
target = (1,6);
type = Stem;
},
{
horizontal = 1;
origin = (0,16);
target = (0,14);
type = Stem;
},
{
origin = (0,17);
target = (0,0);
type = Stem;
},
{
origin = (1,9);
target = (0,7);
type = Stem;
}
);
layerId = "67A5D7A9-2C6D-4B81-A947-AF9C36497881";
name = Regular;
shapes = (
{
closed = 1;
nodes = (
(204,-218,l),
(204,-12,l),
(221,-13,o),
(237,-14,o),
(255,-14,cs),
(436,-14,o),
(538,89,o),
(538,278,cs),
(538,437,o),
(467,530,o),
(352,530,cs),
(288,530,o),
(237,501,o),
(203,448,c),
(199,448,l),
(202,515,l),
(65,515,l),
(65,-218,l)
);
},
{
closed = 1;
nodes = (
(249,109,o),
(227,112,o),
(204,118,c),
(204,301,l),
(236,369,o),
(278,407,o),
(320,407,cs),
(368,407,o),
(397,356,o),
(397,270,cs),
(397,165,o),
(353,109,o),
(269,109,cs)
);
}
);
width = 577;
}
);
note = p;
unicode = 112;
},
{
glyphname = thorn;
kernRight = o;
lastChange = "2023-04-05 13:43:35 +0000";
layers = (
{
anchors = (
{
name = bottom;
pos = (133,-218);
},
{
name = top;
pos = (300,515);
}
);
hints = (
{
horizontal = 1;
origin = (0,17);
target = up;
type = BottomGhost;
},
{
horizontal = 1;
origin = (0,4);
target = (1,12);
type = Stem;
},
{
horizontal = 1;
origin = (0,10);
target = (1,6);
type = Stem;
},
{
horizontal = 1;
origin = (0,16);
target = down;
type = TopGhost;
},
{
origin = (0,17);
target = (0,0);
type = Stem;
},
{
origin = (1,9);
target = (0,7);
type = Stem;
}
);
layerId = "67A5D7A9-2C6D-4B81-A947-AF9C36497881";
name = Regular;
shapes = (
{
closed = 1;
nodes = (
(204,-218,l),
(204,-12,l),
(221,-13,o),
(237,-14,o),
(255,-14,cs),
(436,-14,o),
(538,89,o),
(538,278,cs),
(538,437,o),
(467,530,o),
(352,530,cs),
(288,530,o),
(237,501,o),
(203,448,c),
(201,448,l),
(201,730,l),
(65,730,l),
(65,-218,l)
);
},
{
closed = 1;
nodes = (
(249,109,o),
(227,112,o),
(204,118,c),
(204,301,l),
(236,369,o),
(278,407,o),
(320,407,cs),
(368,407,o),
(397,356,o),
(397,270,cs),
(397,165,o),
(353,109,o),
(269,109,cs)
);
}
);
width = 578;
}
);
metricRight = o;
unicode = 254;
},
{
glyphname = q;
kernLeft = g;
kernRight = q;
lastChange = "2023-04-05 13:17:26 +0000";
layers = (
{
anchors = (
{
name = bottom;
pos = (442,-218);
},
{
name = top;
pos = (293,515);
}
);
hints = (
{
horizontal = 1;
origin = (0,14);
target = up;
type = BottomGhost;
},
{
horizontal = 1;
origin = (0,10);
target = (1,12);
type = Stem;
},
{
horizontal = 1;
origin = (0,4);
target = (1,5);
type = Stem;
},
{
origin = (0,7);
target = (1,2);
type = Stem;
},
{
place = (373.5, 139);
place = (373.5, 139);
type = Stem;
}
);
layerId = "67A5D7A9-2C6D-4B81-A947-AF9C36497881";
name = Regular;
shapes = (
{
closed = 1;
nodes = (
(512,-218,l),
(512,506,l),
(443,521,o),
(375,529,o),
(324,529,cs),
(141,529,o),
(40,426,o),
(40,236,cs),
(40,78,o),
(110,-15,o),
(227,-15,cs),
(285,-15,o),
(336,8,o),
(373,51,c),
(373,-218,l)
);
},
{
closed = 1;
nodes = (
(211,108,o),
(181,159,o),
(181,246,cs),
(181,350,o),
(224,406,o),
(309,406,cs),
(329,406,o),
(351,403,o),
(373,397,c),
(373,196,l),
(344,141,o),
(306,108,o),
(264,108,cs)
);
}
);
width = 577;
}
);
note = q;
unicode = 113;
},
{
glyphname = r;
kernLeft = r;
kernRight = r;
lastChange = "2023-04-05 14:01:29 +0000";
layers = (
{
anchors = (
{
name = bottom;
pos = (136,0);
},
{
name = top;
pos = (200,515);
}
);
hints = (
{
horizontal = 1;
origin = (0,18);
target = up;
type = BottomGhost;
},
{
horizontal = 1;
origin = (0,11);
target = down;
type = TopGhost;
},
{
horizontal = 1;
origin = (0,17);
target = (0,4);
type = Stem;
},
{
horizontal = 1;
origin = (0,8);
target = up;
type = BottomGhost;
},
{
horizontal = 1;
origin = (0,17);
target = down;
type = TopGhost;
},
{
origin = (0,18);
target = (0,0);
type = Stem;
},
{
horizontal = 1;
origin = (0,7);
target = up;
type = BottomGhost;
}
);
layerId = "67A5D7A9-2C6D-4B81-A947-AF9C36497881";
name = Regular;
shapes = (
{
closed = 1;
nodes = (
(209,0,l),
(209,302,l),
(247,350,o),
(270,381,o),
(319,381,cs),
(333,381,o),
(346,378,o),
(361,374,c),
(376,526,l),
(367,529,o),
(357,530,o),
(346,530,cs),
(284,530,o),
(252,492,o),
(217,431,c),
(209,431,l),
(209,515,l),
(68,515,l),
(68,0,l)
);
}
);
width = 399;
}
);
note = r;
unicode = 114;
},
{
glyphname = s;
kernLeft = s;
kernRight = s;
lastChange = "2023-04-05 14:01:34 +0000";
layers = (
{
anchors = (
{
name = bottom;
pos = (233,0);
},
{
name = top;
pos = (233,515);
}
);
hints = (
{
horizontal = 1;
origin = (0,37);
target = (0,30);
type = Stem;
},
{
horizontal = 1;
origin = (0,18);
target = (0,11);
type = Stem;
},
{
origin = (0,34);
target = (0,8);
type = Stem;
},
{
origin = (0,27);
target = (0,2);
type = Stem;
},
{
horizontal = 1;
origin = (0,14);
target = up;
type = BottomGhost;
},
{
horizontal = 1;
origin = (0,33);
target = down;
type = TopGhost;
}
);
layerId = "67A5D7A9-2C6D-4B81-A947-AF9C36497881";
name = Regular;
shapes = (
{
closed = 1;
nodes = (
(336,-15,o),
(429,35,o),
(429,149,cs),
(429,256,o),
(347,287,o),
(289,310,cs),
(230,333,o),
(184,339,o),
(184,376,cs),
(184,405,o),
(214,419,o),
(256,419,cs),
(299,419,o),
(351,404,o),
(390,381,c),
(409,500,l),
(361,517,o),
(308,529,o),
(253,529,cs),
(132,529,o),
(42,471,o),
(42,364,cs),
(42,258,o),
(129,230,o),
(183,210,cs),
(254,183,o),
(287,176,o),
(287,144,cs),
(287,110,o),
(249,95,o),
(207,95,cs),
(159,95,o),
(100,114,o),
(55,142,c),
(42,22,l),
(84,-1,o),
(149,-15,o),
(214,-15,cs)
);
}
);
width = 469;
}
);
note = s;
unicode = 115;
},
{
glyphname = germandbls;
lastChange = "2023-04-05 14:01:39 +0000";
layers = (
{
anchors = (
{
name = bottom;
pos = (390,0);
},
{
name = top;
pos = (295,724);
}
);
hints = (
{
horizontal = 1;
origin = (0,39);
target = up;
type = BottomGhost;
},
{
horizontal = 1;
origin = (0,23);
target = (0,16);
type = Stem;
},
{
horizontal = 1;
origin = (0,4);
target = (0,35);
type = Stem;
},
{
origin = (0,39);
target = (0,0);
type = Stem;
},
{
origin = (0,7);
target = (0,32);
type = Stem;
},
{
origin = (0,10);
target = (0,29);
type = Stem;
},
{
origin = (0,13);
target = (0,26);
type = Stem;
},
{
horizontal = 1;
origin = (0,19);
target = down;
type = TopGhost;
}
);
layerId = "67A5D7A9-2C6D-4B81-A947-AF9C36497881";
name = Regular;
shapes = (
{
closed = 1;
nodes = (
(206,-218,l),
(206,522,ls),
(206,586,o),
(241,627,o),
(295,627,cs),
(337,627,o),
(358,602,o),
(358,570,cs),
(358,507,o),
(274,442,o),
(274,353,cs),
(274,237,o),
(413,217,o),
(413,147,cs),
(413,122,o),
(396,106,o),
(366,106,cs),
(348,106,o),
(326,112,o),
(305,123,c),
(256,14,l),
(300,-3,o),
(342,-13,o),
(381,-13,cs),
(484,-13,o),
(555,52,o),
(555,152,cs),
(555,302,o),
(393,338,o),
(393,385,cs),
(393,423,o),
(500,465,o),
(500,581,cs),
(500,685,o),
(413,746,o),
(299,746,cs),
(155,746,o),
(65,650,o),
(65,500,cs),
(65,-218,l)
);
}
);
width = 580;
}
);
unicode = 223;
},
{
glyphname = t;
kernLeft = t;
kernRight = t;
lastChange = "2023-04-05 14:01:42 +0000";
layers = (
{
anchors = (
{
name = bottom;
pos = (241,0);
},
{
name = center;
pos = (195,265);
},
{
name = top;
pos = (174,621);
},
{
name = topright;
pos = (334,846);
}
);
hints = (
{
horizontal = 1;
origin = (0,25);
target = up;
type = BottomGhost;
},
{
horizontal = 1;
origin = (0,19);
target = (0,20);
type = Stem;
},
{
horizontal = 1;
origin = (0,25);
target = (0,6);
type = Stem;
},
{
origin = (0,22);
target = (0,9);
type = Stem;
},
{
horizontal = 1;
origin = (0,3);
target = down;
type = TopGhost;
},
{
horizontal = 1;
origin = (0,14);
target = down;
type = TopGhost;
}
);
layerId = "67A5D7A9-2C6D-4B81-A947-AF9C36497881";
name = Regular;
shapes = (
{
closed = 1;
nodes = (
(297,-15,o),
(343,-5,o),
(386,15,c),
(355,121,l),
(333,113,o),
(310,108,o),
(291,108,cs),
(260,108,o),
(243,123,o),
(243,151,cs),
(243,394,l),
(373,394,l),
(373,515,l),
(243,515,l),
(243,643,l),
(196,639,o),
(150,633,o),
(103,625,c),
(103,515,l),
(23,515,l),
(23,394,l),
(103,394,l),
(103,125,ls),
(103,35,o),
(158,-15,o),
(254,-15,cs)
);
}
);
width = 421;
}
);
note = t;
unicode = 116;
},
{
glyphname = tcaron;
kernLeft = t;
kernRight = tcaron;
lastChange = "2023-04-05 13:25:32 +0000";
layers = (
{
background = {
shapes = (
{
closed = 1;
nodes = (
(297,-15,o),
(343,-5,o),
(386,15,c),
(355,121,l),
(333,113,o),
(310,108,o),
(291,108,cs),
(260,108,o),
(243,123,o),
(243,151,cs),
(243,394,l),
(373,394,l),
(373,515,l),
(243,515,l),
(243,643,l),
(196,639,o),
(150,633,o),
(103,625,c),
(103,515,l),
(23,515,l),
(23,394,l),
(103,394,l),
(103,125,ls),
(103,35,o),
(158,-15,o),
(254,-15,cs)
);
},
{
closed = 1;
nodes = (
(448,600,o),
(507,662,o),
(507,725,cs),
(507,775,o),
(473,807,o),
(434,807,cs),
(411,807,o),
(391,797,o),
(378,782,cs),
(366,767,o),
(360,747,o),
(362,725,c),
(400,677,l),
(391,653,o),
(374,624,o),
(354,600,c),
(380,565,l)
);
}
);
};
hints = (
{
horizontal = 1;
place = (-15, 21);
target = up;
type = BottomGhost;
},
{
horizontal = 1;
place = (515, 121);
place = (515, 121);
type = Stem;
},
{
horizontal = 1;
place = (-15, 123);
place = (-15, 123);
type = Stem;
},
{
place = (103, 140);
place = (103, 140);
type = Stem;
},
{
place = (362, 145);
place = (362, 145);
type = Stem;
},
{
horizontal = 1;
place = (643, -20);
target = down;
type = TopGhost;
},
{
horizontal = 1;
place = (565, 21);
target = up;
type = BottomGhost;
},
{
horizontal = 1;
place = (121, -20);
target = down;
type = TopGhost;
}
);
layerId = "67A5D7A9-2C6D-4B81-A947-AF9C36497881";
name = Regular;
shapes = (
{
ref = t;
},
{
pos = (304,116);
ref = caroncomb.alt;
}
);
width = 421;
}
);
unicode = 357;
},
{
glyphname = u;
kernLeft = u;
kernRight = u;
lastChange = "2023-04-05 14:01:49 +0000";
layers = (
{
anchors = (
{
name = bottom;
pos = (290,0);
},
{
name = ogonek;
pos = (483,0);
},
{
name = top;
pos = (300,515);
},
{
name = topright;
pos = (579,515);
}
);
hints = (
{
horizontal = 1;
origin = (0,19);
target = (0,10);
type = Stem;
},
{
horizontal = 1;
origin = (0,15);
target = down;
type = TopGhost;
},
{
horizontal = 1;
origin = (0,3);
target = up;
type = BottomGhost;
},
{
origin = (0,16);
target = (0,13);
type = Stem;
},
{
origin = (0,3);
target = (0,4);
type = Stem;
}
);
layerId = "67A5D7A9-2C6D-4B81-A947-AF9C36497881";
name = Regular;
shapes = (
{
closed = 1;
nodes = (
(312,-14,o),
(358,21,o),
(393,68,c),
(393,0,l),
(534,0,l),
(534,515,l),
(393,515,l),
(393,191,l),
(365,142,o),
(321,110,o),
(275,110,cs),
(230,110,o),
(201,141,o),
(201,196,cs),
(201,515,l),
(60,515,l),
(60,173,ls),
(60,58,o),
(126,-14,o),
(236,-14,cs)
);
}
);
width = 599;
}
);
note = u;
unicode = 117;
},
{
glyphname = uogonek;
kernLeft = u;
kernRight = u;
lastChange = "2023-04-05 13:05:38 +0000";
layers = (
{
hints = (
{
horizontal = 1;
origin = (0,40);
target = (0,6);
type = Stem;
},
{
horizontal = 1;
origin = (0,12);
target = up;
type = BottomGhost;
},
{
horizontal = 1;
origin = (0,23);
target = down;
type = TopGhost;
},
{
horizontal = 1;
origin = (0,27);
target = (0,18);
type = Stem;
},
{
origin = (0,24);
target = (0,21);
type = Stem;
},
{
origin = (0,37);
target = (0,9);
type = Stem;
},
{
origin = (0,15);
target = (0,12);
type = Stem;
}
);
layerId = "67A5D7A9-2C6D-4B81-A947-AF9C36497881";
name = Regular;
shapes = (
{
closed = 1;
nodes = (
(480,-220,o),
(512,-212,o),
(532,-197,c),
(537,-120,l),
(519,-131,o),
(498,-137,o),
(479,-137,cs),
(450,-137,o),
(425,-123,o),
(425,-93,cs),
(425,-52,o),
(471,-19,o),
(534,0,c),
(534,515,l),
(393,515,l),
(393,191,l),
(365,142,o),
(321,110,o),
(275,110,cs),
(230,110,o),
(201,141,o),
(201,196,cs),
(201,515,l),
(60,515,l),
(60,173,ls),
(60,58,o),
(126,-14,o),
(236,-14,cs),
(314,-14,o),
(360,22,o),
(395,71,c),
(395,54,ls),
(395,30,o),
(395,6,o),
(394,-17,c),
(359,-40,o),
(334,-76,o),
(334,-122,cs),
(334,-181,o),
(376,-220,o),
(448,-220,cs)
);
}
);
width = 599;
}
);
unicode = 371;
},
{
glyphname = v;
kernLeft = v;
kernRight = v;
lastChange = "2023-04-05 14:01:56 +0000";
layers = (
{
anchors = (
{
name = bottom;
pos = (274,0);
},
{
name = top;
pos = (274,515);
}
);
hints = (
{
horizontal = 1;
origin = (0,6);
target = up;
type = BottomGhost;
},
{
horizontal = 1;
origin = (0,4);
target = down;
type = TopGhost;
},
{
horizontal = 1;
origin = (0,2);
target = up;
type = BottomGhost;
},
{
horizontal = 1;
origin = (0,0);
target = (0,3);
type = Stem;
}
);
layerId = "67A5D7A9-2C6D-4B81-A947-AF9C36497881";
name = Regular;
shapes = (
{
closed = 1;
nodes = (
(352,0,l),
(533,515,l),
(382,515,l),
(273,156,l),
(159,527,l),
(5,513,l),
(187,0,l)
);
}
);
width = 547;
}
);
note = v;
unicode = 118;
},
{
glyphname = w;
kernLeft = v;
kernRight = v;
lastChange = "2023-04-05 13:05:38 +0000";
layers = (
{
anchors = (
{
name = bottom;
pos = (425,0);
},
{
name = top;
pos = (425,515);
}
);
hints = (
{
horizontal = 1;
origin = (0,12);
target = up;
type = BottomGhost;
},
{
horizontal = 1;
origin = (0,7);
target = down;
type = TopGhost;
},
{
horizontal = 1;
origin = (0,11);
target = down;
type = TopGhost;
},
{
horizontal = 1;
origin = (0,3);
target = (0,6);
type = Stem;
},
{
horizontal = 1;
origin = (0,7);
target = (0,1);
type = Stem;
}
);
layerId = "67A5D7A9-2C6D-4B81-A947-AF9C36497881";
name = Regular;
shapes = (
{
closed = 1;
nodes = (
(308,0,l),
(419,374,l),
(525,0,l),
(679,0,l),
(836,515,l),
(702,515,l),
(608,164,l),
(501,525,l),
(342,512,l),
(243,174,l),
(151,515,l),
(7,515,l),
(157,0,l)
);
}
);
width = 850;
}
);
note = w;
unicode = 119;
},
{
glyphname = x;
kernLeft = x;
kernRight = x;
lastChange = "2023-04-05 14:02:01 +0000";
layers = (
{
anchors = (
{
name = bottom;
pos = (273,0);
},
{
name = top;
pos = (273,515);
}
);
hints = (
{
horizontal = 1;
origin = (0,11);
target = up;
type = BottomGhost;
},
{
horizontal = 1;
origin = (0,5);
target = down;
type = TopGhost;
},
{
horizontal = 1;
origin = (0,8);
target = down;
type = TopGhost;
},
{
horizontal = 1;
origin = (0,6);
target = down;
type = TopGhost;
}
);
layerId = "67A5D7A9-2C6D-4B81-A947-AF9C36497881";
name = Regular;
shapes = (
{
closed = 1;
nodes = (
(538,0,l),
(353,273,l),
(523,515,l),
(369,515,l),
(279,377,l),
(182,523,l),
(26,515,l),
(198,266,l),
(8,0,l),
(168,0,l),
(271,158,l),
(382,-8,l)
);
}
);
width = 545;
}
);
note = x;
unicode = 120;
},
{
glyphname = y;
kernLeft = v;
kernRight = v;
lastChange = "2023-04-05 13:05:38 +0000";
layers = (
{
anchors = (
{
name = bottom;
pos = (244,-218);
},
{
name = top;
pos = (271,515);
}
);
hints = (
{
horizontal = 1;
origin = (0,20);
target = (0,13);
type = Stem;
},
{
horizontal = 1;
origin = (0,6);
target = up;
type = BottomGhost;
},
{
horizontal = 1;
origin = (0,8);
target = down;
type = TopGhost;
},
{
horizontal = 1;
origin = (0,20);
target = up;
type = BottomGhost;
},
{
horizontal = 1;
origin = (0,10);
target = (0,7);
type = Stem;
}
);
layerId = "67A5D7A9-2C6D-4B81-A947-AF9C36497881";
name = Regular;
shapes = (
{
closed = 1;
nodes = (
(206,-224,o),
(248,-189,o),
(284,-125,cs),
(341,-23,o),
(454,291,o),
(528,515,c),
(389,515,l),
(275,156,l),
(152,525,l),
(6,513,l),
(207,-15,l),
(186,-74,o),
(171,-105,o),
(127,-105,cs),
(108,-105,o),
(89,-99,o),
(63,-86,c),
(42,-202,l),
(74,-216,o),
(105,-224,o),
(138,-224,cs)
);
}
);
width = 542;
}
);
note = y;
unicode = 121;
},
{
glyphname = z;
kernLeft = z;
kernRight = z;
lastChange = "2023-04-05 14:02:07 +0000";
layers = (
{
anchors = (
{
name = bottom;
pos = (252,0);
},
{
name = top;
pos = (252,515);
}
);
hints = (
{
horizontal = 1;
origin = (0,9);
target = (0,2);
type = Stem;
},
{
horizontal = 1;
origin = (0,5);
target = (0,6);
type = Stem;
},
{
origin = (0,9);
target = (0,0);
type = Stem;
},
{
horizontal = 1;
origin = (0,4);
target = (0,3);
type = Stem;
},
{
horizontal = 1;
origin = (0,9);
target = (0,8);
type = Stem;
}
);
layerId = "67A5D7A9-2C6D-4B81-A947-AF9C36497881";
name = Regular;
shapes = (
{
closed = 1;
nodes = (
(457,1,l),
(457,121,l),
(211,121,l),
(457,423,l),
(457,515,l),
(55,515,l),
(55,394,l),
(285,394,l),
(38,93,l),
(38,1,l)
);
}
);
width = 503;
}
);
note = z;
unicode = 122;
},
{
glyphname = fi;
kernLeft = f;
kernRight = i;
lastChange = "2023-04-05 14:32:55 +0000";
layers = (
{
anchors = (
{
name = caret_1;
pos = (421.5,0);
},
{
name = top;
pos = (245,730);
}
);
hints = (
{
horizontal = 1;
origin = (0,33);
target = (0,32);
type = Stem;
},
{
horizontal = 1;
origin = (0,28);
target = (0,29);
type = Stem;
},
{
horizontal = 1;
origin = (1,2);
target = (1,3);
type = Stem;
},
{
horizontal = 1;
origin = (0,23);
target = (0,16);
type = Stem;
},
{
origin = (0,31);
target = (0,2);
type = Stem;
},
{
origin = (0,5);
target = (0,10);
type = Stem;
},
{
origin = (1,3);
target = (1,0);
type = Stem;
}
);
layerId = "67A5D7A9-2C6D-4B81-A947-AF9C36497881";
name = Regular;
shapes = (
{
closed = 1;
nodes = (
(398,0,l),
(398,121,l),
(278,121,l),
(278,394,l),
(588,394,l),
(588,121,l),
(492,121,l),
(492,0,l),
(815,0,l),
(815,121,l),
(729,121,l),
(729,515,l),
(278,515,l),
(278,571,ls),
(278,604,o),
(296,622,o),
(327,622,cs),
(345,622,o),
(366,616,o),
(388,605,c),
(437,716,l),
(393,734,o),
(350,744,o),
(313,744,cs),
(207,744,o),
(137,678,o),
(137,578,cs),
(137,515,l),
(46,515,l),
(46,394,l),
(137,394,l),
(137,121,l),
(46,121,l),
(46,0,l)
);
},
{
closed = 1;
nodes = (
(731,600,l),
(731,730,l),
(570,730,l),
(570,600,l)
);
}
);
width = 843;
}
);
metricLeft = f;
metricRight = i;
unicode = 64257;
},
{
glyphname = fl;
kernLeft = f;
kernRight = l;
lastChange = "2023-04-05 14:32:58 +0000";
layers = (
{
anchors = (
{
name = caret_1;
pos = (609,0);
},
{
name = top;
pos = (245,730);
}
);
hints = (
{
horizontal = 1;
origin = (0,33);
target = (0,32);
type = Stem;
},
{
horizontal = 1;
origin = (0,28);
target = (0,29);
type = Stem;
},
{
horizontal = 1;
origin = (0,4);
target = (0,5);
type = Stem;
},
{
horizontal = 1;
origin = (0,23);
target = (0,16);
type = Stem;
},
{
origin = (0,31);
target = (0,8);
type = Stem;
},
{
origin = (0,7);
target = (0,2);
type = Stem;
}
);
layerId = "67A5D7A9-2C6D-4B81-A947-AF9C36497881";
name = Regular;
shapes = (
{
closed = 1;
nodes = (
(809,0,l),
(809,121,l),
(718,121,l),
(718,730,l),
(491,730,l),
(491,610,l),
(577,610,l),
(577,121,l),
(278,121,l),
(278,394,l),
(398,394,l),
(398,515,l),
(278,515,l),
(278,571,ls),
(278,604,o),
(296,622,o),
(327,622,cs),
(345,622,o),
(366,616,o),
(388,605,c),
(437,716,l),
(393,734,o),
(350,744,o),
(313,744,cs),
(207,744,o),
(137,678,o),
(137,578,cs),
(137,515,l),
(46,515,l),
(46,394,l),
(137,394,l),
(137,121,l),
(46,121,l),
(46,0,l)
);
}
);
width = 837;
}
);
metricLeft = f;
metricRight = l;
unicode = 64258;
},
{
glyphname = ordfeminine;
lastChange = "2023-04-05 13:05:38 +0000";
layers = (
{
hints = (
{
horizontal = 1;
origin = (1,3);
target = (1,2);
type = Stem;
},
{
horizontal = 1;
origin = (0,15);
target = (2,12);
type = Stem;
},
{
horizontal = 1;
origin = (2,5);
target = (0,9);
type = Stem;
},
{
origin = (0,12);
target = (2,2);
type = Stem;
},
{
origin = (2,9);
target = (0,5);
type = Stem;
}
);
layerId = "67A5D7A9-2C6D-4B81-A947-AF9C36497881";
name = Regular;
shapes = (
{
closed = 1;
nodes = (
(213,381,o),
(246,397,o),
(266,425,c),
(268,425,l),
(266,390,l),
(347,390,l),
(347,694,l),
(304,703,o),
(268,708,o),
(236,708,cs),
(130,708,o),
(72,645,o),
(72,532,cs),
(72,438,o),
(112,381,o),
(179,381,cs)
);
},
{
closed = 1;
nodes = (
(386,272,l),
(386,321,l),
(65,321,l),
(65,272,l)
);
},
{
closed = 1;
nodes = (
(171,455,o),
(154,486,o),
(154,538,cs),
(154,600,o),
(179,634,o),
(227,634,cs),
(237,634,o),
(252,632,o),
(265,629,c),
(265,510,l),
(247,474,o),
(224,455,o),
(201,455,cs)
);
}
);
width = 451;
}
);
unicode = 170;
},
{
glyphname = ordmasculine;
lastChange = "2023-04-05 13:05:38 +0000";
layers = (
{
hints = (
{
horizontal = 1;
origin = (1,3);
target = (1,2);
type = Stem;
},
{
horizontal = 1;
origin = (0,11);
target = (2,11);
type = Stem;
},
{
horizontal = 1;
origin = (2,5);
target = (0,5);
type = Stem;
},
{
origin = (0,8);
target = (2,2);
type = Stem;
},
{
origin = (2,8);
target = (0,2);
type = Stem;
}
);
layerId = "67A5D7A9-2C6D-4B81-A947-AF9C36497881";
name = Regular;
shapes = (
{
closed = 1;
nodes = (
(318,381,o),
(381,448,o),
(381,546,cs),
(381,644,o),
(318,708,o),
(224,708,cs),
(130,708,o),
(67,642,o),
(67,545,cs),
(67,446,o),
(130,381,o),
(225,381,cs)
);
},
{
closed = 1;
nodes = (
(386,272,l),
(386,321,l),
(65,321,l),
(65,272,l)
);
},
{
closed = 1;
nodes = (
(181,454,o),
(152,490,o),
(152,545,cs),
(152,599,o),
(181,635,o),
(224,635,cs),
(267,635,o),
(296,599,o),
(296,545,cs),
(296,490,o),
(267,454,o),
(224,454,cs)
);
}
);
width = 451;
}
);
unicode = 186;
},
{
glyphname = pi;
lastChange = "2023-04-05 13:05:38 +0000";
layers = (
{
hints = (
{
horizontal = 1;
origin = (0,29);
target = up;
type = BottomGhost;
},
{
horizontal = 1;
origin = (0,17);
target = (0,16);
type = Stem;
},
{
horizontal = 1;
origin = (0,29);
target = (0,6);
type = Stem;
},
{
horizontal = 1;
origin = (0,19);
target = up;
type = BottomGhost;
},
{
origin = (0,26);
target = (0,9);
type = Stem;
},
{
horizontal = 1;
origin = (0,3);
target = down;
type = TopGhost;
}
);
layerId = "67A5D7A9-2C6D-4B81-A947-AF9C36497881";
name = Regular;
shapes = (
{
closed = 1;
nodes = (
(673,-15,o),
(720,-5,o),
(767,15,c),
(752,121,l),
(729,113,o),
(705,108,o),
(687,108,cs),
(659,108,o),
(644,120,o),
(644,141,cs),
(644,156,o),
(652,207,o),
(657,240,cs),
(681,414,l),
(789,414,l),
(806,536,l),
(125,536,l),
(108,414,l),
(203,414,l),
(147,0,l),
(291,0,l),
(347,414,l),
(537,414,l),
(521,296,ls),
(505,178,o),
(496,128,o),
(496,99,cs),
(496,28,o),
(542,-15,o),
(630,-15,cs)
);
}
);
width = 871;
}
);
unicode = 960;
},
{
glyphname = "alef-hb";
kernLeft = "alef-hb";
kernRight = "alef-hb";
lastChange = "2023-04-05 13:05:38 +0000";
layers = (
{
anchors = (
{
name = bottom;
pos = (289,0);
},
{
name = bottomleft;
pos = (20,0);
},
{
name = center;
pos = (314,470);
},
{
name = top;
pos = (292,515);
},
{
name = topleft;
pos = (30,515);
}
);
hints = (
{
horizontal = 1;
origin = (0,38);
target = up;
type = BottomGhost;
},
{
horizontal = 1;
origin = (0,34);
target = up;
type = BottomGhost;
},
{
origin = (0,34);
target = (0,38);
type = Stem;
},
{
horizontal = 1;
origin = (0,45);
target = up;
type = BottomGhost;
},
{
horizontal = 1;
origin = (0,22);
target = down;
type = TopGhost;
},
{
origin = (0,13);
target = (0,6);
type = Stem;
},
{
horizontal = 1;
origin = (0,44);
target = (0,19);
type = Stem;
}
);
layerId = "67A5D7A9-2C6D-4B81-A947-AF9C36497881";
name = Regular;
shapes = (
{
closed = 1;
nodes = (
(455,-4,o),
(497,16,o),
(543,40,c),
(408,253,l),
(486,282,o),
(526,328,o),
(533,420,cs),
(542,540,l),
(522,540,o),
(510,541,o),
(485,541,cs),
(460,541,o),
(427,540,o),
(397,538,c),
(394,495,o),
(389,425,o),
(384,394,cs),
(378,355,o),
(362,339,o),
(319,329,c),
(264,405,o),
(216,483,o),
(171,558,c),
(126,537,o),
(84,515,o),
(44,490,c),
(76,432,o),
(113,375,o),
(154,318,c),
(86,281,o),
(60,224,o),
(53,142,cs),
(51,116,o),
(48,61,o),
(47,-5,c),
(82,-5,ls),
(118,-5,o),
(153,-4,o),
(188,-2,c),
(191,59,o),
(194,127,o),
(197,155,cs),
(202,204,o),
(217,228,o),
(250,246,c),
(414,-19,l)
);
}
);
width = 583;
}
);
note = alef;
unicode = 1488;
},
{
glyphname = "bet-hb";
kernLeft = "bet-hb";
kernRight = "bet-hb";
lastChange = "2023-04-05 13:05:38 +0000";
layers = (
{
anchors = (
{
name = bottom;
pos = (257,0);
},
{
name = bottomleft;
pos = (20,0);
},
{
name = center;
pos = (170,268);
},
{
name = top;
pos = (268,515);
},
{
name = topleft;
pos = (20,515);
}
);
hints = (
{
horizontal = 1;
origin = (0,15);
target = (0,14);
type = Stem;
},
{
horizontal = 1;
origin = (0,8);
target = (0,7);
type = Stem;
},
{
origin = (0,13);
target = (0,2);
type = Stem;
}
);
layerId = "67A5D7A9-2C6D-4B81-A947-AF9C36497881";
name = Regular;
shapes = (
{
closed = 1;
nodes = (
(507,0,l),
(521,125,l),
(441,125,l),
(441,366,ls),
(441,473,o),
(379,536,o),
(273,536,cs),
(57,536,l),
(57,411,l),
(246,411,ls),
(282,411,o),
(304,387,o),
(304,349,cs),
(304,125,l),
(33,125,l),
(33,0,l)
);
}
);
width = 536;
}
);
note = bet;
unicode = 1489;
},
{
glyphname = "gimel-hb";
kernLeft = "gimel-hb";
kernRight = "gimel-hb";
lastChange = "2023-04-05 13:05:38 +0000";
layers = (
{
anchors = (
{
name = bottom;
pos = (187,0);
},
{
name = bottomleft;
pos = (20,0);
},
{
name = center;
pos = (108,279);
},
{
name = top;
pos = (204,515);
},
{
name = topleft;
pos = (30,515);
}
);
hints = (
{
horizontal = 1;
origin = (0,10);
target = (0,9);
type = Stem;
},
{
origin = (0,18);
target = (0,7);
type = Stem;
},
{
horizontal = 1;
origin = (0,18);
target = up;
type = BottomGhost;
},
{
horizontal = 1;
origin = (0,3);
target = down;
type = TopGhost;
}
);
layerId = "67A5D7A9-2C6D-4B81-A947-AF9C36497881";
name = Regular;
shapes = (
{
closed = 1;
nodes = (
(32,-21,l),
(100,9,o),
(169,41,o),
(237,79,c),
(248,-16,l),
(285,-8,o),
(327,5,o),
(368,22,c),
(315,536,l),
(72,536,l),
(72,411,l),
(195,411,l),
(217,201,l),
(154,166,o),
(90,137,o),
(27,111,c),
(24,68,o),
(22,24,o),
(21,-21,c)
);
}
);
width = 407;
}
);
note = gimel;
unicode = 1490;
},
{
glyphname = "dalet-hb";
kernLeft = "dalet-hb";
kernRight = "dalet-hb";
lastChange = "2023-04-05 13:05:38 +0000";
layers = (
{
anchors = (
{
name = bottom;
pos = (331,0);
},
{
name = bottomleft;
pos = (20,0);
},
{
name = center;
pos = (143,258);
},
{
name = top;
pos = (263,515);
},
{
name = topleft;
pos = (-20,515);
}
);
hints = (
{
horizontal = 1;
origin = (0,7);
target = up;
type = BottomGhost;
},
{
horizontal = 1;
origin = (0,5);
target = (0,4);
type = Stem;
},
{
origin = (0,7);
target = (0,0);
type = Stem;
}
);
layerId = "67A5D7A9-2C6D-4B81-A947-AF9C36497881";
name = Regular;
shapes = (
{
closed = 1;
nodes = (
(399,4,l),
(399,411,l),
(482,411,l),
(496,536,l),
(20,536,l),
(20,411,l),
(262,411,l),
(262,-5,l)
);
}
);
width = 526;
}
);
note = dalet;
unicode = 1491;
},
{
glyphname = "he-hb";
kernLeft = "he-hb";
kernRight = "he-hb";
lastChange = "2023-04-05 13:05:38 +0000";
layers = (
{
anchors = (
{
name = bottom;
pos = (293,0);
},
{
name = bottomleft;
pos = (20,0);
},
{
name = center;
pos = (293,308);
},
{
name = top;
pos = (293,515);
},
{
name = topleft;
pos = (20,515);
}
);
hints = (
{
horizontal = 1;
origin = (1,5);
target = up;
type = BottomGhost;
},
{
horizontal = 1;
origin = (0,6);
target = (0,5);
type = Stem;
},
{
origin = (1,5);
target = (1,0);
type = Stem;
},
{
origin = (0,11);
target = (0,0);
type = Stem;
},
{
horizontal = 1;
origin = (1,1);
target = down;
type = TopGhost;
}
);
layerId = "67A5D7A9-2C6D-4B81-A947-AF9C36497881";
name = Regular;
shapes = (
{
closed = 1;
nodes = (
(528,4,l),
(528,366,ls),
(528,473,o),
(466,536,o),
(360,536,cs),
(58,536,l),
(58,411,l),
(333,411,ls),
(369,411,o),
(391,387,o),
(391,349,cs),
(391,-5,l)
);
},
{
closed = 1;
nodes = (
(202,4,l),
(202,278,l),
(156,277,o),
(109,273,o),
(63,269,c),
(63,-5,l)
);
}
);
width = 586;
}
);
note = he;
unicode = 1492;
},
{
glyphname = "vav-hb";
kernLeft = "vav-hb";
kernRight = "vav-hb";
lastChange = "2023-04-05 13:05:38 +0000";
layers = (
{
anchors = (
{
name = bottom;
pos = (196,0);
},
{
name = bottomleft;
pos = (20,0);
},
{
name = center;
pos = (33,258);
},
{
name = top;
pos = (157,515);
},
{
name = topleft;
pos = (155,515);
}
);
hints = (
{
horizontal = 1;
origin = (0,5);
target = up;
type = BottomGhost;
},
{
horizontal = 1;
origin = (0,3);
target = (0,2);
type = Stem;
},
{
origin = (0,5);
target = (0,0);
type = Stem;
}
);
layerId = "67A5D7A9-2C6D-4B81-A947-AF9C36497881";
name = Regular;
shapes = (
{
closed = 1;
nodes = (
(265,4,l),
(265,536,l),
(30,536,l),
(30,411,l),
(128,411,l),
(128,-5,l)
);
}
);
width = 333;
}
);
note = vav;
unicode = 1493;
},
{
glyphname = "zayin-hb";
kernLeft = "zayin-hb";
kernRight = "zayin-hb";
lastChange = "2023-04-05 13:05:38 +0000";
layers = (
{
anchors = (
{
name = bottom;
pos = (193,0);
},
{
name = bottomleft;
pos = (20,0);
},
{
name = center;
pos = (34,258);
},
{
name = top;
pos = (200,515);
},
{
name = topleft;
pos = (10,515);
}
);
hints = (
{
horizontal = 1;
origin = (0,16);
target = up;
type = BottomGhost;
},
{
horizontal = 1;
origin = (0,15);
target = (0,11);
type = Stem;
},
{
origin = (0,16);
target = (0,0);
type = Stem;
},
{
horizontal = 1;
origin = (0,5);
target = down;
type = TopGhost;
}
);
layerId = "67A5D7A9-2C6D-4B81-A947-AF9C36497881";
name = Regular;
shapes = (
{
closed = 1;
nodes = (
(262,0,l),
(262,403,l),
(297,407,o),
(336,414,o),
(368,424,c),
(351,546,l),
(298,533,o),
(245,526,o),
(193,526,cs),
(141,526,o),
(88,533,o),
(35,546,c),
(18,424,l),
(51,414,o),
(89,407,o),
(125,403,c),
(125,0,l)
);
}
);
width = 400;
}
);
note = zayin;
unicode = 1494;
},
{
glyphname = "het-hb";
kernLeft = "het-hb";
kernRight = "het-hb";
lastChange = "2023-04-05 13:05:38 +0000";
layers = (
{
anchors = (
{
name = bottom;
pos = (305,0);
},
{
name = bottomleft;
pos = (25,0);
},
{
name = center;
pos = (305,258);
},
{
name = top;
pos = (305,515);
},
{
name = topleft;
pos = (25,515);
}
);
hints = (
{
horizontal = 1;
origin = (0,13);
target = up;
type = BottomGhost;
},
{
horizontal = 1;
origin = (0,1);
target = (0,12);
type = Stem;
},
{
origin = (0,13);
target = (0,0);
type = Stem;
},
{
origin = (0,6);
target = (0,7);
type = Stem;
}
);
layerId = "67A5D7A9-2C6D-4B81-A947-AF9C36497881";
name = Regular;
shapes = (
{
closed = 1;
nodes = (
(207,4,l),
(207,411,l),
(350,411,ls),
(387,411,o),
(410,387,o),
(410,347,cs),
(410,-5,l),
(547,4,l),
(547,366,ls),
(547,473,o),
(485,536,o),
(379,536,cs),
(70,536,l),
(70,-5,l)
);
}
);
width = 605;
}
);
note = het;
unicode = 1495;
},
{
glyphname = "tet-hb";
kernLeft = "tet-hb";
kernRight = "tet-hb";
lastChange = "2023-04-05 13:05:38 +0000";
layers = (
{
anchors = (
{
name = bottom;
pos = (270,0);
},
{
name = bottomleft;
pos = (20,0);
},
{
name = center;
pos = (299,288);
},
{
name = top;
pos = (296,515);
},
{
name = topleft;
pos = (30,515);
}
);
hints = (
{
horizontal = 1;
origin = (0,28);
target = (0,21);
type = Stem;
},
{
horizontal = 1;
origin = (0,23);
target = down;
type = TopGhost;
},
{
horizontal = 1;
origin = (0,15);
target = (0,8);
type = Stem;
},
{
place = (60, 143);
place = (60, 143);
type = Stem;
},
{
origin = (0,18);
target = (0,5);
type = Stem;
},
{
horizontal = 1;
origin = (0,12);
target = up;
type = BottomGhost;
}
);
layerId = "67A5D7A9-2C6D-4B81-A947-AF9C36497881";
name = Regular;
shapes = (
{
closed = 1;
nodes = (
(239,-6,o),
(318,11,o),
(375,40,cs),
(483,95,o),
(553,217,o),
(553,348,cs),
(553,473,o),
(488,547,o),
(381,547,cs),
(335,547,o),
(288,533,o),
(255,513,c),
(287,406,l),
(310,414,o),
(328,419,o),
(347,419,cs),
(390,419,o),
(418,395,o),
(418,329,cs),
(418,208,o),
(334,126,o),
(215,126,c),
(191,537,l),
(60,528,l),
(60,467,l),
(85,-4,l),
(105,-5,o),
(126,-6,o),
(148,-6,cs)
);
}
);
width = 591;
}
);
note = tet;
unicode = 1496;
},
{
glyphname = "yod-hb";
kernLeft = "yod-hb";
kernRight = "yod-hb";
lastChange = "2023-04-05 13:05:38 +0000";
layers = (
{
anchors = (
{
name = bottom;
pos = (193,0);
},
{
name = bottomleft;
pos = (20,0);
},
{
name = center;
pos = (33,301);
},
{
name = top;
pos = (163,515);
},
{
name = topleft;
pos = (-10,515);
}
);
hints = (
{
horizontal = 1;
origin = (0,3);
target = (0,2);
type = Stem;
},
{
origin = (0,5);
target = (0,0);
type = Stem;
}
);
layerId = "67A5D7A9-2C6D-4B81-A947-AF9C36497881";
name = Regular;
shapes = (
{
closed = 1;
nodes = (
(266,201,l),
(266,536,l),
(24,536,l),
(24,411,l),
(127,411,l),
(127,192,l)
);
}
);
width = 326;
}
);
note = yod;
unicode = 1497;
},
{
glyphname = "finalkaf-hb";
kernLeft = "finalkaf-hb";
kernRight = "finalkaf-hb";
lastChange = "2023-04-05 13:05:38 +0000";
layers = (
{
anchors = (
{
name = bottom;
pos = (86,384);
},
{
name = bottomleft;
pos = (20,0);
},
{
name = center;
pos = (139,258);
},
{
name = top;
pos = (235,515);
},
{
name = topleft;
pos = (20,515);
}
);
hints = (
{
horizontal = 1;
origin = (0,6);
target = (0,5);
type = Stem;
},
{
origin = (0,11);
target = (0,0);
type = Stem;
},
{
horizontal = 1;
origin = (0,11);
target = up;
type = BottomGhost;
}
);
layerId = "67A5D7A9-2C6D-4B81-A947-AF9C36497881";
name = Regular;
shapes = (
{
closed = 1;
nodes = (
(412,-120,l),
(412,366,ls),
(412,473,o),
(350,536,o),
(244,536,cs),
(26,536,l),
(26,411,l),
(215,411,ls),
(252,411,o),
(275,387,o),
(275,347,cs),
(275,-129,l)
);
}
);
width = 470;
}
);
note = finalkaf;
unicode = 1498;
},
{
glyphname = "kaf-hb";
kernLeft = "kaf-hb";
kernRight = "kaf-hb";
lastChange = "2023-04-05 13:05:38 +0000";
layers = (
{
anchors = (
{
name = bottom;
pos = (230,0);
},
{
name = bottomleft;
pos = (20,0);
},
{
name = center;
pos = (162,268);
},
{
name = top;
pos = (252,515);
},
{
name = topleft;
pos = (20,515);
}
);
hints = (
{
horizontal = 1;
origin = (0,17);
target = (0,16);
type = Stem;
},
{
horizontal = 1;
origin = (0,8);
target = (0,7);
type = Stem;
},
{
origin = (0,12);
target = (0,3);
type = Stem;
}
);
layerId = "67A5D7A9-2C6D-4B81-A947-AF9C36497881";
name = Regular;
shapes = (
{
closed = 1;
nodes = (
(162,0,ls),
(372,0,o),
(462,85,o),
(462,284,cs),
(462,456,o),
(386,536,o),
(222,536,cs),
(57,536,l),
(57,411,l),
(219,411,ls),
(290,411,o),
(324,368,o),
(324,279,cs),
(324,171,o),
(282,125,o),
(182,125,cs),
(46,125,l),
(37,0,l)
);
}
);
width = 504;
}
);
note = kaf;
unicode = 1499;
},
{
glyphname = "lamed-hb";
kernLeft = "lamed-hb";
kernRight = "lamed-hb";
lastChange = "2023-04-05 13:05:38 +0000";
layers = (
{
anchors = (
{
name = bottom;
pos = (166,0);
},
{
name = bottomleft;
pos = (20,0);
},
{
name = center;
pos = (162,310);
},
{
name = top;
pos = (237,515);
},
{
name = topleft;
pos = (-70,515);
}
);
hints = (
{
horizontal = 1;
origin = (0,7);
target = (0,4);
type = Stem;
},
{
horizontal = 1;
origin = (0,6);
target = down;
type = TopGhost;
},
{
origin = (0,7);
target = (0,4);
type = Stem;
},
{
origin = (0,9);
target = (0,2);
type = Stem;
},
{
horizontal = 1;
origin = (0,15);
target = up;
type = BottomGhost;
}
);
layerId = "67A5D7A9-2C6D-4B81-A947-AF9C36497881";
name = Regular;
shapes = (
{
closed = 1;
nodes = (
(325,123,o),
(423,197,o),
(423,362,cs),
(423,536,l),
(168,536,l),
(168,676,l),
(31,676,l),
(31,411,l),
(286,411,l),
(286,342,ls),
(286,259,o),
(217,216,o),
(77,82,c),
(100,45,o),
(125,7,o),
(154,-30,c)
);
}
);
width = 473;
}
);
note = lamed;
unicode = 1500;
},
{
glyphname = "finalmem-hb";
kernLeft = "finalmem-hb";
kernRight = "finalmem-hb";
lastChange = "2023-04-05 13:05:38 +0000";
layers = (
{
hints = (
{
horizontal = 1;
origin = (0,6);
target = (1,6);
type = Stem;
},
{
horizontal = 1;
origin = (1,0);
target = (0,5);
type = Stem;
},
{
origin = (0,6);
target = (1,6);
type = Stem;
},
{
origin = (1,5);
target = (0,0);
type = Stem;
}
);
layerId = "67A5D7A9-2C6D-4B81-A947-AF9C36497881";
name = Regular;
shapes = (
{
closed = 1;
nodes = (
(551,0,l),
(551,366,ls),
(551,473,o),
(489,536,o),
(383,536,cs),
(65,536,l),
(65,0,l)
);
},
{
closed = 1;
nodes = (
(202,411,l),
(354,411,ls),
(391,411,o),
(414,387,o),
(414,347,cs),
(414,125,l),
(202,125,l)
);
}
);
width = 609;
}
);
note = finalmem;
unicode = 1501;
},
{
glyphname = "mem-hb";
kernLeft = "mem-hb";
kernRight = "mem-hb";
lastChange = "2023-04-05 13:05:38 +0000";
layers = (
{
anchors = (
{
name = bottom;
pos = (309,0);
},
{
name = bottomleft;
pos = (20,0);
},
{
name = center;
pos = (345,268);
},
{
name = top;
pos = (317,515);
},
{
name = topleft;
pos = (10,515);
}
);
hints = (
{
horizontal = 1;
origin = (0,18);
target = up;
type = BottomGhost;
},
{
horizontal = 1;
origin = (0,1);
target = (0,14);
type = Stem;
},
{
horizontal = 1;
origin = (0,8);
target = (0,7);
type = Stem;
},
{
origin = (0,6);
target = (0,9);
type = Stem;
},
{
horizontal = 1;
origin = (0,15);
target = down;
type = TopGhost;
}
);
layerId = "67A5D7A9-2C6D-4B81-A947-AF9C36497881";
name = Regular;
shapes = (
{
closed = 1;
nodes = (
(194,-3,l),
(281,413,l),
(353,413,ls),
(406,413,o),
(438,380,o),
(438,326,cs),
(438,125,l),
(303,125,l),
(303,0,l),
(575,0,l),
(575,338,ls),
(575,463,o),
(501,536,o),
(375,536,cs),
(148,536,l),
(68,551,l),
(42,431,l),
(141,410,l),
(51,-3,l)
);
}
);
width = 633;
}
);
note = mem;
unicode = 1502;
},
{
glyphname = "finalnun-hb";
lastChange = "2023-04-05 13:05:38 +0000";
layers = (
{
hints = (
{
horizontal = 1;
origin = (0,3);
target = (0,2);
type = Stem;
},
{
origin = (0,5);
target = (0,0);
type = Stem;
}
);
layerId = "67A5D7A9-2C6D-4B81-A947-AF9C36497881";
name = Regular;
shapes = (
{
closed = 1;
nodes = (
(266,-120,l),
(266,536,l),
(24,536,l),
(24,411,l),
(130,411,l),
(130,-129,l)
);
}
);
width = 330;
}
);
note = finalnun;
unicode = 1503;
},
{
glyphname = "nun-hb";
kernLeft = "nun-hb";
kernRight = "nun-hb";
lastChange = "2023-04-05 13:05:38 +0000";
layers = (
{
anchors = (
{
name = bottom;
pos = (171,0);
},
{
name = bottomleft;
pos = (20,0);
},
{
name = center;
pos = (85,268);
},
{
name = top;
pos = (195,515);
},
{
name = topleft;
pos = (20,515);
}
);
hints = (
{
horizontal = 1;
origin = (0,7);
target = (0,6);
type = Stem;
},
{
horizontal = 1;
origin = (0,3);
target = (0,2);
type = Stem;
},
{
origin = (0,5);
target = (0,0);
type = Stem;
}
);
layerId = "67A5D7A9-2C6D-4B81-A947-AF9C36497881";
name = Regular;
shapes = (
{
closed = 1;
nodes = (
(324,0,l),
(324,536,l),
(72,536,l),
(72,411,l),
(187,411,l),
(187,125,l),
(35,125,l),
(35,0,l)
);
}
);
width = 389;
}
);
note = nun;
unicode = 1504;
},
{
glyphname = "samekh-hb";
kernLeft = "samekh-hb";
kernRight = "samekh-hb";
lastChange = "2023-04-05 13:05:38 +0000";
layers = (
{
anchors = (
{
name = bottom;
pos = (280,0);
},
{
name = bottomleft;
pos = (20,0);
},
{
name = center;
pos = (326,288);
},
{
name = top;
pos = (308,515);
},
{
name = topleft;
pos = (10,515);
}
);
hints = (
{
horizontal = 1;
origin = (0,12);
target = up;
type = BottomGhost;
},
{
horizontal = 1;
origin = (0,10);
target = (0,9);
type = Stem;
},
{
place = (102.5, 130);
place = (102.5, 130);
type = Stem;
},
{
origin = (1,4);
target = (0,5);
type = Stem;
},
{
horizontal = 1;
origin = (0,15);
target = (1,7);
type = Stem;
}
);
layerId = "67A5D7A9-2C6D-4B81-A947-AF9C36497881";
name = Regular;
shapes = (
{
closed = 1;
nodes = (
(262,-8,o),
(368,19,o),
(452,86,cs),
(532,152,o),
(578,246,o),
(578,351,cs),
(578,473,o),
(510,536,o),
(396,536,cs),
(25,536,l),
(25,411,l),
(96,411,l),
(109,-7,l),
(122,-8,o),
(134,-8,o),
(146,-8,cs)
);
},
{
closed = 1;
nodes = (
(227,411,l),
(365,411,ls),
(411,411,o),
(439,392,o),
(439,337,cs),
(439,220,o),
(356,137,o),
(238,126,c)
);
}
);
width = 616;
}
);
note = samekh;
unicode = 1505;
},
{
glyphname = "ayin-hb";
lastChange = "2023-04-05 13:05:38 +0000";
layers = (
{
anchors = (
{
name = bottom;
pos = (277,0);
},
{
name = bottomleft;
pos = (20,0);
},
{
name = center;
pos = (308,394);
},
{
name = top;
pos = (281,515);
},
{
name = topleft;
pos = (40,515);
}
);
hints = (
{
origin = (0,11);
target = (0,2);
type = Stem;
},
{
horizontal = 1;
origin = (0,26);
target = down;
type = TopGhost;
},
{
horizontal = 1;
origin = (0,29);
target = up;
type = BottomGhost;
}
);
layerId = "67A5D7A9-2C6D-4B81-A947-AF9C36497881";
name = Regular;
shapes = (
{
closed = 1;
nodes = (
(401,13,o),
(514,108,o),
(514,407,cs),
(514,444,o),
(512,498,o),
(504,542,c),
(453,538,o),
(409,532,o),
(367,521,c),
(375,470,o),
(379,420,o),
(379,378,cs),
(379,266,o),
(359,202,o),
(303,160,c),
(220,433,ls),
(208,473,o),
(195,515,o),
(167,548,c),
(127,533,o),
(84,514,o),
(43,490,c),
(76,423,l),
(179,108,l),
(134,96,o),
(80,85,o),
(17,73,c),
(21,31,o),
(27,-10,o),
(33,-52,c)
);
}
);
width = 562;
}
);
note = ayin;
unicode = 1506;
},
{
glyphname = "finalpe-hb";
lastChange = "2023-04-05 13:05:38 +0000";
layers = (
{
anchors = (
{
name = bottom;
pos = (273,0);
},
{
name = bottomleft;
pos = (20,0);
},
{
name = center;
pos = (273,335);
},
{
name = top;
pos = (273,515);
},
{
name = topleft;
pos = (20,515);
}
);
guides = (
{
pos = (169,156);
}
);
hints = (
{
horizontal = 1;
origin = (0,16);
target = (0,10);
type = Stem;
},
{
origin = (0,21);
target = (0,0);
type = Stem;
},
{
horizontal = 1;
origin = (0,21);
target = up;
type = BottomGhost;
},
{
horizontal = 1;
origin = (0,13);
target = up;
type = BottomGhost;
},
{
horizontal = 1;
origin = (0,12);
target = (0,11);
type = Stem;
}
);
layerId = "67A5D7A9-2C6D-4B81-A947-AF9C36497881";
name = Regular;
shapes = (
{
closed = 1;
nodes = (
(488,-120,l),
(488,366,ls),
(488,472,o),
(426,535,o),
(320,536,cs),
(285,537,o),
(249,537,o),
(213,537,cs),
(177,537,o),
(141,537,o),
(106,536,c),
(35,263,l),
(35,224,l),
(203,141,l),
(257,257,l),
(177,298,l),
(208,411,l),
(291,411,ls),
(328,411,o),
(351,387,o),
(351,347,cs),
(351,-129,l)
);
}
);
width = 546;
}
);
note = finalpe;
unicode = 1507;
},
{
glyphname = "pe-hb";
kernLeft = "pe-hb";
kernRight = "pe-hb";
lastChange = "2023-04-05 13:05:38 +0000";
layers = (
{
anchors = (
{
name = bottom;
pos = (274,0);
},
{
name = bottomleft;
pos = (20,0);
},
{
name = center;
pos = (310,199);
},
{
name = top;
pos = (282,515);
},
{
name = topleft;
pos = (80,515);
}
);
hints = (
{
horizontal = 1;
origin = (0,30);
target = (0,29);
type = Stem;
},
{
horizontal = 1;
origin = (0,21);
target = (0,13);
type = Stem;
},
{
origin = (0,25);
target = (0,0);
type = Stem;
},
{
horizontal = 1;
origin = (0,15);
target = (0,14);
type = Stem;
},
{
horizontal = 1;
origin = (0,16);
target = up;
type = BottomGhost;
}
);
layerId = "67A5D7A9-2C6D-4B81-A947-AF9C36497881";
name = Regular;
shapes = (
{
closed = 1;
nodes = (
(512,0,l),
(512,47,ls),
(512,167,o),
(506,301,o),
(498,372,cs),
(486,481,o),
(426,534,o),
(317,536,cs),
(283,537,o),
(249,537,o),
(215,537,cs),
(180,537,o),
(146,537,o),
(112,536,c),
(57,299,l),
(57,269,l),
(230,180,l),
(246,215,o),
(262,253,o),
(276,294,c),
(197,335,l),
(216,414,l),
(298,414,ls),
(339,414,o),
(365,390,o),
(370,346,cs),
(379,262,o),
(382,198,o),
(383,122,c),
(32,122,l),
(32,0,l)
);
}
);
width = 564;
}
);
note = pe;
unicode = 1508;
},
{
glyphname = "pedagesh-hb";
kernLeft = "pe-hb";
kernRight = "pe-hb";
lastChange = "2023-04-05 13:05:38 +0000";
layers = (
{
hints = (
{
horizontal = 1;
origin = (0,30);
target = (0,29);
type = Stem;
},
{
horizontal = 1;
origin = (0,21);
target = (0,13);
type = Stem;
},
{
horizontal = 1;
origin = (1,11);
target = (1,5);
type = Stem;
},
{
origin = (0,25);
target = (0,0);
type = Stem;
},
{
origin = (1,8);
target = (1,2);
type = Stem;
},
{
horizontal = 1;
origin = (0,16);
target = up;
type = BottomGhost;
},
{
horizontal = 1;
origin = (0,15);
target = (0,14);
type = Stem;
}
);
layerId = "67A5D7A9-2C6D-4B81-A947-AF9C36497881";
name = Regular;
shapes = (
{
closed = 1;
nodes = (
(512,0,l),
(512,47,ls),
(512,167,o),
(506,301,o),
(498,372,cs),
(486,481,o),
(426,534,o),
(317,536,cs),
(283,537,o),
(249,537,o),
(215,537,cs),
(180,537,o),
(146,537,o),
(112,536,c),
(57,299,l),
(57,269,l),
(202,194,l),
(219,231,o),
(235,270,o),
(248,309,c),
(197,335,l),
(216,414,l),
(298,414,ls),
(339,414,o),
(365,390,o),
(370,346,cs),
(379,262,o),
(382,198,o),
(383,122,c),
(32,122,l),
(32,0,l)
);
},
{
closed = 1;
nodes = (
(325,160,o),
(348,183,o),
(348,211,cs),
(348,241,o),
(325,264,o),
(296,264,cs),
(266,264,o),
(243,241,o),
(243,211,cs),
(243,183,o),
(266,160,o),
(296,160,cs)
);
}
);
width = 564;
}
);
unicode = 64324;
},
{
glyphname = "finaltsadi-hb";
lastChange = "2023-04-05 13:17:29 +0000";
layers = (
{
hints = (
{
place = (266.5, 144.5);
place = (266.5, 144.5);
type = Stem;
},
{
origin = (0,18);
target = (0,15);
type = Stem;
},
{
horizontal = 1;
origin = (0,27);
target = down;
type = TopGhost;
},
{
horizontal = 1;
origin = (0,34);
target = up;
type = BottomGhost;
}
);
layerId = "67A5D7A9-2C6D-4B81-A947-AF9C36497881";
name = Regular;
shapes = (
{
closed = 1;
nodes = (
(406,-120,l),
(409,-80,o),
(411,-48,o),
(411,-20,cs),
(411,67,o),
(394,108,o),
(349,181,cs),
(337,200,o),
(326,217,o),
(308,244,c),
(426,275,o),
(452,342,o),
(459,417,cs),
(461,439,o),
(465,502,o),
(466,538,c),
(420,538,o),
(375,537,o),
(330,534,c),
(328,479,o),
(322,411,o),
(316,382,cs),
(309,346,o),
(293,333,o),
(257,324,c),
(206,405,o),
(180,452,o),
(135,550,c),
(90,536,o),
(43,520,o),
(1,502,c),
(58,345,o),
(239,125,o),
(267,46,c),
(267,-129,l)
);
}
);
width = 509;
}
);
note = finaltsadi;
unicode = 1509;
},
{
glyphname = "tsadi-hb";
kernLeft = "tsadi-hb";
kernRight = "tsadi-hb";
lastChange = "2023-04-05 13:05:38 +0000";
layers = (
{
anchors = (
{
name = bottom;
pos = (247,0);
},
{
name = bottomleft;
pos = (20,0);
},
{
name = center;
pos = (89,215);
},
{
name = top;
pos = (258,515);
},
{
name = topleft;
pos = (48,515);
}
);
hints = (
{
horizontal = 1;
origin = (0,31);
target = (0,30);
type = Stem;
},
{
place = (338, 133);
place = (338, 133);
type = Stem;
},
{
place = (285.5, 161.5);
place = (285.5, 161.5);
type = Stem;
},
{
horizontal = 1;
origin = (0,20);
target = down;
type = TopGhost;
}
);
layerId = "67A5D7A9-2C6D-4B81-A947-AF9C36497881";
name = Regular;
shapes = (
{
closed = 1;
nodes = (
(447,0,l),
(447,116,l),
(343,252,l),
(438,286,o),
(459,343,o),
(467,417,cs),
(470,453,o),
(474,502,o),
(475,538,c),
(429,538,o),
(384,537,o),
(338,534,c),
(336,481,o),
(330,411,o),
(324,382,c),
(320,355,o),
(309,340,o),
(284,329,c),
(231,408,o),
(186,481,o),
(148,551,c),
(101,534,o),
(54,513,o),
(18,491,c),
(64,407,o),
(116,323,o),
(179,241,c),
(285,127,l),
(286,117,l),
(111,128,l),
(41,128,l),
(41,0,l)
);
}
);
width = 515;
}
);
note = tsadi;
unicode = 1510;
},
{
glyphname = "qof-hb";
kernLeft = "qof-hb";
kernRight = "qof-hb";
lastChange = "2023-04-05 13:05:38 +0000";
layers = (
{
anchors = (
{
name = bottom;
pos = (385,0);
},
{
name = bottomleft;
pos = (20,0);
},
{
name = center;
pos = (303,311);
},
{
name = top;
pos = (295,515);
},
{
name = topleft;
pos = (20,515);
}
);
hints = (
{
horizontal = 1;
origin = (0,5);
target = (0,4);
type = Stem;
},
{
origin = (1,5);
target = (1,0);
type = Stem;
},
{
origin = (0,7);
target = (0,2);
type = Stem;
},
{
horizontal = 1;
origin = (0,13);
target = up;
type = BottomGhost;
},
{
horizontal = 1;
origin = (1,5);
target = up;
type = BottomGhost;
},
{
horizontal = 1;
origin = (1,1);
target = down;
type = TopGhost;
}
);
layerId = "67A5D7A9-2C6D-4B81-A947-AF9C36497881";
name = Regular;
shapes = (
{
closed = 1;
nodes = (
(475,128,o),
(538,187,o),
(538,339,cs),
(538,536,l),
(60,536,l),
(60,411,l),
(401,411,l),
(401,308,ls),
(401,249,o),
(360,202,o),
(269,86,c),
(296,48,o),
(325,12,o),
(356,-22,c)
);
},
{
closed = 1;
nodes = (
(204,-120,l),
(204,290,l),
(158,289,o),
(111,285,o),
(65,281,c),
(65,-129,l)
);
}
);
width = 590;
}
);
note = qof;
unicode = 1511;
},
{
glyphname = "resh-hb";
kernLeft = "resh-hb";
kernRight = "resh-hb";
lastChange = "2023-04-05 13:05:38 +0000";
layers = (
{
anchors = (
{
name = bottom;
pos = (342,0);
},
{
name = bottomleft;
pos = (20,0);
},
{
name = center;
pos = (134,258);
},
{
name = top;
pos = (234,515);
},
{
name = topleft;
pos = (0,515);
}
);
hints = (
{
horizontal = 1;
origin = (0,11);
target = up;
type = BottomGhost;
},
{
horizontal = 1;
origin = (0,6);
target = (0,5);
type = Stem;
},
{
origin = (0,11);
target = (0,0);
type = Stem;
}
);
layerId = "67A5D7A9-2C6D-4B81-A947-AF9C36497881";
name = Regular;
shapes = (
{
closed = 1;
nodes = (
(410,4,l),
(410,366,ls),
(410,473,o),
(348,536,o),
(242,536,cs),
(25,536,l),
(25,411,l),
(213,411,ls),
(250,411,o),
(273,386,o),
(273,347,cs),
(273,-5,l)
);
}
);
width = 468;
}
);
note = resh;
unicode = 1512;
},
{
glyphname = "shin-hb";
kernLeft = "shin-hb";
kernRight = "shin-hb";
lastChange = "2023-04-05 13:05:38 +0000";
layers = (
{
anchors = (
{
name = bottom;
pos = (329,0);
},
{
name = bottomleft;
pos = (20,0);
},
{
name = center;
pos = (398,209);
},
{
name = top;
pos = (369,515);
},
{
name = topleft;
pos = (112,515);
},
{
name = topright;
pos = (627,515);
}
);
hints = (
{
horizontal = 1;
origin = (0,31);
target = (0,15);
type = Stem;
},
{
horizontal = 1;
origin = (0,26);
target = down;
type = TopGhost;
},
{
place = (58, 141);
place = (58, 141);
type = Stem;
},
{
origin = (0,21);
target = (0,19);
type = Stem;
},
{
origin = (0,9);
target = (0,2);
type = Stem;
},
{
horizontal = 1;
origin = (0,25);
target = down;
type = TopGhost;
}
);
layerId = "67A5D7A9-2C6D-4B81-A947-AF9C36497881";
name = Regular;
shapes = (
{
closed = 1;
nodes = (
(542,-15,o),
(692,118,o),
(692,461,cs),
(692,486,o),
(692,512,o),
(690,539,c),
(552,528,l),
(552,514,o),
(553,502,o),
(553,489,cs),
(553,472,o),
(552,453,o),
(551,428,cs),
(540,168,o),
(437,110,o),
(222,112,c),
(215,213,l),
(396,236,o),
(450,313,o),
(446,539,c),
(312,528,l),
(312,497,ls),
(312,352,o),
(297,328,o),
(208,306,c),
(190,539,l),
(58,528,l),
(58,467,l),
(92,-14,l),
(116,-15,o),
(138,-15,o),
(160,-15,cs)
);
}
);
width = 737;
}
);
note = shin;
unicode = 1513;
},
{
glyphname = "tav-hb";
kernLeft = "tav-hb";
kernRight = "tav-hb";
lastChange = "2023-04-05 13:05:38 +0000";
layers = (
{
anchors = (
{
name = bottom;
pos = (342,0);
},
{
name = bottomleft;
pos = (20,0);
},
{
name = center;
pos = (373,258);
},
{
name = top;
pos = (328,515);
},
{
name = topleft;
pos = (0,515);
}
);
background = {
shapes = (
{
closed = 1;
nodes = (
(31,520,l),
(31,428,l),
(135,428,l),
(135,135,ls),
(135,108,o),
(114,87,o),
(87,87,cs),
(31,87,l),
(31,0,l),
(110,0,ls),
(180,0,o),
(232,58,o),
(232,132,cs),
(232,428,l),
(382,428,l),
(434,428,o),
(469,393,o),
(469,341,cs),
(469,0,l),
(566,0,l),
(566,341,ls),
(566,457,o),
(503,520,o),
(387,520,c)
);
}
);
};
hints = (
{
horizontal = 1;
origin = (0,29);
target = (0,20);
type = Stem;
},
{
horizontal = 1;
origin = (0,15);
target = (0,14);
type = Stem;
},
{
horizontal = 1;
origin = (0,8);
target = up;
type = BottomGhost;
},
{
horizontal = 1;
origin = (0,26);
target = down;
type = TopGhost;
},
{
origin = (0,17);
target = (0,2);
type = Stem;
},
{
origin = (0,8);
target = (0,9);
type = Stem;
},
{
horizontal = 1;
origin = (0,23);
target = down;
type = TopGhost;
}
);
layerId = "67A5D7A9-2C6D-4B81-A947-AF9C36497881";
name = Regular;
shapes = (
{
closed = 1;
nodes = (
(235,-11,o),
(285,37,o),
(285,150,cs),
(285,411,l),
(401,411,ls),
(438,411,o),
(461,386,o),
(461,347,cs),
(461,-5,l),
(598,4,l),
(598,366,ls),
(598,473,o),
(536,536,o),
(430,536,cs),
(37,536,l),
(37,411,l),
(148,411,l),
(148,173,ls),
(148,133,o),
(130,113,o),
(92,113,cs),
(83,113,o),
(67,114,o),
(52,116,c),
(38,75,o),
(27,36,o),
(20,-1,c),
(54,-8,o),
(93,-11,o),
(121,-11,cs)
);
}
);
width = 656;
}
);
note = tav;
unicode = 1514;
},
{
glyphname = zero;
lastChange = "2023-04-05 13:05:38 +0000";
layers = (
{
hints = (
{
horizontal = 1;
origin = (0,11);
target = (1,11);
type = Stem;
},
{
horizontal = 1;
origin = (0,5);
target = (1,5);
type = Stem;
},
{
origin = (0,8);
target = (1,2);
type = Stem;
},
{
origin = (1,8);
target = (0,2);
type = Stem;
}
);
layerId = "67A5D7A9-2C6D-4B81-A947-AF9C36497881";
name = Regular;
shapes = (
{
closed = 1;
nodes = (
(454,-15,o),
(546,106,o),
(546,332,cs),
(546,558,o),
(454,680,o),
(293,680,cs),
(132,680,o),
(40,559,o),
(40,333,cs),
(40,107,o),
(132,-15,o),
(293,-15,cs)
);
},
{
closed = 1;
nodes = (
(224,111,o),
(183,195,o),
(183,335,cs),
(183,475,o),
(224,555,o),
(293,555,cs),
(362,555,o),
(403,471,o),
(403,331,cs),
(403,191,o),
(362,111,o),
(293,111,cs)
);
}
);
width = 586;
}
);
unicode = 48;
},
{
glyphname = one;
lastChange = "2023-04-05 13:05:38 +0000";
layers = (
{
hints = (
{
horizontal = 1;
origin = (0,10);
target = (0,9);
type = Stem;
},
{
horizontal = 1;
origin = (0,4);
target = down;
type = TopGhost;
},
{
origin = (0,8);
target = (0,2);
type = Stem;
},
{
horizontal = 1;
origin = (0,6);
target = (0,5);
type = Stem;
},
{
horizontal = 1;
origin = (0,4);
target = (0,7);
type = Stem;
}
);
layerId = "67A5D7A9-2C6D-4B81-A947-AF9C36497881";
name = Regular;
shapes = (
{
closed = 1;
nodes = (
(406,0,l),
(416,121,l),
(305,121,l),
(305,671,l),
(228,671,l),
(48,581,l),
(48,532,l),
(165,485,l),
(165,121,l),
(50,121,l),
(40,0,l)
);
}
);
width = 438;
}
);
unicode = 49;
},
{
glyphname = two;
lastChange = "2023-04-05 13:05:38 +0000";
layers = (
{
hints = (
{
horizontal = 1;
origin = (0,22);
target = (0,2);
type = Stem;
},
{
horizontal = 1;
origin = (0,8);
target = (0,15);
type = Stem;
},
{
origin = (0,18);
target = (0,5);
type = Stem;
},
{
horizontal = 1;
origin = (0,12);
target = up;
type = BottomGhost;
}
);
layerId = "67A5D7A9-2C6D-4B81-A947-AF9C36497881";
name = Regular;
shapes = (
{
closed = 1;
nodes = (
(455,0,l),
(466,129,l),
(233,129,l),
(387,282,o),
(465,384,o),
(465,494,cs),
(465,611,o),
(378,681,o),
(262,681,cs),
(173,681,o),
(91,640,o),
(28,548,c),
(131,475,l),
(165,523,o),
(204,550,o),
(247,550,cs),
(291,550,o),
(321,521,o),
(321,476,cs),
(321,401,o),
(241,311,o),
(48,105,c),
(48,0,l)
);
}
);
width = 517;
}
);
unicode = 50;
},
{
glyphname = three;
lastChange = "2023-04-05 13:05:38 +0000";
layers = (
{
hints = (
{
horizontal = 1;
origin = (0,41);
target = (0,34);
type = Stem;
},
{
horizontal = 1;
origin = (0,11);
target = (0,18);
type = Stem;
},
{
horizontal = 1;
origin = (0,38);
target = down;
type = TopGhost;
},
{
origin = (0,31);
target = (0,2);
type = Stem;
},
{
origin = (0,21);
target = (0,8);
type = Stem;
},
{
horizontal = 1;
origin = (0,28);
target = (0,24);
type = Stem;
},
{
horizontal = 1;
origin = (0,15);
target = up;
type = BottomGhost;
}
);
layerId = "67A5D7A9-2C6D-4B81-A947-AF9C36497881";
name = Regular;
shapes = (
{
closed = 1;
nodes = (
(308,-15,o),
(441,95,o),
(441,238,cs),
(441,308,o),
(408,366,o),
(345,396,c),
(390,439,o),
(410,485,o),
(410,530,cs),
(410,616,o),
(337,681,o),
(225,681,cs),
(144,681,o),
(70,647,o),
(15,593,c),
(99,501,l),
(134,539,o),
(176,560,o),
(213,560,cs),
(250,560,o),
(274,540,o),
(274,511,cs),
(274,462,o),
(207,411,o),
(147,392,c),
(167,296,l),
(188,303,o),
(206,306,o),
(222,306,cs),
(271,306,o),
(298,277,o),
(298,231,cs),
(298,158,o),
(230,108,o),
(122,108,cs),
(92,108,o),
(57,112,o),
(22,118,c),
(4,-6,l),
(40,-12,o),
(76,-15,o),
(109,-15,cs)
);
}
);
width = 486;
}
);
unicode = 51;
},
{
glyphname = four;
lastChange = "2023-04-05 13:05:38 +0000";
layers = (
{
hints = (
{
horizontal = 1;
origin = (0,10);
target = up;
type = BottomGhost;
},
{
horizontal = 1;
origin = (0,8);
target = (1,2);
type = Stem;
},
{
horizontal = 1;
origin = (0,6);
target = down;
type = TopGhost;
},
{
origin = (0,10);
target = (0,0);
type = Stem;
}
);
layerId = "67A5D7A9-2C6D-4B81-A947-AF9C36497881";
name = Regular;
shapes = (
{
closed = 1;
nodes = (
(457,0,l),
(457,150,l),
(524,150,l),
(534,262,l),
(457,262,l),
(457,666,l),
(325,666,l),
(25,253,l),
(35,150,l),
(326,150,l),
(326,0,l)
);
},
{
closed = 1;
nodes = (
(326,492,l),
(326,262,l),
(170,262,l)
);
}
);
width = 574;
}
);
unicode = 52;
},
{
glyphname = five;
lastChange = "2023-04-05 13:05:38 +0000";
layers = (
{
hints = (
{
horizontal = 1;
origin = (0,30);
target = (0,23);
type = Stem;
},
{
horizontal = 1;
origin = (0,17);
target = (0,5);
type = Stem;
},
{
horizontal = 1;
origin = (0,12);
target = (0,9);
type = Stem;
},
{
horizontal = 1;
origin = (0,27);
target = down;
type = TopGhost;
},
{
place = (76.5, 122.5);
place = (76.5, 122.5);
type = Stem;
},
{
origin = (0,20);
target = (0,2);
type = Stem;
}
);
layerId = "67A5D7A9-2C6D-4B81-A947-AF9C36497881";
name = Regular;
shapes = (
{
closed = 1;
nodes = (
(314,-15,o),
(446,94,o),
(446,243,cs),
(446,365,o),
(363,439,o),
(240,439,cs),
(224,439,o),
(209,438,o),
(196,435,c),
(202,548,l),
(418,548,l),
(426,666,l),
(86,666,l),
(67,346,l),
(123,305,l),
(150,318,o),
(182,325,o),
(211,325,cs),
(271,325,o),
(303,296,o),
(303,240,cs),
(303,162,o),
(235,108,o),
(128,108,cs),
(98,108,o),
(63,112,o),
(28,118,c),
(10,-6,l),
(46,-12,o),
(82,-15,o),
(115,-15,cs)
);
}
);
width = 491;
}
);
unicode = 53;
},
{
glyphname = six;
lastChange = "2023-04-05 13:05:38 +0000";
layers = (
{
hints = (
{
horizontal = 1;
origin = (0,24);
target = (1,14);
type = Stem;
},
{
horizontal = 1;
origin = (1,8);
target = (0,5);
type = Stem;
},
{
horizontal = 1;
origin = (0,18);
target = (0,11);
type = Stem;
},
{
horizontal = 1;
origin = (0,15);
target = up;
type = BottomGhost;
},
{
origin = (0,21);
target = (1,2);
type = Stem;
},
{
origin = (1,11);
target = (0,2);
type = Stem;
}
);
layerId = "67A5D7A9-2C6D-4B81-A947-AF9C36497881";
name = Regular;
shapes = (
{
closed = 1;
nodes = (
(403,-16,o),
(497,70,o),
(497,224,cs),
(497,352,o),
(432,429,o),
(314,429,cs),
(278,429,o),
(237,422,o),
(190,406,c),
(208,520,o),
(261,561,o),
(351,561,cs),
(376,561,o),
(403,558,o),
(433,554,c),
(438,670,l),
(403,678,o),
(369,681,o),
(342,681,cs),
(139,681,o),
(45,515,o),
(45,282,cs),
(45,61,o),
(130,-16,o),
(263,-16,cs)
);
},
{
closed = 1;
nodes = (
(212,101,o),
(180,159,o),
(180,242,cs),
(180,257,o),
(181,273,o),
(182,291,c),
(225,308,o),
(260,316,o),
(285,316,cs),
(340,316,o),
(361,274,o),
(361,213,cs),
(361,136,o),
(327,101,o),
(277,101,cs)
);
}
);
width = 542;
}
);
unicode = 54;
},
{
glyphname = seven;
lastChange = "2023-04-05 13:05:38 +0000";
layers = (
{
hints = (
{
horizontal = 1;
origin = (0,2);
target = (0,3);
type = Stem;
},
{
origin = (0,3);
target = (0,0);
type = Stem;
},
{
horizontal = 1;
origin = (0,6);
target = up;
type = BottomGhost;
},
{
horizontal = 1;
origin = (0,5);
target = up;
type = BottomGhost;
}
);
layerId = "67A5D7A9-2C6D-4B81-A947-AF9C36497881";
name = Regular;
shapes = (
{
closed = 1;
nodes = (
(438,560,l),
(438,666,l),
(36,666,l),
(26,547,l),
(301,547,l),
(79,10,l),
(226,-20,l)
);
}
);
width = 473;
}
);
unicode = 55;
},
{
glyphname = eight;
lastChange = "2023-04-05 13:05:38 +0000";
layers = (
{
hints = (
{
horizontal = 1;
origin = (0,23);
target = (1,11);
type = Stem;
},
{
horizontal = 1;
origin = (0,11);
target = (2,5);
type = Stem;
},
{
origin = (0,20);
target = (1,2);
type = Stem;
},
{
origin = (1,8);
target = (0,2);
type = Stem;
},
{
origin = (0,14);
target = (2,2);
type = Stem;
},
{
origin = (2,8);
target = (0,8);
type = Stem;
}
);
layerId = "67A5D7A9-2C6D-4B81-A947-AF9C36497881";
name = Regular;
shapes = (
{
closed = 1;
nodes = (
(426,-15,o),
(516,66,o),
(516,186,cs),
(516,270,o),
(472,319,o),
(417,354,c),
(462,396,o),
(492,451,o),
(492,513,cs),
(492,621,o),
(399,681,o),
(285,681,cs),
(168,681,o),
(69,619,o),
(69,502,cs),
(69,447,o),
(91,400,o),
(133,361,c),
(74,320,o),
(43,257,o),
(43,182,cs),
(43,59,o),
(126,-15,o),
(273,-15,cs)
);
},
{
closed = 1;
nodes = (
(215,102,o),
(175,136,o),
(175,194,cs),
(175,230,o),
(190,270,o),
(225,302,c),
(302,265,o),
(380,243,o),
(380,175,cs),
(380,130,o),
(345,102,o),
(283,102,cs)
);
},
{
closed = 1;
nodes = (
(259,431,o),
(205,456,o),
(205,506,cs),
(205,547,o),
(241,565,o),
(278,565,cs),
(317,565,o),
(360,544,o),
(360,491,cs),
(360,460,o),
(346,426,o),
(322,403,c)
);
}
);
width = 561;
}
);
unicode = 56;
},
{
glyphname = nine;
lastChange = "2023-04-05 13:05:38 +0000";
layers = (
{
hints = (
{
horizontal = 1;
origin = (0,24);
target = (0,17);
type = Stem;
},
{
horizontal = 1;
origin = (0,11);
target = (1,14);
type = Stem;
},
{
horizontal = 1;
origin = (0,5);
target = (1,5);
type = Stem;
},
{
horizontal = 1;
origin = (0,21);
target = down;
type = TopGhost;
},
{
origin = (0,8);
target = (1,2);
type = Stem;
},
{
origin = (1,8);
target = (0,2);
type = Stem;
}
);
layerId = "67A5D7A9-2C6D-4B81-A947-AF9C36497881";
name = Regular;
shapes = (
{
closed = 1;
nodes = (
(403,-16,o),
(497,150,o),
(497,383,cs),
(497,604,o),
(412,681,o),
(279,681,cs),
(139,681,o),
(45,595,o),
(45,441,cs),
(45,313,o),
(110,236,o),
(228,236,cs),
(264,236,o),
(305,243,o),
(352,259,c),
(334,145,o),
(281,104,o),
(191,104,cs),
(166,104,o),
(139,107,o),
(109,111,c),
(104,-5,l),
(139,-13,o),
(173,-16,o),
(200,-16,cs)
);
},
{
closed = 1;
nodes = (
(202,349,o),
(181,391,o),
(181,452,cs),
(181,529,o),
(215,564,o),
(265,564,cs),
(330,564,o),
(362,506,o),
(362,423,cs),
(362,408,o),
(361,392,o),
(360,374,c),
(317,357,o),
(282,349,o),
(257,349,cs)
);
}
);
width = 542;
}
);
unicode = 57;
},
{
glyphname = zero.osf;
lastChange = "2023-04-05 13:05:38 +0000";
layers = (
{
hints = (
{
horizontal = 1;
origin = (0,11);
target = (1,11);
type = Stem;
},
{
horizontal = 1;
origin = (1,5);
target = (0,5);
type = Stem;
},
{
origin = (0,8);
target = (1,2);
type = Stem;
},
{
origin = (1,8);
target = (0,2);
type = Stem;
}
);
layerId = "67A5D7A9-2C6D-4B81-A947-AF9C36497881";
name = Regular;
shapes = (
{
closed = 1;
nodes = (
(452,-15,o),
(541,89,o),
(541,274,cs),
(541,456,o),
(452,559,o),
(293,559,cs),
(134,559,o),
(45,456,o),
(45,273,cs),
(45,89,o),
(134,-15,o),
(293,-15,cs)
);
},
{
closed = 1;
nodes = (
(228,100,o),
(190,164,o),
(190,275,cs),
(190,385,o),
(228,445,o),
(293,445,cs),
(358,445,o),
(395,385,o),
(395,275,cs),
(395,164,o),
(358,100,o),
(293,100,cs)
);
}
);
width = 586;
}
);
},
{
glyphname = one.osf;
lastChange = "2023-04-05 13:05:38 +0000";
layers = (
{
hints = (
{
horizontal = 1;
origin = (0,10);
target = (0,9);
type = Stem;
},
{
origin = (0,8);
target = (0,2);
type = Stem;
},
{
horizontal = 1;
origin = (0,6);
target = (0,5);
type = Stem;
},
{
horizontal = 1;
origin = (0,7);
target = (0,4);
type = Stem;
}
);
layerId = "67A5D7A9-2C6D-4B81-A947-AF9C36497881";
name = Regular;
shapes = (
{
closed = 1;
nodes = (
(393,0,l),
(403,121,l),
(290,121,l),
(290,546,l),
(228,546,l),
(58,472,l),
(58,423,l),
(154,391,l),
(154,121,l),
(50,121,l),
(40,0,l)
);
}
);
width = 418;
}
);
},
{
glyphname = two.osf;
lastChange = "2023-04-05 13:05:38 +0000";
layers = (
{
hints = (
{
horizontal = 1;
origin = (0,22);
target = (0,2);
type = Stem;
},
{
horizontal = 1;
origin = (0,15);
target = (0,8);
type = Stem;
},
{
origin = (0,18);
target = (0,5);
type = Stem;
},
{
horizontal = 1;
origin = (0,12);
target = up;
type = BottomGhost;
}
);
layerId = "67A5D7A9-2C6D-4B81-A947-AF9C36497881";
name = Regular;
shapes = (
{
closed = 1;
nodes = (
(408,0,l),
(418,118,l),
(213,118,l),
(364,233,o),
(423,305,o),
(423,394,cs),
(423,496,o),
(345,559,o),
(234,559,cs),
(150,559,o),
(63,523,o),
(20,459,c),
(120,382,l),
(153,418,o),
(191,439,o),
(226,439,cs),
(261,439,o),
(283,418,o),
(283,387,cs),
(283,333,o),
(215,257,o),
(36,96,c),
(36,0,l)
);
}
);
width = 468;
}
);
},
{
glyphname = three.osf;
lastChange = "2023-04-05 13:05:38 +0000";
layers = (
{
hints = (
{
horizontal = 1;
origin = (0,44);
target = (0,37);
type = Stem;
},
{
horizontal = 1;
origin = (0,18);
target = (0,11);
type = Stem;
},
{
origin = (0,34);
target = (0,2);
type = Stem;
},
{
origin = (0,21);
target = (0,8);
type = Stem;
},
{
horizontal = 1;
origin = (0,15);
target = up;
type = BottomGhost;
},
{
horizontal = 1;
origin = (0,31);
target = (0,27);
type = Stem;
}
);
layerId = "67A5D7A9-2C6D-4B81-A947-AF9C36497881";
name = Regular;
shapes = (
{
closed = 1;
nodes = (
(306,-137,o),
(441,-31,o),
(441,114,cs),
(441,186,o),
(408,240,o),
(353,270,c),
(392,312,o),
(410,359,o),
(410,403,cs),
(410,492,o),
(336,559,o),
(226,559,cs),
(146,559,o),
(73,525,o),
(15,471,c),
(99,379,l),
(134,420,o),
(176,443,o),
(212,443,cs),
(247,443,o),
(270,423,o),
(270,393,cs),
(270,360,o),
(243,321,o),
(198,292,cs),
(177,279,o),
(153,266,o),
(124,258,c),
(142,162,l),
(173,168,o),
(200,176,o),
(225,186,c),
(272,182,o),
(298,155,o),
(298,109,cs),
(298,34,o),
(229,-20,o),
(120,-20,cs),
(90,-20,o),
(55,-16,o),
(20,-10,c),
(0,-128,l),
(36,-134,o),
(72,-137,o),
(105,-137,cs)
);
}
);
width = 486;
}
);
},
{
glyphname = four.osf;
lastChange = "2023-04-05 13:05:38 +0000";
layers = (
{
hints = (
{
horizontal = 1;
origin = (0,8);
target = (1,2);
type = Stem;
},
{
origin = (0,10);
target = (0,0);
type = Stem;
},
{
horizontal = 1;
origin = (0,10);
target = up;
type = BottomGhost;
}
);
layerId = "67A5D7A9-2C6D-4B81-A947-AF9C36497881";
name = Regular;
shapes = (
{
closed = 1;
nodes = (
(478,-159,l),
(478,0,l),
(548,0,l),
(558,118,l),
(478,118,l),
(478,546,l),
(339,546,l),
(25,109,l),
(36,0,l),
(341,0,l),
(341,-159,l)
);
},
{
closed = 1;
nodes = (
(341,362,l),
(341,118,l),
(177,118,l)
);
}
);
width = 588;
}
);
},
{
glyphname = five.osf;
lastChange = "2023-04-05 13:05:38 +0000";
layers = (
{
hints = (
{
horizontal = 1;
origin = (0,23);
target = (0,30);
type = Stem;
},
{
horizontal = 1;
origin = (0,17);
target = (0,5);
type = Stem;
},
{
horizontal = 1;
origin = (0,9);
target = (0,12);
type = Stem;
},
{
place = (75.5, 122.5);
place = (75.5, 122.5);
type = Stem;
},
{
origin = (0,20);
target = (0,2);
type = Stem;
},
{
horizontal = 1;
origin = (0,14);
target = up;
type = BottomGhost;
}
);
layerId = "67A5D7A9-2C6D-4B81-A947-AF9C36497881";
name = Regular;
shapes = (
{
closed = 1;
nodes = (
(314,-137,o),
(446,-29,o),
(446,123,cs),
(446,243,o),
(363,317,o),
(238,317,cs),
(224,317,o),
(209,316,o),
(195,313,c),
(201,418,l),
(412,418,l),
(420,536,l),
(84,536,l),
(67,224,l),
(123,183,l),
(150,196,o),
(182,203,o),
(211,203,cs),
(272,203,o),
(303,173,o),
(303,119,cs),
(303,39,o),
(235,-14,o),
(128,-14,cs),
(98,-14,o),
(63,-10,o),
(28,-4,c),
(10,-128,l),
(46,-134,o),
(82,-137,o),
(115,-137,cs)
);
}
);
width = 491;
}
);
},
{
glyphname = six.osf;
lastChange = "2023-04-05 13:05:38 +0000";
layers = (
{
hints = (
{
horizontal = 1;
origin = (0,24);
target = (1,14);
type = Stem;
},
{
horizontal = 1;
origin = (1,8);
target = (0,5);
type = Stem;
},
{
horizontal = 1;
origin = (0,18);
target = (0,11);
type = Stem;
},
{
horizontal = 1;
origin = (0,15);
target = up;
type = BottomGhost;
},
{
origin = (0,21);
target = (1,2);
type = Stem;
},
{
origin = (1,11);
target = (0,2);
type = Stem;
}
);
layerId = "67A5D7A9-2C6D-4B81-A947-AF9C36497881";
name = Regular;
shapes = (
{
closed = 1;
nodes = (
(421,-16,o),
(516,70,o),
(516,224,cs),
(516,352,o),
(451,429,o),
(331,429,cs),
(295,429,o),
(254,422,o),
(206,406,c),
(224,520,o),
(278,561,o),
(369,561,cs),
(394,561,o),
(421,558,o),
(452,554,c),
(457,670,l),
(421,678,o),
(387,681,o),
(360,681,cs),
(155,681,o),
(60,515,o),
(60,282,cs),
(60,61,o),
(146,-16,o),
(280,-16,cs)
);
},
{
closed = 1;
nodes = (
(228,101,o),
(196,159,o),
(196,242,cs),
(196,257,o),
(197,273,o),
(198,291,c),
(242,308,o),
(277,316,o),
(302,316,cs),
(358,316,o),
(379,274,o),
(379,213,cs),
(379,136,o),
(345,101,o),
(294,101,cs)
);
}
);
width = 576;
}
);
},
{
glyphname = seven.osf;
lastChange = "2023-04-05 13:05:38 +0000";
layers = (
{
hints = (
{
horizontal = 1;
origin = (0,3);
target = (0,2);
type = Stem;
},
{
origin = (0,3);
target = (0,0);
type = Stem;
},
{
horizontal = 1;
origin = (0,6);
target = up;
type = BottomGhost;
},
{
horizontal = 1;
origin = (0,5);
target = up;
type = BottomGhost;
}
);
layerId = "67A5D7A9-2C6D-4B81-A947-AF9C36497881";
name = Regular;
shapes = (
{
closed = 1;
nodes = (
(443,430,l),
(443,536,l),
(41,536,l),
(30,416,l),
(305,416,l),
(84,-116,l),
(231,-146,l)
);
}
);
width = 483;
}
);
},
{
glyphname = eight.osf;
lastChange = "2023-04-05 13:05:38 +0000";
layers = (
{
hints = (
{
horizontal = 1;
origin = (0,23);
target = (1,11);
type = Stem;
},
{
horizontal = 1;
origin = (0,11);
target = (2,5);
type = Stem;
},
{
origin = (0,20);
target = (1,2);
type = Stem;
},
{
origin = (1,8);
target = (0,2);
type = Stem;
},
{
origin = (0,14);
target = (2,2);
type = Stem;
},
{
origin = (2,8);
target = (0,8);
type = Stem;
}
);
layerId = "67A5D7A9-2C6D-4B81-A947-AF9C36497881";
name = Regular;
shapes = (
{
closed = 1;
nodes = (
(438,-15,o),
(528,66,o),
(528,186,cs),
(528,270,o),
(484,319,o),
(429,354,c),
(474,396,o),
(504,451,o),
(504,513,cs),
(504,621,o),
(411,681,o),
(297,681,cs),
(180,681,o),
(81,619,o),
(81,502,cs),
(81,447,o),
(103,400,o),
(145,361,c),
(86,320,o),
(55,257,o),
(55,182,cs),
(55,59,o),
(138,-15,o),
(285,-15,cs)
);
},
{
closed = 1;
nodes = (
(227,102,o),
(187,136,o),
(187,194,cs),
(187,230,o),
(202,270,o),
(237,302,c),
(314,265,o),
(392,243,o),
(392,175,cs),
(392,130,o),
(357,102,o),
(295,102,cs)
);
},
{
closed = 1;
nodes = (
(271,431,o),
(217,456,o),
(217,506,cs),
(217,547,o),
(253,565,o),
(290,565,cs),
(329,565,o),
(372,544,o),
(372,491,cs),
(372,460,o),
(358,426,o),
(334,403,c)
);
}
);
width = 583;
}
);
},
{
glyphname = nine.osf;
lastChange = "2023-04-05 13:05:38 +0000";
layers = (
{
hints = (
{
horizontal = 1;
origin = (0,24);
target = (0,17);
type = Stem;
},
{
horizontal = 1;
origin = (0,11);
target = (1,14);
type = Stem;
},
{
horizontal = 1;
origin = (1,5);
target = (0,5);
type = Stem;
},
{
origin = (0,8);
target = (1,2);
type = Stem;
},
{
origin = (1,8);
target = (0,2);
type = Stem;
}
);
layerId = "67A5D7A9-2C6D-4B81-A947-AF9C36497881";
name = Regular;
shapes = (
{
closed = 1;
nodes = (
(411,-138,o),
(506,28,o),
(506,261,cs),
(506,482,o),
(420,559,o),
(286,559,cs),
(145,559,o),
(50,473,o),
(50,319,cs),
(50,191,o),
(115,114,o),
(235,114,cs),
(271,114,o),
(312,121,o),
(360,137,c),
(342,23,o),
(288,-18,o),
(197,-18,cs),
(172,-18,o),
(145,-15,o),
(114,-11,c),
(109,-127,l),
(145,-135,o),
(179,-138,o),
(206,-138,cs)
);
},
{
closed = 1;
nodes = (
(208,227,o),
(187,269,o),
(187,330,cs),
(187,407,o),
(221,442,o),
(272,442,cs),
(338,442,o),
(370,384,o),
(370,301,cs),
(370,286,o),
(369,270,o),
(368,252,c),
(324,235,o),
(289,227,o),
(264,227,cs)
);
}
);
width = 566;
}
);
},
{
glyphname = fraction;
lastChange = "2023-04-05 13:05:38 +0000";
layers = (
{
hints = (
{
horizontal = 1;
origin = (0,3);
target = up;
type = BottomGhost;
},
{
horizontal = 1;
origin = (0,1);
target = down;
type = TopGhost;
},
{
horizontal = 1;
origin = (0,2);
target = up;
type = BottomGhost;
}
);
layerId = "67A5D7A9-2C6D-4B81-A947-AF9C36497881";
name = Regular;
shapes = (
{
closed = 1;
nodes = (
(564,663,l),
(496,671,l),
(45,-1,l),
(112,-10,l)
);
}
);
width = 609;
}
);
unicode = 8260;
},
{
glyphname = onehalf;
kernLeft = onehalf;
kernRight = onehalf;
lastChange = "2023-04-05 13:05:38 +0000";
layers = (
{
hints = (
{
horizontal = 1;
origin = (0,3);
target = up;
type = BottomGhost;
},
{
horizontal = 1;
origin = (1,10);
target = (1,9);
type = Stem;
},
{
horizontal = 1;
origin = (0,1);
target = down;
type = TopGhost;
},
{
horizontal = 1;
origin = (2,22);
target = (2,2);
type = Stem;
},
{
horizontal = 1;
origin = (1,4);
target = down;
type = TopGhost;
},
{
horizontal = 1;
origin = (2,15);
target = (2,8);
type = Stem;
},
{
origin = (1,8);
target = (1,2);
type = Stem;
},
{
origin = (2,18);
target = (2,1);
type = Stem;
},
{
horizontal = 1;
origin = (2,12);
target = up;
type = BottomGhost;
},
{
horizontal = 1;
origin = (1,6);
target = (1,5);
type = Stem;
},
{
horizontal = 1;
origin = (1,4);
target = (1,7);
type = Stem;
}
);
layerId = "67A5D7A9-2C6D-4B81-A947-AF9C36497881";
name = Regular;
shapes = (
{
closed = 1;
nodes = (
(709,663,l),
(641,671,l),
(190,-1,l),
(257,-10,l)
);
},
{
closed = 1;
nodes = (
(287,294,l),
(292,362,l),
(230,362,l),
(230,668,l),
(189,668,l),
(100,618,l),
(100,591,l),
(155,564,l),
(155,362,l),
(96,362,l),
(91,294,l)
);
},
{
closed = 1;
nodes = (
(817,0,l),
(824,72,l),
(695,72,l),
(780,157,o),
(824,213,o),
(824,275,cs),
(824,340,o),
(775,378,o),
(711,378,cs),
(661,378,o),
(616,356,o),
(581,305,c),
(637,262,l),
(657,288,o),
(679,303,o),
(702,303,cs),
(727,303,o),
(744,288,o),
(744,263,cs),
(744,222,o),
(699,172,o),
(592,58,c),
(592,0,l)
);
}
);
width = 914;
}
);
unicode = 189;
},
{
glyphname = onethird;
kernLeft = onehalf;
kernRight = onehalf;
lastChange = "2023-04-05 13:05:38 +0000";
layers = (
{
hints = (
{
horizontal = 1;
origin = (2,41);
target = (2,34);
type = Stem;
},
{
horizontal = 1;
origin = (1,10);
target = (1,9);
type = Stem;
},
{
horizontal = 1;
origin = (0,1);
target = down;
type = TopGhost;
},
{
horizontal = 1;
origin = (0,2);
target = up;
type = BottomGhost;
},
{
horizontal = 1;
origin = (1,4);
target = down;
type = TopGhost;
},
{
horizontal = 1;
origin = (2,18);
target = (2,11);
type = Stem;
},
{
horizontal = 1;
origin = (2,38);
target = down;
type = TopGhost;
},
{
origin = (1,8);
target = (1,2);
type = Stem;
},
{
origin = (2,31);
target = (2,2);
type = Stem;
},
{
origin = (2,21);
target = (2,8);
type = Stem;
},
{
horizontal = 1;
origin = (2,15);
target = up;
type = BottomGhost;
},
{
horizontal = 1;
origin = (1,6);
target = (1,5);
type = Stem;
},
{
horizontal = 1;
origin = (1,4);
target = (1,7);
type = Stem;
}
);
layerId = "67A5D7A9-2C6D-4B81-A947-AF9C36497881";
name = Regular;
shapes = (
{
closed = 1;
nodes = (
(708,663,l),
(640,671,l),
(189,-1,l),
(256,-10,l)
);
},
{
closed = 1;
nodes = (
(286,294,l),
(291,362,l),
(229,362,l),
(229,668,l),
(188,668,l),
(99,618,l),
(99,591,l),
(154,564,l),
(154,362,l),
(95,362,l),
(90,294,l)
);
},
{
closed = 1;
nodes = (
(726,-8,o),
(800,53,o),
(800,133,cs),
(800,172,o),
(782,204,o),
(747,221,c),
(772,244,o),
(783,270,o),
(783,295,cs),
(783,343,o),
(742,379,o),
(680,379,cs),
(635,379,o),
(594,360,o),
(563,330,c),
(610,279,l),
(629,300,o),
(653,312,o),
(673,312,cs),
(694,312,o),
(707,301,o),
(707,285,cs),
(707,257,o),
(670,229,o),
(637,218,c),
(648,165,l),
(659,169,o),
(669,171,o),
(678,171,cs),
(705,171,o),
(720,155,o),
(720,129,cs),
(720,88,o),
(683,61,o),
(623,61,cs),
(606,61,o),
(587,63,o),
(567,66,c),
(557,-3,l),
(577,-6,o),
(597,-8,o),
(615,-8,cs)
);
}
);
width = 890;
}
);
unicode = 8531;
},
{
glyphname = onequarter;
kernLeft = onehalf;
kernRight = onehalf;
lastChange = "2023-04-05 13:05:38 +0000";
layers = (
{
hints = (
{
horizontal = 1;
origin = (0,3);
target = up;
type = BottomGhost;
},
{
horizontal = 1;
origin = (1,10);
target = (1,9);
type = Stem;
},
{
horizontal = 1;
origin = (0,1);
target = down;
type = TopGhost;
},
{
horizontal = 1;
origin = (2,10);
target = (3,2);
type = Stem;
},
{
horizontal = 1;
origin = (1,4);
target = down;
type = TopGhost;
},
{
horizontal = 1;
origin = (3,2);
target = (2,8);
type = Stem;
},
{
origin = (1,8);
target = (1,2);
type = Stem;
},
{
origin = (2,10);
target = (2,0);
type = Stem;
},
{
horizontal = 1;
origin = (1,6);
target = (1,5);
type = Stem;
},
{
horizontal = 1;
origin = (1,4);
target = (1,7);
type = Stem;
},
{
horizontal = 1;
origin = (2,5);
target = down;
type = TopGhost;
}
);
layerId = "67A5D7A9-2C6D-4B81-A947-AF9C36497881";
name = Regular;
shapes = (
{
closed = 1;
nodes = (
(710,663,l),
(642,671,l),
(191,-1,l),
(258,-10,l)
);
},
{
closed = 1;
nodes = (
(288,294,l),
(293,362,l),
(231,362,l),
(231,668,l),
(190,668,l),
(101,618,l),
(101,591,l),
(156,564,l),
(156,362,l),
(97,362,l),
(92,294,l)
);
},
{
closed = 1;
nodes = (
(756,0,l),
(756,86,l),
(793,86,l),
(800,148,l),
(756,148,l),
(756,373,l),
(683,373,l),
(516,143,l),
(522,86,l),
(683,86,l),
(683,0,l)
);
},
{
closed = 1;
nodes = (
(683,276,l),
(683,148,l),
(597,148,l)
);
}
);
width = 890;
}
);
unicode = 188;
},
{
glyphname = threequarters;
kernLeft = onehalf;
kernRight = onehalf;
lastChange = "2023-04-05 13:05:38 +0000";
layers = (
{
hints = (
{
horizontal = 1;
origin = (2,10);
target = (3,2);
type = Stem;
},
{
horizontal = 1;
origin = (1,41);
target = (1,34);
type = Stem;
},
{
horizontal = 1;
origin = (1,5);
target = up;
type = BottomGhost;
},
{
horizontal = 1;
origin = (1,11);
target = (1,18);
type = Stem;
},
{
horizontal = 1;
origin = (0,3);
target = up;
type = BottomGhost;
},
{
horizontal = 1;
origin = (0,1);
target = down;
type = TopGhost;
},
{
horizontal = 1;
origin = (3,2);
target = (2,8);
type = Stem;
},
{
origin = (1,31);
target = (1,2);
type = Stem;
},
{
origin = (2,10);
target = (2,0);
type = Stem;
},
{
origin = (1,21);
target = (1,8);
type = Stem;
},
{
horizontal = 1;
origin = (2,5);
target = down;
type = TopGhost;
},
{
horizontal = 1;
origin = (1,15);
target = up;
type = BottomGhost;
},
{
horizontal = 1;
origin = (1,28);
target = (1,24);
type = Stem;
}
);
layerId = "67A5D7A9-2C6D-4B81-A947-AF9C36497881";
name = Regular;
shapes = (
{
closed = 1;
nodes = (
(728,663,l),
(660,671,l),
(209,-1,l),
(276,-10,l)
);
},
{
closed = 1;
nodes = (
(260,287,o),
(334,348,o),
(334,428,cs),
(334,467,o),
(316,499,o),
(281,516,c),
(306,539,o),
(317,565,o),
(317,590,cs),
(317,638,o),
(276,674,o),
(214,674,cs),
(169,674,o),
(128,655,o),
(97,625,c),
(144,574,l),
(163,595,o),
(187,607,o),
(207,607,cs),
(228,607,o),
(241,596,o),
(241,580,cs),
(241,552,o),
(204,524,o),
(171,513,c),
(182,460,l),
(193,464,o),
(203,466,o),
(212,466,cs),
(239,466,o),
(254,450,o),
(254,424,cs),
(254,383,o),
(217,356,o),
(157,356,cs),
(140,356,o),
(121,358,o),
(101,361,c),
(91,292,l),
(111,289,o),
(131,287,o),
(149,287,cs)
);
},
{
closed = 1;
nodes = (
(774,0,l),
(774,86,l),
(811,86,l),
(818,148,l),
(774,148,l),
(774,373,l),
(701,373,l),
(534,143,l),
(540,86,l),
(701,86,l),
(701,0,l)
);
},
{
closed = 1;
nodes = (
(701,276,l),
(701,148,l),
(615,148,l)
);
}
);
width = 908;
}
);
unicode = 190;
},
{
glyphname = onesuperior;
lastChange = "2023-04-05 13:05:38 +0000";
layers = (
{
hints = (
{
horizontal = 1;
origin = (0,10);
target = (0,9);
type = Stem;
},
{
horizontal = 1;
origin = (0,5);
target = down;
type = TopGhost;
},
{
horizontal = 1;
origin = (0,4);
target = down;
type = TopGhost;
},
{
origin = (0,8);
target = (0,2);
type = Stem;
},
{
horizontal = 1;
origin = (0,5);
target = (0,6);
type = Stem;
},
{
horizontal = 1;
origin = (0,4);
target = (0,7);
type = Stem;
}
);
layerId = "67A5D7A9-2C6D-4B81-A947-AF9C36497881";
name = Regular;
shapes = (
{
closed = 1;
nodes = (
(287,356,l),
(292,424,l),
(230,424,l),
(230,730,l),
(189,730,l),
(100,680,l),
(100,653,l),
(155,626,l),
(155,424,l),
(96,424,l),
(91,356,l)
);
}
);
width = 382;
}
);
unicode = 185;
},
{
glyphname = twosuperior;
lastChange = "2023-04-05 13:05:38 +0000";
layers = (
{
hints = (
{
horizontal = 1;
origin = (0,22);
target = (0,2);
type = Stem;
},
{
horizontal = 1;
origin = (0,8);
target = (0,15);
type = Stem;
},
{
origin = (0,18);
target = (0,1);
type = Stem;
},
{
horizontal = 1;
origin = (0,12);
target = up;
type = BottomGhost;
}
);
layerId = "67A5D7A9-2C6D-4B81-A947-AF9C36497881";
name = Regular;
shapes = (
{
closed = 1;
nodes = (
(316,356,l),
(323,428,l),
(194,428,l),
(279,513,o),
(323,569,o),
(323,631,cs),
(323,696,o),
(274,734,o),
(210,734,cs),
(160,734,o),
(115,712,o),
(80,661,c),
(136,618,l),
(156,644,o),
(178,659,o),
(201,659,cs),
(226,659,o),
(243,644,o),
(243,619,cs),
(243,578,o),
(198,528,o),
(91,414,c),
(91,356,l)
);
}
);
width = 403;
}
);
unicode = 178;
},
{
glyphname = threesuperior;
lastChange = "2023-04-05 13:05:38 +0000";
layers = (
{
hints = (
{
horizontal = 1;
origin = (0,41);
target = (0,34);
type = Stem;
},
{
horizontal = 1;
origin = (0,18);
target = (0,11);
type = Stem;
},
{
origin = (0,31);
target = (0,2);
type = Stem;
},
{
origin = (0,21);
target = (0,8);
type = Stem;
},
{
horizontal = 1;
origin = (0,28);
target = (0,24);
type = Stem;
},
{
horizontal = 1;
origin = (0,15);
target = up;
type = BottomGhost;
}
);
layerId = "67A5D7A9-2C6D-4B81-A947-AF9C36497881";
name = Regular;
shapes = (
{
closed = 1;
nodes = (
(233,347,o),
(307,408,o),
(307,488,cs),
(307,527,o),
(289,559,o),
(254,576,c),
(279,599,o),
(290,625,o),
(290,650,cs),
(290,698,o),
(249,734,o),
(187,734,cs),
(142,734,o),
(101,715,o),
(70,685,c),
(117,634,l),
(136,655,o),
(160,667,o),
(180,667,cs),
(201,667,o),
(214,656,o),
(214,640,cs),
(214,612,o),
(177,584,o),
(144,573,c),
(155,520,l),
(166,524,o),
(176,526,o),
(185,526,cs),
(212,526,o),
(227,510,o),
(227,484,cs),
(227,443,o),
(190,416,o),
(130,416,cs),
(113,416,o),
(94,418,o),
(74,421,c),
(64,352,l),
(84,349,o),
(104,347,o),
(122,347,cs)
);
}
);
width = 387;
}
);
unicode = 179;
},
{
glyphname = .notdef;
lastChange = "2023-04-05 13:05:38 +0000";
layers = (
{
hints = (
{
horizontal = 1;
origin = (0,3);
target = (1,3);
type = Stem;
},
{
horizontal = 1;
origin = (0,2);
target = down;
type = TopGhost;
},
{
origin = (0,3);
target = (1,3);
type = Stem;
},
{
horizontal = 1;
origin = (0,1);
target = (1,1);
type = Stem;
},
{
horizontal = 1;
origin = (0,0);
target = up;
type = BottomGhost;
},
{
origin = (0,1);
target = (1,1);
type = Stem;
}
);
layerId = "67A5D7A9-2C6D-4B81-A947-AF9C36497881";
shapes = (
{
closed = 1;
nodes = (
(582,-100,l),
(582,766,l),
(80,766,l),
(80,-100,l)
);
},
{
closed = 1;
nodes = (
(219,640,l),
(443,640,l),
(443,26,l),
(219,26,l)
);
}
);
width = 662;
}
);
},
{
glyphname = "geresh-hb";
kernLeft = quoteright;
kernRight = quoteright;
lastChange = "2023-04-05 14:02:36 +0000";
layers = (
{
hints = (
{
horizontal = 1;
origin = (0,13);
target = (0,5);
type = Stem;
},
{
origin = (0,12);
target = (0,2);
type = Stem;
},
{
origin = (0,8);
target = (0,2);
type = Stem;
}
);
layerId = "67A5D7A9-2C6D-4B81-A947-AF9C36497881";
name = Regular;
shapes = (
{
closed = 1;
nodes = (
(215,415,o),
(261,516,o),
(261,580,cs),
(261,644,o),
(214,688,o),
(158,688,cs),
(97,688,o),
(58,637,o),
(58,592,c),
(116,505,l),
(104,474,o),
(81,439,o),
(55,406,c),
(79,319,l)
);
}
);
width = 306;
}
);
unicode = 1523;
},
{
glyphname = "gershayim-hb";
kernLeft = quoteright;
kernRight = quoteright;
lastChange = "2023-04-05 13:05:38 +0000";
layers = (
{
hints = (
{
horizontal = 1;
origin = (1,13);
target = (1,5);
type = Stem;
},
{
origin = (1,8);
target = (1,2);
type = Stem;
},
{
origin = (0,8);
target = (0,2);
type = Stem;
}
);
layerId = "67A5D7A9-2C6D-4B81-A947-AF9C36497881";
name = Regular;
shapes = (
{
closed = 1;
nodes = (
(477,415,o),
(523,516,o),
(523,580,cs),
(523,644,o),
(476,688,o),
(420,688,cs),
(359,688,o),
(320,637,o),
(320,592,c),
(378,505,l),
(366,474,o),
(343,439,o),
(317,406,c),
(341,319,l)
);
},
{
closed = 1;
nodes = (
(215,415,o),
(261,516,o),
(261,580,cs),
(261,644,o),
(214,688,o),
(158,688,cs),
(97,688,o),
(58,637,o),
(58,592,c),
(116,505,l),
(104,474,o),
(81,439,o),
(55,406,c),
(79,319,l)
);
}
);
width = 568;
}
);
unicode = 1524;
},
{
glyphname = "maqaf-hb";
lastChange = "2023-04-05 13:05:38 +0000";
layers = (
{
hints = (
{
horizontal = 1;
origin = (0,3);
target = (0,2);
type = Stem;
},
{
origin = (0,3);
target = (0,0);
type = Stem;
}
);
layerId = "67A5D7A9-2C6D-4B81-A947-AF9C36497881";
name = Regular;
shapes = (
{
closed = 1;
nodes = (
(380,411,l),
(380,536,l),
(55,536,l),
(55,411,l)
);
}
);
width = 450;
}
);
unicode = 1470;
},
{
glyphname = period;
kernLeft = period;
kernRight = period;
lastChange = "2023-04-05 14:02:40 +0000";
layers = (
{
hints = (
{
horizontal = 1;
origin = (0,11);
target = (0,5);
type = Stem;
},
{
origin = (0,8);
target = (0,2);
type = Stem;
}
);
layerId = "67A5D7A9-2C6D-4B81-A947-AF9C36497881";
name = Regular;
shapes = (
{
closed = 1;
nodes = (
(225,-34,o),
(271,13,o),
(271,69,cs),
(271,126,o),
(225,173,o),
(168,173,cs),
(112,173,o),
(65,126,o),
(65,69,cs),
(65,13,o),
(112,-34,o),
(168,-34,cs)
);
}
);
width = 336;
}
);
unicode = 46;
},
{
glyphname = comma;
kernLeft = comma;
kernRight = comma;
lastChange = "2023-04-05 14:02:43 +0000";
layers = (
{
hints = (
{
horizontal = 1;
origin = (0,9);
target = down;
type = TopGhost;
},
{
origin = (0,12);
target = (0,2);
type = Stem;
},
{
origin = (0,8);
target = (0,2);
type = Stem;
},
{
horizontal = 1;
origin = (0,13);
target = up;
type = BottomGhost;
},
{
horizontal = 1;
origin = (0,9);
target = (0,5);
type = Stem;
}
);
layerId = "67A5D7A9-2C6D-4B81-A947-AF9C36497881";
name = Regular;
shapes = (
{
closed = 1;
nodes = (
(220,-100,o),
(266,1,o),
(266,65,cs),
(266,129,o),
(219,173,o),
(163,173,cs),
(102,173,o),
(63,122,o),
(63,77,c),
(121,-10,l),
(109,-41,o),
(86,-76,o),
(60,-109,c),
(84,-196,l)
);
}
);
width = 346;
}
);
unicode = 44;
},
{
glyphname = colon;
kernLeft = colon;
kernRight = colon;
lastChange = "2023-04-05 14:02:49 +0000";
layers = (
{
hints = (
{
horizontal = 1;
origin = (1,11);
target = (1,5);
type = Stem;
},
{
horizontal = 1;
origin = (0,11);
target = (0,5);
type = Stem;
},
{
origin = (1,8);
target = (1,2);
type = Stem;
}
);
layerId = "67A5D7A9-2C6D-4B81-A947-AF9C36497881";
name = Regular;
shapes = (
{
closed = 1;
nodes = (
(249,339,o),
(296,386,o),
(296,442,cs),
(296,498,o),
(249,544,o),
(193,544,cs),
(136,544,o),
(90,498,o),
(90,442,cs),
(90,386,o),
(136,339,o),
(193,339,cs)
);
},
{
closed = 1;
nodes = (
(249,-24,o),
(296,23,o),
(296,79,cs),
(296,135,o),
(249,181,o),
(193,181,cs),
(136,181,o),
(90,135,o),
(90,79,cs),
(90,23,o),
(136,-24,o),
(193,-24,cs)
);
}
);
width = 386;
}
);
unicode = 58;
},
{
glyphname = semicolon;
kernLeft = colon;
kernRight = colon;
lastChange = "2023-04-05 13:05:38 +0000";
layers = (
{
hints = (
{
horizontal = 1;
origin = (0,9);
target = down;
type = TopGhost;
},
{
horizontal = 1;
origin = (1,11);
target = (1,5);
type = Stem;
},
{
origin = (1,8);
target = (1,2);
type = Stem;
},
{
origin = (0,8);
target = (0,2);
type = Stem;
},
{
horizontal = 1;
origin = (0,13);
target = (0,5);
type = Stem;
}
);
layerId = "67A5D7A9-2C6D-4B81-A947-AF9C36497881";
name = Regular;
shapes = (
{
closed = 1;
nodes = (
(250,-100,o),
(296,1,o),
(296,65,cs),
(296,129,o),
(249,173,o),
(193,173,cs),
(132,173,o),
(93,122,o),
(93,77,c),
(151,-10,l),
(139,-41,o),
(116,-76,o),
(90,-109,c),
(114,-196,l)
);
},
{
closed = 1;
nodes = (
(253,339,o),
(300,386,o),
(300,442,cs),
(300,498,o),
(253,544,o),
(197,544,cs),
(140,544,o),
(94,498,o),
(94,442,cs),
(94,386,o),
(140,339,o),
(197,339,cs)
);
}
);
width = 410;
}
);
unicode = 59;
},
{
glyphname = ellipsis;
kernLeft = period;
kernRight = period;
lastChange = "2023-04-05 13:05:38 +0000";
layers = (
{
hints = (
{
horizontal = 1;
origin = (1,11);
target = (1,5);
type = Stem;
},
{
origin = (1,8);
target = (1,2);
type = Stem;
},
{
origin = (2,8);
target = (2,2);
type = Stem;
},
{
origin = (0,8);
target = (0,2);
type = Stem;
}
);
layerId = "67A5D7A9-2C6D-4B81-A947-AF9C36497881";
name = Regular;
shapes = (
{
closed = 1;
nodes = (
(804,-15,o),
(846,28,o),
(846,79,cs),
(846,131,o),
(804,174,o),
(752,174,cs),
(701,174,o),
(658,131,o),
(658,79,cs),
(658,28,o),
(701,-15,o),
(752,-15,cs)
);
},
{
closed = 1;
nodes = (
(194,-15,o),
(236,28,o),
(236,79,cs),
(236,131,o),
(194,174,o),
(142,174,cs),
(91,174,o),
(48,131,o),
(48,79,cs),
(48,28,o),
(91,-15,o),
(142,-15,cs)
);
},
{
closed = 1;
nodes = (
(499,-15,o),
(541,28,o),
(541,79,cs),
(541,131,o),
(499,174,o),
(447,174,cs),
(396,174,o),
(353,131,o),
(353,79,cs),
(353,28,o),
(396,-15,o),
(447,-15,cs)
);
}
);
width = 896;
}
);
unicode = 8230;
},
{
glyphname = exclam;
kernLeft = exclam;
kernRight = exclam;
lastChange = "2023-04-05 13:45:29 +0000";
layers = (
{
hints = (
{
horizontal = 1;
origin = (1,11);
target = (1,5);
type = Stem;
},
{
horizontal = 1;
origin = (0,1);
target = down;
type = TopGhost;
},
{
origin = (1,8);
target = (1,2);
type = Stem;
},
{
horizontal = 1;
origin = (0,3);
target = up;
type = BottomGhost;
}
);
layerId = "67A5D7A9-2C6D-4B81-A947-AF9C36497881";
name = Regular;
shapes = (
{
closed = 1;
nodes = (
(254,235,l),
(291,736,l),
(100,716,l),
(136,235,l)
);
},
{
closed = 1;
nodes = (
(249,-25,o),
(292,17,o),
(292,68,cs),
(292,119,o),
(250,162,o),
(199,162,cs),
(148,162,o),
(106,119,o),
(106,68,cs),
(106,17,o),
(148,-25,o),
(199,-25,cs)
);
}
);
width = 391;
}
);
unicode = 33;
},
{
glyphname = exclamdown;
kernLeft = exclamdown;
kernRight = exclamdown;
lastChange = "2023-04-05 13:58:24 +0000";
layers = (
{
hints = (
{
horizontal = 1;
origin = (1,11);
target = (1,5);
type = Stem;
},
{
origin = (1,8);
target = (1,2);
type = Stem;
},
{
horizontal = 1;
origin = (0,3);
target = up;
type = BottomGhost;
},
{
horizontal = 1;
origin = (0,2);
target = down;
type = TopGhost;
}
);
layerId = "67A5D7A9-2C6D-4B81-A947-AF9C36497881";
name = Regular;
shapes = (
{
closed = 1;
nodes = (
(292,-190,l),
(256,291,l),
(138,291,l),
(101,-210,l)
);
},
{
closed = 1;
nodes = (
(244,364,o),
(286,407,o),
(286,458,cs),
(286,509,o),
(244,551,o),
(193,551,cs),
(143,551,o),
(100,509,o),
(100,458,cs),
(100,407,o),
(142,364,o),
(193,364,cs)
);
}
);
width = 392;
}
);
unicode = 161;
},
{
glyphname = question;
lastChange = "2023-04-05 13:45:39 +0000";
layers = (
{
hints = (
{
horizontal = 1;
origin = (1,11);
target = (1,5);
type = Stem;
},
{
horizontal = 1;
origin = (0,10);
target = (0,19);
type = Stem;
},
{
place = (159, 110);
place = (159, 110);
type = Stem;
},
{
origin = (0,22);
target = (0,7);
type = Stem;
},
{
origin = (1,8);
target = (1,2);
type = Stem;
},
{
horizontal = 1;
origin = (0,0);
target = up;
type = BottomGhost;
},
{
horizontal = 1;
origin = (0,16);
target = up;
type = BottomGhost;
}
);
layerId = "67A5D7A9-2C6D-4B81-A947-AF9C36497881";
name = Regular;
shapes = (
{
closed = 1;
nodes = (
(268,240,l),
(270,278,ls),
(272,310,o),
(288,321,o),
(353,387,cs),
(403,438,o),
(452,490,o),
(452,569,cs),
(452,671,o),
(371,735,o),
(257,735,cs),
(135,735,o),
(49,661,o),
(25,571,c),
(68,557,o),
(112,545,o),
(159,535,c),
(171,597,o),
(214,619,o),
(252,619,cs),
(292,619,o),
(317,595,o),
(317,559,cs),
(317,505,o),
(263,477,o),
(206,417,cs),
(177,386,o),
(159,361,o),
(159,304,cs),
(159,291,o),
(160,273,o),
(167,231,c)
);
},
{
closed = 1;
nodes = (
(269,-25,o),
(311,18,o),
(311,69,cs),
(311,121,o),
(269,164,o),
(217,164,cs),
(165,164,o),
(123,121,o),
(123,70,cs),
(123,18,o),
(166,-25,o),
(217,-25,cs)
);
}
);
width = 511;
}
);
unicode = 63;
},
{
glyphname = questiondown;
lastChange = "2023-04-05 14:02:57 +0000";
layers = (
{
hints = (
{
horizontal = 1;
origin = (0,31);
target = (0,8);
type = Stem;
},
{
horizontal = 1;
origin = (1,11);
target = (1,5);
type = Stem;
},
{
origin = (1,8);
target = (1,2);
type = Stem;
},
{
origin = (0,28);
target = (0,11);
type = Stem;
},
{
place = (243, 110);
place = (243, 110);
type = Stem;
},
{
horizontal = 1;
origin = (0,21);
target = down;
type = TopGhost;
},
{
horizontal = 1;
origin = (0,5);
target = down;
type = TopGhost;
}
);
layerId = "67A5D7A9-2C6D-4B81-A947-AF9C36497881";
name = Regular;
shapes = (
{
closed = 1;
nodes = (
(377,-214,o),
(463,-140,o),
(487,-50,c),
(444,-36,o),
(400,-24,o),
(353,-14,c),
(341,-76,o),
(298,-98,o),
(260,-98,cs),
(220,-98,o),
(195,-74,o),
(195,-38,cs),
(195,16,o),
(249,44,o),
(306,104,cs),
(335,135,o),
(353,160,o),
(353,217,cs),
(353,230,o),
(352,248,o),
(345,290,c),
(244,281,l),
(242,243,ls),
(240,211,o),
(224,200,o),
(159,134,cs),
(109,83,o),
(60,31,o),
(60,-48,cs),
(60,-150,o),
(141,-214,o),
(255,-214,cs)
);
},
{
closed = 1;
nodes = (
(347,357,o),
(389,400,o),
(389,451,cs),
(389,503,o),
(346,546,o),
(295,546,cs),
(243,546,o),
(201,503,o),
(201,452,cs),
(201,400,o),
(243,357,o),
(295,357,cs)
);
}
);
width = 517;
}
);
unicode = 191;
},
{
glyphname = periodcentered;
lastChange = "2023-04-05 14:03:01 +0000";
layers = (
{
hints = (
{
horizontal = 1;
origin = (0,11);
target = (0,5);
type = Stem;
},
{
origin = (0,8);
target = (0,2);
type = Stem;
}
);
layerId = "67A5D7A9-2C6D-4B81-A947-AF9C36497881";
name = Regular;
shapes = (
{
closed = 1;
nodes = (
(205,186,o),
(249,230,o),
(249,283,cs),
(249,336,o),
(205,379,o),
(152,379,cs),
(99,379,o),
(55,336,o),
(55,283,cs),
(55,230,o),
(99,186,o),
(152,186,cs)
);
}
);
width = 306;
}
);
unicode = 183;
},
{
glyphname = bullet;
lastChange = "2023-04-05 13:58:49 +0000";
layers = (
{
hints = (
{
horizontal = 1;
origin = (0,11);
target = (0,5);
type = Stem;
},
{
origin = (0,8);
target = (0,2);
type = Stem;
}
);
layerId = "67A5D7A9-2C6D-4B81-A947-AF9C36497881";
name = Regular;
shapes = (
{
closed = 1;
nodes = (
(304,145,o),
(364,206,o),
(364,279,cs),
(364,351,o),
(303,412,o),
(231,412,cs),
(158,412,o),
(97,352,o),
(97,279,cs),
(97,206,o),
(157,145,o),
(231,145,cs)
);
}
);
width = 463;
}
);
unicode = 8226;
},
{
glyphname = asterisk;
lastChange = "2023-04-05 13:46:04 +0000";
layers = (
{
hints = (
{
horizontal = 1;
origin = (0,4);
target = up;
type = BottomGhost;
},
{
horizontal = 1;
origin = (0,5);
target = down;
type = TopGhost;
},
{
horizontal = 1;
origin = (0,6);
target = down;
type = TopGhost;
},
{
horizontal = 1;
origin = (0,14);
target = up;
type = BottomGhost;
},
{
origin = (0,9);
target = (0,2);
type = Stem;
}
);
layerId = "67A5D7A9-2C6D-4B81-A947-AF9C36497881";
name = Regular;
shapes = (
{
closed = 1;
nodes = (
(420,280,l),
(361,420,l),
(508,420,l),
(502,548,l),
(353,529,l),
(402,675,l),
(281,709,l),
(252,559,l),
(131,648,l),
(62,540,l),
(192,465,l),
(68,374,l),
(146,274,l),
(260,381,l),
(302,234,l)
);
}
);
width = 570;
}
);
unicode = 42;
},
{
glyphname = numbersign;
lastChange = "2023-04-05 13:59:01 +0000";
layers = (
{
hints = (
{
horizontal = 1;
origin = (0,27);
target = up;
type = BottomGhost;
},
{
horizontal = 1;
origin = (0,25);
target = (0,24);
type = Stem;
},
{
horizontal = 1;
origin = (0,21);
target = (0,20);
type = Stem;
},
{
horizontal = 1;
origin = (0,13);
target = down;
type = TopGhost;
}
);
layerId = "67A5D7A9-2C6D-4B81-A947-AF9C36497881";
name = Regular;
shapes = (
{
closed = 1;
nodes = (
(244,0,l),
(266,124,l),
(374,124,l),
(351,-7,l),
(444,0,l),
(465,124,l),
(616,124,l),
(616,214,l),
(482,214,l),
(501,326,l),
(616,326,l),
(616,415,l),
(518,415,l),
(539,540,l),
(447,533,l),
(426,415,l),
(318,415,l),
(340,540,l),
(248,533,l),
(227,415,l),
(76,415,l),
(76,326,l),
(210,326,l),
(191,214,l),
(76,214,l),
(76,124,l),
(175,124,l),
(152,-7,l)
);
},
{
closed = 1;
nodes = (
(301,326,l),
(409,326,l),
(390,214,l),
(283,214,l)
);
}
);
width = 693;
}
);
unicode = 35;
},
{
glyphname = slash;
lastChange = "2023-04-05 14:03:27 +0000";
layers = (
{
hints = (
{
horizontal = 1;
origin = (0,3);
target = up;
type = BottomGhost;
},
{
horizontal = 1;
origin = (0,1);
target = down;
type = TopGhost;
},
{
horizontal = 1;
origin = (0,2);
target = up;
type = BottomGhost;
}
);
layerId = "67A5D7A9-2C6D-4B81-A947-AF9C36497881";
name = Regular;
shapes = (
{
closed = 1;
nodes = (
(487,720,l),
(374,730,l),
(20,0,l),
(133,-10,l)
);
}
);
width = 507;
}
);
unicode = 47;
},
{
glyphname = backslash;
lastChange = "2023-04-05 13:05:38 +0000";
layers = (
{
hints = (
{
horizontal = 1;
origin = (0,3);
target = up;
type = BottomGhost;
},
{
horizontal = 1;
origin = (0,2);
target = down;
type = TopGhost;
}
);
layerId = "67A5D7A9-2C6D-4B81-A947-AF9C36497881";
name = Regular;
shapes = (
{
closed = 1;
nodes = (
(489,0,l),
(132,675,l),
(-2,675,l),
(356,0,l)
);
}
);
width = 488;
}
);
unicode = 92;
},
{
glyphname = hyphen;
kernLeft = hyphen;
kernRight = hyphen;
lastChange = "2023-04-05 14:03:32 +0000";
layers = (
{
hints = (
{
horizontal = 1;
origin = (0,3);
target = (0,2);
type = Stem;
},
{
origin = (0,3);
target = (0,1);
type = Stem;
}
);
layerId = "67A5D7A9-2C6D-4B81-A947-AF9C36497881";
name = Regular;
shapes = (
{
closed = 1;
nodes = (
(465,243,l),
(475,358,l),
(75,358,l),
(65,243,l)
);
}
);
width = 541;
}
);
unicode = 45;
},
{
glyphname = endash;
kernLeft = hyphen;
kernRight = hyphen;
lastChange = "2023-04-05 13:05:38 +0000";
layers = (
{
hints = (
{
horizontal = 1;
origin = (0,3);
target = (0,2);
type = Stem;
}
);
layerId = "67A5D7A9-2C6D-4B81-A947-AF9C36497881";
name = Regular;
shapes = (
{
closed = 1;
nodes = (
(643,243,l),
(653,358,l),
(53,358,l),
(43,243,l)
);
}
);
width = 696;
}
);
unicode = 8211;
},
{
glyphname = emdash;
kernLeft = hyphen;
kernRight = hyphen;
lastChange = "2023-04-05 13:05:38 +0000";
layers = (
{
hints = (
{
horizontal = 1;
origin = (0,3);
target = (0,2);
type = Stem;
}
);
layerId = "67A5D7A9-2C6D-4B81-A947-AF9C36497881";
name = Regular;
shapes = (
{
closed = 1;
nodes = (
(876,243,l),
(886,358,l),
(86,358,l),
(76,243,l)
);
}
);
width = 962;
}
);
unicode = 8212;
},
{
glyphname = underscore;
lastChange = "2023-04-05 14:03:37 +0000";
layers = (
{
hints = (
{
horizontal = 1;
origin = (0,2);
target = (0,3);
type = Stem;
}
);
layerId = "67A5D7A9-2C6D-4B81-A947-AF9C36497881";
name = Regular;
shapes = (
{
closed = 1;
nodes = (
(574,-110,l),
(574,0,l),
(11,0,l),
(11,-110,l)
);
}
);
width = 585;
}
);
unicode = 95;
},
{
glyphname = parenleft;
lastChange = "2023-04-05 13:05:38 +0000";
layers = (
{
hints = (
{
origin = (0,10);
target = (0,3);
type = Stem;
},
{
horizontal = 1;
origin = (0,13);
target = up;
type = BottomGhost;
},
{
horizontal = 1;
origin = (0,7);
target = down;
type = TopGhost;
}
);
layerId = "67A5D7A9-2C6D-4B81-A947-AF9C36497881";
name = Regular;
shapes = (
{
closed = 1;
nodes = (
(383,-136,l),
(266,-10,o),
(215,107,o),
(215,289,cs),
(215,471,o),
(266,589,o),
(382,713,c),
(358,761,l),
(181,661,o),
(75,494,o),
(75,288,cs),
(75,83,o),
(180,-81,o),
(358,-184,c)
);
}
);
width = 399;
}
);
unicode = 40;
},
{
glyphname = parenright;
lastChange = "2023-04-05 14:03:42 +0000";
layers = (
{
hints = (
{
origin = (0,9);
target = (0,2);
type = Stem;
},
{
horizontal = 1;
origin = (0,5);
target = down;
type = TopGhost;
},
{
horizontal = 1;
origin = (0,13);
target = up;
type = BottomGhost;
}
);
layerId = "67A5D7A9-2C6D-4B81-A947-AF9C36497881";
name = Regular;
shapes = (
{
closed = 1;
nodes = (
(219,-81,o),
(324,83,o),
(324,288,cs),
(324,494,o),
(218,661,o),
(41,761,c),
(17,713,l),
(133,589,o),
(184,471,o),
(184,289,cs),
(184,107,o),
(133,-10,o),
(16,-136,c),
(41,-184,l)
);
}
);
width = 400;
}
);
unicode = 41;
},
{
glyphname = braceleft;
lastChange = "2023-04-05 13:05:38 +0000";
layers = (
{
hints = (
{
horizontal = 1;
origin = (0,8);
target = down;
type = TopGhost;
},
{
origin = (0,17);
target = (0,18);
type = Stem;
},
{
horizontal = 1;
origin = (0,13);
target = (0,12);
type = Stem;
}
);
layerId = "67A5D7A9-2C6D-4B81-A947-AF9C36497881";
name = Regular;
shapes = (
{
closed = 1;
nodes = (
(278,53,ls),
(278,184,o),
(271,231,o),
(170,289,c),
(271,347,o),
(278,393,o),
(278,525,cs),
(278,750,l),
(153,740,l),
(153,491,ls),
(153,388,o),
(123,352,o),
(45,355,c),
(45,223,l),
(123,226,o),
(153,190,o),
(153,87,cs),
(153,-162,l),
(278,-172,l)
);
}
);
width = 378;
}
);
unicode = 123;
},
{
glyphname = braceright;
lastChange = "2023-04-05 13:59:30 +0000";
layers = (
{
hints = (
{
horizontal = 1;
origin = (0,9);
target = down;
type = TopGhost;
},
{
origin = (0,18);
target = (0,0);
type = Stem;
},
{
horizontal = 1;
origin = (0,4);
target = (0,5);
type = Stem;
}
);
layerId = "67A5D7A9-2C6D-4B81-A947-AF9C36497881";
name = Regular;
shapes = (
{
closed = 1;
nodes = (
(225,-162,l),
(225,87,ls),
(225,190,o),
(255,226,o),
(333,223,c),
(333,355,l),
(255,352,o),
(225,388,o),
(225,491,cs),
(225,740,l),
(100,750,l),
(100,525,ls),
(100,393,o),
(107,347,o),
(208,289,c),
(107,231,o),
(100,184,o),
(100,53,cs),
(100,-172,l)
);
}
);
width = 378;
}
);
unicode = 125;
},
{
glyphname = bracketleft;
lastChange = "2023-04-05 14:03:52 +0000";
layers = (
{
hints = (
{
horizontal = 1;
origin = (0,7);
target = (0,2);
type = Stem;
},
{
horizontal = 1;
origin = (0,6);
target = (0,3);
type = Stem;
},
{
origin = (0,7);
target = (0,2);
type = Stem;
}
);
layerId = "67A5D7A9-2C6D-4B81-A947-AF9C36497881";
name = Regular;
shapes = (
{
closed = 1;
nodes = (
(279,-182,l),
(289,-78,l),
(185,-78,l),
(185,636,l),
(279,636,l),
(289,740,l),
(75,740,l),
(75,-182,l)
);
}
);
width = 324;
}
);
unicode = 91;
},
{
glyphname = bracketright;
lastChange = "2023-04-05 14:03:56 +0000";
layers = (
{
hints = (
{
horizontal = 1;
origin = (0,7);
target = (0,6);
type = Stem;
},
{
horizontal = 1;
origin = (0,2);
target = (0,3);
type = Stem;
},
{
origin = (0,5);
target = (0,0);
type = Stem;
}
);
layerId = "67A5D7A9-2C6D-4B81-A947-AF9C36497881";
name = Regular;
shapes = (
{
closed = 1;
nodes = (
(249,-182,l),
(249,740,l),
(45,740,l),
(35,636,l),
(139,636,l),
(139,-78,l),
(45,-78,l),
(35,-182,l)
);
}
);
width = 324;
}
);
unicode = 93;
},
{
glyphname = quotesinglbase;
kernLeft = quotesinglbase;
kernRight = quotesinglbase;
lastChange = "2023-04-05 14:04:00 +0000";
layers = (
{
hints = (
{
horizontal = 1;
origin = (0,13);
target = (0,5);
type = Stem;
},
{
origin = (0,12);
target = (0,2);
type = Stem;
},
{
origin = (0,8);
target = (0,2);
type = Stem;
}
);
layerId = "67A5D7A9-2C6D-4B81-A947-AF9C36497881";
name = Regular;
shapes = (
{
closed = 1;
nodes = (
(205,-66,o),
(251,35,o),
(251,99,cs),
(251,163,o),
(204,207,o),
(148,207,cs),
(87,207,o),
(48,156,o),
(48,111,c),
(106,24,l),
(94,-7,o),
(71,-42,o),
(45,-75,c),
(69,-162,l)
);
}
);
width = 306;
}
);
unicode = 8218;
},
{
glyphname = quotedblbase;
kernLeft = quotesinglbase;
kernRight = quotesinglbase;
lastChange = "2023-04-05 13:05:38 +0000";
layers = (
{
hints = (
{
horizontal = 1;
origin = (1,13);
target = (1,5);
type = Stem;
},
{
origin = (1,8);
target = (1,2);
type = Stem;
},
{
origin = (0,8);
target = (0,2);
type = Stem;
}
);
layerId = "67A5D7A9-2C6D-4B81-A947-AF9C36497881";
name = Regular;
shapes = (
{
closed = 1;
nodes = (
(477,-66,o),
(523,35,o),
(523,99,cs),
(523,163,o),
(476,207,o),
(420,207,cs),
(359,207,o),
(320,156,o),
(320,111,c),
(378,24,l),
(366,-7,o),
(343,-42,o),
(317,-75,c),
(341,-162,l)
);
},
{
closed = 1;
nodes = (
(215,-66,o),
(261,35,o),
(261,99,cs),
(261,163,o),
(214,207,o),
(158,207,cs),
(97,207,o),
(58,156,o),
(58,111,c),
(116,24,l),
(104,-7,o),
(81,-42,o),
(55,-75,c),
(79,-162,l)
);
}
);
width = 568;
}
);
unicode = 8222;
},
{
glyphname = quotedblleft;
kernLeft = quoteleft;
kernRight = quoteleft;
lastChange = "2023-04-05 14:04:05 +0000";
layers = (
{
hints = (
{
horizontal = 1;
origin = (1,13);
target = (1,7);
type = Stem;
},
{
origin = (1,10);
target = (1,2);
type = Stem;
},
{
origin = (0,10);
target = (0,2);
type = Stem;
}
);
layerId = "67A5D7A9-2C6D-4B81-A947-AF9C36497881";
name = Regular;
shapes = (
{
closed = 1;
nodes = (
(481,319,o),
(520,370,o),
(520,415,c),
(462,502,l),
(474,533,o),
(497,568,o),
(523,601,c),
(499,688,l),
(363,592,o),
(317,491,o),
(317,427,cs),
(317,363,o),
(364,319,o),
(420,319,cs)
);
},
{
closed = 1;
nodes = (
(219,319,o),
(258,370,o),
(258,415,c),
(200,502,l),
(212,533,o),
(235,568,o),
(261,601,c),
(237,688,l),
(101,592,o),
(55,491,o),
(55,427,cs),
(55,363,o),
(102,319,o),
(158,319,cs)
);
}
);
width = 578;
}
);
unicode = 8220;
},
{
glyphname = quotedblright;
kernLeft = quoteright;
kernRight = quoteright;
lastChange = "2023-04-05 13:05:38 +0000";
layers = (
{
hints = (
{
horizontal = 1;
origin = (1,13);
target = (1,5);
type = Stem;
},
{
origin = (1,8);
target = (1,2);
type = Stem;
},
{
origin = (0,8);
target = (0,2);
type = Stem;
}
);
layerId = "67A5D7A9-2C6D-4B81-A947-AF9C36497881";
name = Regular;
shapes = (
{
closed = 1;
nodes = (
(477,415,o),
(523,516,o),
(523,580,cs),
(523,644,o),
(476,688,o),
(420,688,cs),
(359,688,o),
(320,637,o),
(320,592,c),
(378,505,l),
(366,474,o),
(343,439,o),
(317,406,c),
(341,319,l)
);
},
{
closed = 1;
nodes = (
(215,415,o),
(261,516,o),
(261,580,cs),
(261,644,o),
(214,688,o),
(158,688,cs),
(97,688,o),
(58,637,o),
(58,592,c),
(116,505,l),
(104,474,o),
(81,439,o),
(55,406,c),
(79,319,l)
);
}
);
width = 578;
}
);
unicode = 8221;
},
{
glyphname = quoteleft;
kernLeft = quoteleft;
kernRight = quoteleft;
lastChange = "2023-04-05 13:05:38 +0000";
layers = (
{
hints = (
{
horizontal = 1;
origin = (0,13);
target = (0,7);
type = Stem;
},
{
origin = (0,10);
target = (0,2);
type = Stem;
}
);
layerId = "67A5D7A9-2C6D-4B81-A947-AF9C36497881";
name = Regular;
shapes = (
{
closed = 1;
nodes = (
(219,319,o),
(258,370,o),
(258,415,c),
(200,502,l),
(212,533,o),
(235,568,o),
(261,601,c),
(237,688,l),
(101,592,o),
(55,491,o),
(55,427,cs),
(55,363,o),
(102,319,o),
(158,319,cs)
);
}
);
width = 316;
}
);
unicode = 8216;
},
{
glyphname = quoteright;
kernLeft = quoteright;
kernRight = quoteright;
lastChange = "2023-04-05 13:05:38 +0000";
layers = (
{
hints = (
{
horizontal = 1;
origin = (0,13);
target = (0,5);
type = Stem;
},
{
origin = (0,12);
target = (0,2);
type = Stem;
},
{
origin = (0,8);
target = (0,2);
type = Stem;
}
);
layerId = "67A5D7A9-2C6D-4B81-A947-AF9C36497881";
name = Regular;
shapes = (
{
closed = 1;
nodes = (
(205,415,o),
(251,516,o),
(251,580,cs),
(251,644,o),
(204,688,o),
(148,688,cs),
(87,688,o),
(48,637,o),
(48,592,c),
(106,505,l),
(94,474,o),
(71,439,o),
(45,406,c),
(69,319,l)
);
}
);
width = 306;
}
);
unicode = 8217;
},
{
glyphname = guillemetleft;
kernLeft = guillemetleft;
kernRight = guillemetleft;
lastChange = "2023-04-05 14:04:12 +0000";
layers = (
{
hints = (
{
horizontal = 1;
origin = (1,3);
target = down;
type = TopGhost;
},
{
horizontal = 1;
origin = (1,5);
target = up;
type = BottomGhost;
}
);
layerId = "67A5D7A9-2C6D-4B81-A947-AF9C36497881";
name = Regular;
shapes = (
{
closed = 1;
nodes = (
(664,81,l),
(531,277,l),
(657,469,l),
(564,538,l),
(350,277,l),
(572,17,l)
);
},
{
closed = 1;
nodes = (
(394,81,l),
(261,277,l),
(387,469,l),
(294,538,l),
(80,277,l),
(302,17,l)
);
}
);
width = 729;
}
);
unicode = 171;
},
{
glyphname = guillemetright;
kernLeft = guillemetright;
kernRight = guillemetright;
lastChange = "2023-04-05 14:04:17 +0000";
layers = (
{
hints = (
{
horizontal = 1;
origin = (0,1);
target = down;
type = TopGhost;
},
{
horizontal = 1;
origin = (0,5);
target = up;
type = BottomGhost;
}
);
layerId = "67A5D7A9-2C6D-4B81-A947-AF9C36497881";
name = Regular;
shapes = (
{
closed = 1;
nodes = (
(649,277,l),
(435,538,l),
(342,469,l),
(468,277,l),
(335,81,l),
(427,17,l)
);
},
{
closed = 1;
nodes = (
(379,277,l),
(165,538,l),
(72,469,l),
(198,277,l),
(65,81,l),
(157,17,l)
);
}
);
width = 729;
}
);
unicode = 187;
},
{
glyphname = guilsinglleft;
kernLeft = guillemetleft;
kernRight = guillemetleft;
lastChange = "2023-04-05 13:05:38 +0000";
layers = (
{
hints = (
{
origin = (0,4);
target = (0,0);
type = Stem;
},
{
horizontal = 1;
origin = (0,5);
target = up;
type = BottomGhost;
},
{
horizontal = 1;
origin = (0,3);
target = down;
type = TopGhost;
}
);
layerId = "67A5D7A9-2C6D-4B81-A947-AF9C36497881";
name = Regular;
shapes = (
{
closed = 1;
nodes = (
(394,81,l),
(261,277,l),
(387,469,l),
(294,538,l),
(80,277,l),
(302,17,l)
);
}
);
width = 459;
}
);
unicode = 8249;
},
{
glyphname = guilsinglright;
kernLeft = guillemetright;
kernRight = guillemetright;
lastChange = "2023-04-05 13:05:38 +0000";
layers = (
{
hints = (
{
origin = (0,4);
target = (0,0);
type = Stem;
},
{
horizontal = 1;
origin = (0,5);
target = up;
type = BottomGhost;
},
{
horizontal = 1;
origin = (0,1);
target = down;
type = TopGhost;
}
);
layerId = "67A5D7A9-2C6D-4B81-A947-AF9C36497881";
name = Regular;
shapes = (
{
closed = 1;
nodes = (
(379,277,l),
(165,538,l),
(72,469,l),
(198,277,l),
(65,81,l),
(157,17,l)
);
}
);
width = 459;
}
);
unicode = 8250;
},
{
glyphname = quotedbl;
kernLeft = quoteright;
kernRight = quoteright;
lastChange = "2023-04-05 13:05:38 +0000";
layers = (
{
hints = (
{
horizontal = 1;
origin = (1,13);
target = (1,5);
type = Stem;
},
{
origin = (1,8);
target = (1,2);
type = Stem;
},
{
origin = (0,8);
target = (0,2);
type = Stem;
}
);
layerId = "67A5D7A9-2C6D-4B81-A947-AF9C36497881";
name = Regular;
shapes = (
{
closed = 1;
nodes = (
(492,415,o),
(538,516,o),
(538,580,cs),
(538,644,o),
(491,688,o),
(435,688,cs),
(374,688,o),
(335,637,o),
(335,592,c),
(393,505,l),
(381,474,o),
(358,439,o),
(332,406,c),
(356,319,l)
);
},
{
closed = 1;
nodes = (
(230,415,o),
(276,516,o),
(276,580,cs),
(276,644,o),
(229,688,o),
(173,688,cs),
(112,688,o),
(73,637,o),
(73,592,c),
(131,505,l),
(119,474,o),
(96,439,o),
(70,406,c),
(94,319,l)
);
}
);
width = 608;
}
);
unicode = 34;
},
{
glyphname = quotesingle;
kernLeft = quoteright;
kernRight = quoteright;
lastChange = "2023-04-05 13:05:38 +0000";
layers = (
{
hints = (
{
horizontal = 1;
origin = (0,13);
target = (0,5);
type = Stem;
},
{
origin = (0,12);
target = (0,2);
type = Stem;
},
{
origin = (0,8);
target = (0,2);
type = Stem;
}
);
layerId = "67A5D7A9-2C6D-4B81-A947-AF9C36497881";
name = Regular;
shapes = (
{
closed = 1;
nodes = (
(230,415,o),
(276,516,o),
(276,580,cs),
(276,644,o),
(229,688,o),
(173,688,cs),
(112,688,o),
(73,637,o),
(73,592,c),
(131,505,l),
(119,474,o),
(96,439,o),
(70,406,c),
(94,319,l)
);
}
);
width = 346;
}
);
unicode = 39;
},
{
glyphname = florin;
lastChange = "2023-04-05 13:05:38 +0000";
layers = (
{
guides = (
{
pos = (371,231);
}
);
hints = (
{
horizontal = 1;
origin = (0,35);
target = (0,28);
type = Stem;
},
{
horizontal = 1;
origin = (0,23);
target = (0,22);
type = Stem;
},
{
horizontal = 1;
origin = (0,17);
target = (0,10);
type = Stem;
},
{
horizontal = 1;
origin = (0,13);
target = up;
type = BottomGhost;
},
{
horizontal = 1;
origin = (0,31);
target = down;
type = TopGhost;
}
);
layerId = "67A5D7A9-2C6D-4B81-A947-AF9C36497881";
name = Regular;
shapes = (
{
closed = 1;
nodes = (
(225,-173,o),
(303,-126,o),
(322,-7,cs),
(375,324,l),
(482,324,l),
(501,445,l),
(394,445,l),
(414,571,ls),
(420,609,o),
(441,622,o),
(470,622,cs),
(490,622,o),
(509,616,o),
(529,605,c),
(596,716,l),
(554,734,o),
(517,744,o),
(471,744,cs),
(372,744,o),
(293,698,o),
(274,578,cs),
(253,445,l),
(148,445,l),
(129,324,l),
(234,324,l),
(182,0,ls),
(176,-36,o),
(158,-51,o),
(126,-51,cs),
(106,-51,o),
(87,-45,o),
(67,-34,c),
(0,-145,l),
(42,-163,o),
(79,-173,o),
(125,-173,cs)
);
}
);
width = 572;
}
);
unicode = 402;
},
{
glyphname = at;
lastChange = "2023-04-05 13:05:38 +0000";
layers = (
{
hints = (
{
horizontal = 1;
origin = (0,57);
target = (0,6);
type = Stem;
},
{
horizontal = 1;
place = (125, 67);
place = (125, 67);
type = Stem;
},
{
horizontal = 1;
origin = (1,5);
target = (0,25);
type = Stem;
},
{
horizontal = 1;
origin = (0,12);
target = (0,51);
type = Stem;
},
{
horizontal = 1;
origin = (0,34);
target = (1,12);
type = Stem;
},
{
origin = (0,54);
target = (0,9);
type = Stem;
},
{
origin = (0,31);
target = (1,2);
type = Stem;
},
{
origin = (0,15);
target = (0,48);
type = Stem;
},
{
horizontal = 1;
origin = (0,3);
target = down;
type = TopGhost;
}
);
layerId = "67A5D7A9-2C6D-4B81-A947-AF9C36497881";
name = Regular;
shapes = (
{
closed = 1;
nodes = (
(450,-69,o),
(517,-60,o),
(558,-47,c),
(567,31,l),
(515,10,o),
(461,1,o),
(412,1,cs),
(242,1,o),
(138,109,o),
(138,269,cs),
(138,444,o),
(263,576,o),
(440,576,cs),
(587,576,o),
(685,485,o),
(685,333,cs),
(685,244,o),
(651,201,o),
(586,193,cs),
(568,191,o),
(549,190,o),
(531,191,c),
(560,439,l),
(512,453,o),
(472,460,o),
(438,460,cs),
(370,460,o),
(325,433,o),
(294,393,cs),
(265,355,o),
(250,305,o),
(250,254,cs),
(250,184,o),
(278,118,o),
(353,118,cs),
(392,118,o),
(432,136,o),
(457,167,c),
(461,167,l),
(455,125,l),
(473,124,o),
(501,123,o),
(524,123,cs),
(546,123,o),
(563,124,o),
(578,125,cs),
(696,134,o),
(763,211,o),
(763,341,cs),
(763,523,o),
(632,645,o),
(444,645,cs),
(224,645,o),
(60,477,o),
(60,262,cs),
(60,67,o),
(196,-69,o),
(398,-69,cs)
);
},
{
closed = 1;
nodes = (
(348,189,o),
(332,213,o),
(332,260,cs),
(332,323,o),
(360,391,o),
(429,391,cs),
(446,391,o),
(464,387,o),
(475,382,c),
(459,250,l),
(436,212,o),
(406,189,o),
(377,189,cs)
);
}
);
width = 823;
}
);
unicode = 64;
},
{
glyphname = ampersand;
lastChange = "2023-04-05 14:04:23 +0000";
layers = (
{
hints = (
{
horizontal = 1;
origin = (0,29);
target = (1,11);
type = Stem;
},
{
horizontal = 1;
origin = (2,5);
target = (0,17);
type = Stem;
},
{
origin = (0,26);
target = (1,2);
type = Stem;
},
{
origin = (2,8);
target = (0,14);
type = Stem;
},
{
origin = (0,5);
target = (0,4);
type = Stem;
},
{
origin = (0,20);
target = (2,2);
type = Stem;
},
{
horizontal = 1;
origin = (0,33);
target = up;
type = BottomGhost;
},
{
horizontal = 1;
origin = (0,4);
target = down;
type = TopGhost;
}
);
layerId = "67A5D7A9-2C6D-4B81-A947-AF9C36497881";
name = Regular;
shapes = (
{
closed = 1;
nodes = (
(659,40,l),
(554,151,l),
(590,218,o),
(607,296,o),
(606,387,c),
(478,371,l),
(475,320,o),
(469,281,o),
(459,246,c),
(414,292,o),
(378,328,o),
(349,358,c),
(405,406,o),
(452,462,o),
(452,538,cs),
(452,625,o),
(392,682,o),
(294,682,cs),
(194,682,o),
(112,622,o),
(112,513,cs),
(112,469,o),
(125,426,o),
(177,364,c),
(115,321,o),
(45,260,o),
(45,161,cs),
(45,53,o),
(129,-15,o),
(256,-15,cs),
(337,-15,o),
(418,13,o),
(473,60,c),
(551,-22,l)
);
},
{
closed = 1;
nodes = (
(224,99,o),
(176,121,o),
(176,176,cs),
(176,212,o),
(196,246,o),
(251,283,c),
(288,245,o),
(334,200,o),
(392,143,c),
(363,117,o),
(319,99,o),
(274,99,cs)
);
},
{
closed = 1;
nodes = (
(242,479,o),
(234,500,o),
(234,520,cs),
(234,558,o),
(262,576,o),
(287,576,cs),
(310,576,o),
(332,561,o),
(332,530,cs),
(332,495,o),
(305,462,o),
(276,438,c)
);
}
);
width = 684;
}
);
unicode = 38;
},
{
glyphname = paragraph;
lastChange = "2023-04-05 13:05:38 +0000";
layers = (
{
hints = (
{
horizontal = 1;
origin = (0,8);
target = (0,1);
type = Stem;
},
{
origin = (0,15);
target = (0,0);
type = Stem;
},
{
origin = (0,3);
target = (0,4);
type = Stem;
},
{
horizontal = 1;
origin = (0,14);
target = up;
type = BottomGhost;
}
);
layerId = "67A5D7A9-2C6D-4B81-A947-AF9C36497881";
name = Regular;
shapes = (
{
closed = 1;
nodes = (
(316,-124,l),
(316,625,l),
(402,625,l),
(402,-124,l),
(510,-124,l),
(510,625,l),
(568,625,l),
(568,730,l),
(225,730,ls),
(125,730,o),
(45,649,o),
(45,551,cs),
(45,460,o),
(117,382,o),
(209,374,c),
(209,-124,l)
);
}
);
width = 628;
}
);
unicode = 182;
},
{
glyphname = section;
lastChange = "2023-04-05 13:05:38 +0000";
layers = (
{
hints = (
{
horizontal = 1;
origin = (0,43);
target = (0,36);
type = Stem;
},
{
horizontal = 1;
origin = (0,14);
target = (0,21);
type = Stem;
},
{
origin = (0,30);
target = (1,2);
type = Stem;
},
{
origin = (1,8);
target = (0,8);
type = Stem;
},
{
origin = (0,33);
target = (0,2);
type = Stem;
},
{
origin = (0,24);
target = (0,11);
type = Stem;
},
{
horizontal = 1;
origin = (0,17);
target = up;
type = BottomGhost;
},
{
horizontal = 1;
origin = (0,39);
target = down;
type = TopGhost;
}
);
layerId = "67A5D7A9-2C6D-4B81-A947-AF9C36497881";
name = Regular;
shapes = (
{
closed = 1;
nodes = (
(389,-232,o),
(481,-168,o),
(481,-61,cs),
(481,-19,o),
(467,16,o),
(438,55,c),
(494,101,o),
(518,149,o),
(518,211,cs),
(518,415,o),
(257,481,o),
(257,579,cs),
(257,612,o),
(287,629,o),
(331,629,cs),
(374,629,o),
(427,613,o),
(467,588,c),
(485,716,l),
(434,735,o),
(378,748,o),
(321,748,cs),
(196,748,o),
(103,686,o),
(103,576,cs),
(103,534,o),
(116,501,o),
(145,460,c),
(89,415,o),
(65,367,o),
(65,306,cs),
(65,102,o),
(327,36,o),
(327,-63,cs),
(327,-96,o),
(297,-113,o),
(253,-113,cs),
(210,-113,o),
(157,-97,o),
(117,-71,c),
(99,-199,l),
(150,-218,o),
(206,-232,o),
(264,-232,cs)
);
},
{
closed = 1;
nodes = (
(279,205,o),
(210,249,o),
(210,319,cs),
(210,340,o),
(216,361,o),
(230,377,c),
(300,310,o),
(372,265,o),
(372,192,cs),
(372,167,o),
(364,150,o),
(352,135,c)
);
}
);
width = 583;
}
);
unicode = 167;
},
{
glyphname = copyright;
lastChange = "2023-04-05 13:05:38 +0000";
layers = (
{
hints = (
{
horizontal = 1;
origin = (0,11);
target = (2,11);
type = Stem;
},
{
horizontal = 1;
origin = (1,25);
target = (1,6);
type = Stem;
},
{
horizontal = 1;
origin = (1,19);
target = (1,12);
type = Stem;
},
{
horizontal = 1;
origin = (2,5);
target = (0,5);
type = Stem;
},
{
origin = (0,8);
target = (2,2);
type = Stem;
},
{
origin = (1,22);
target = (1,9);
type = Stem;
},
{
origin = (2,8);
target = (0,2);
type = Stem;
},
{
horizontal = 1;
origin = (1,15);
target = up;
type = BottomGhost;
},
{
horizontal = 1;
origin = (1,3);
target = down;
type = TopGhost;
}
);
layerId = "67A5D7A9-2C6D-4B81-A947-AF9C36497881";
name = Regular;
shapes = (
{
closed = 1;
nodes = (
(613,-26,o),
(759,120,o),
(759,331,cs),
(759,542,o),
(613,688,o),
(402,688,cs),
(191,688,o),
(45,542,o),
(45,331,cs),
(45,120,o),
(191,-26,o),
(402,-26,cs)
);
},
{
closed = 1;
nodes = (
(448,136,o),
(480,141,o),
(508,151,c),
(496,219,l),
(472,212,o),
(446,208,o),
(425,208,cs),
(348,208,o),
(303,253,o),
(303,331,cs),
(303,406,o),
(346,456,o),
(416,456,cs),
(441,456,o),
(466,450,o),
(491,439,c),
(507,512,l),
(479,523,o),
(448,529,o),
(415,529,cs),
(297,529,o),
(219,448,o),
(219,324,cs),
(219,204,o),
(292,136,o),
(415,136,cs)
);
},
{
closed = 1;
nodes = (
(239,44,o),
(126,162,o),
(126,331,cs),
(126,500,o),
(239,618,o),
(402,618,cs),
(565,618,o),
(678,500,o),
(678,331,cs),
(678,162,o),
(565,44,o),
(402,44,cs)
);
}
);
width = 804;
}
);
unicode = 169;
},
{
glyphname = registered;
lastChange = "2023-04-05 13:05:38 +0000";
layers = (
{
hints = (
{
horizontal = 1;
origin = (0,11);
target = (1,11);
type = Stem;
},
{
horizontal = 1;
origin = (2,1);
target = (3,8);
type = Stem;
},
{
horizontal = 1;
origin = (2,24);
target = (3,0);
type = Stem;
},
{
horizontal = 1;
origin = (1,5);
target = (0,5);
type = Stem;
},
{
origin = (0,8);
target = (1,2);
type = Stem;
},
{
origin = (2,25);
target = (2,0);
type = Stem;
},
{
origin = (2,12);
target = (2,15);
type = Stem;
},
{
origin = (1,8);
target = (0,2);
type = Stem;
},
{
horizontal = 1;
origin = (2,0);
target = up;
type = BottomGhost;
}
);
layerId = "67A5D7A9-2C6D-4B81-A947-AF9C36497881";
name = Regular;
shapes = (
{
closed = 1;
nodes = (
(613,-26,o),
(759,120,o),
(759,331,cs),
(759,542,o),
(613,688,o),
(402,688,cs),
(191,688,o),
(45,542,o),
(45,331,cs),
(45,120,o),
(191,-26,o),
(402,-26,cs)
);
},
{
closed = 1;
nodes = (
(239,44,o),
(126,162,o),
(126,331,cs),
(126,500,o),
(239,618,o),
(402,618,cs),
(565,618,o),
(678,500,o),
(678,331,cs),
(678,162,o),
(565,44,o),
(402,44,cs)
);
},
{
closed = 1;
nodes = (
(361,145,l),
(361,293,l),
(382,293,o),
(391,292,o),
(405,265,cs),
(469,145,l),
(564,145,l),
(548,173,o),
(557,159,o),
(518,225,cs),
(489,274,o),
(480,290,o),
(459,305,c),
(512,318,o),
(539,362,o),
(539,414,cs),
(539,480,o),
(497,522,o),
(410,525,cs),
(393,526,o),
(369,526,o),
(345,526,cs),
(322,526,o),
(299,526,o),
(282,525,c),
(282,145,l)
);
},
{
closed = 1;
nodes = (
(361,458,l),
(401,458,ls),
(439,458,o),
(459,442,o),
(459,411,cs),
(459,378,o),
(436,357,o),
(397,357,cs),
(361,357,l)
);
}
);
width = 804;
}
);
unicode = 174;
},
{
glyphname = trademark;
lastChange = "2023-04-05 13:05:38 +0000";
layers = (
{
hints = (
{
horizontal = 1;
origin = (1,4);
target = (1,5);
type = Stem;
},
{
origin = (1,7);
target = (1,0);
type = Stem;
},
{
horizontal = 1;
origin = (0,12);
target = up;
type = BottomGhost;
},
{
horizontal = 1;
origin = (1,0);
target = up;
type = BottomGhost;
}
);
layerId = "67A5D7A9-2C6D-4B81-A947-AF9C36497881";
name = Regular;
shapes = (
{
closed = 1;
nodes = (
(463,252,l),
(532,438,l),
(550,255,l),
(601,255,l),
(577,515,l),
(506,515,l),
(442,328,l),
(376,515,l),
(305,515,l),
(282,255,l),
(333,255,l),
(349,439,l),
(418,249,l)
);
},
{
closed = 1;
nodes = (
(183,255,l),
(183,466,l),
(254,466,l),
(254,515,l),
(55,515,l),
(55,466,l),
(126,466,l),
(126,255,l)
);
}
);
width = 676;
}
);
unicode = 8482;
},
{
glyphname = degree;
lastChange = "2023-04-05 13:05:38 +0000";
layers = (
{
hints = (
{
horizontal = 1;
origin = (0,11);
target = (1,11);
type = Stem;
},
{
horizontal = 1;
origin = (1,5);
target = (0,5);
type = Stem;
},
{
origin = (0,8);
target = (1,2);
type = Stem;
},
{
origin = (1,8);
target = (0,2);
type = Stem;
}
);
layerId = "67A5D7A9-2C6D-4B81-A947-AF9C36497881";
name = Regular;
shapes = (
{
closed = 1;
nodes = (
(279,496,o),
(330,547,o),
(330,621,cs),
(330,695,o),
(279,746,o),
(205,746,cs),
(131,746,o),
(80,695,o),
(80,621,cs),
(80,547,o),
(131,496,o),
(205,496,cs)
);
},
{
closed = 1;
nodes = (
(170,559,o),
(145,584,o),
(145,621,cs),
(145,658,o),
(170,684,o),
(205,684,cs),
(240,684,o),
(265,658,o),
(265,621,cs),
(265,584,o),
(240,559,o),
(205,559,cs)
);
}
);
width = 410;
}
);
unicode = 176;
},
{
glyphname = bar;
lastChange = "2023-04-05 13:05:38 +0000";
layers = (
{
hints = (
{
horizontal = 1;
origin = (0,3);
target = up;
type = BottomGhost;
},
{
horizontal = 1;
origin = (0,1);
target = down;
type = TopGhost;
},
{
origin = (0,3);
target = (0,0);
type = Stem;
}
);
layerId = "67A5D7A9-2C6D-4B81-A947-AF9C36497881";
name = Regular;
shapes = (
{
closed = 1;
nodes = (
(290,-213,l),
(290,735,l),
(200,725,l),
(200,-223,l)
);
}
);
width = 490;
}
);
unicode = 124;
},
{
glyphname = brokenbar;
lastChange = "2023-04-05 13:05:38 +0000";
layers = (
{
hints = (
{
horizontal = 1;
origin = (1,3);
target = up;
type = BottomGhost;
},
{
horizontal = 1;
origin = (0,1);
target = down;
type = TopGhost;
},
{
origin = (1,3);
target = (1,0);
type = Stem;
},
{
horizontal = 1;
origin = (1,1);
target = down;
type = TopGhost;
},
{
horizontal = 1;
origin = (0,3);
target = up;
type = BottomGhost;
}
);
layerId = "67A5D7A9-2C6D-4B81-A947-AF9C36497881";
name = Regular;
shapes = (
{
closed = 1;
nodes = (
(290,403,l),
(290,735,l),
(200,725,l),
(200,393,l)
);
},
{
closed = 1;
nodes = (
(290,-213,l),
(290,119,l),
(200,109,l),
(200,-223,l)
);
}
);
width = 490;
}
);
unicode = 166;
},
{
glyphname = literSign;
lastChange = "2023-04-05 13:05:38 +0000";
layers = (
{
hints = (
{
horizontal = 1;
origin = (0,21);
target = (0,2);
type = Stem;
},
{
horizontal = 1;
origin = (0,9);
target = down;
type = TopGhost;
},
{
horizontal = 1;
origin = (0,9);
target = (1,5);
type = Stem;
},
{
origin = (1,8);
target = (0,6);
type = Stem;
},
{
horizontal = 1;
origin = (0,17);
target = up;
type = BottomGhost;
},
{
horizontal = 1;
origin = (0,16);
target = down;
type = TopGhost;
}
);
layerId = "67A5D7A9-2C6D-4B81-A947-AF9C36497881";
name = Regular;
shapes = (
{
closed = 1;
nodes = (
(366,0,l),
(385,121,l),
(267,121,l),
(296,298,l),
(424,375,o),
(529,501,o),
(529,622,cs),
(529,701,o),
(484,745,o),
(408,745,cs),
(311,745,o),
(229,672,o),
(196,497,cs),
(174,381,l),
(139,367,o),
(102,355,o),
(63,345,c),
(39,193,l),
(78,205,o),
(115,217,o),
(150,232,c),
(113,0,l)
);
},
{
closed = 1;
nodes = (
(327,506,o),
(339,560,o),
(353,588,cs),
(364,611,o),
(380,623,o),
(392,623,cs),
(403,623,o),
(411,614,o),
(411,597,cs),
(411,559,o),
(372,490,o),
(317,452,c)
);
}
);
width = 574;
}
);
unicode = 8467;
},
{
glyphname = dagger;
lastChange = "2023-04-05 13:05:38 +0000";
layers = (
{
hints = (
{
horizontal = 1;
origin = (0,11);
target = up;
type = BottomGhost;
},
{
horizontal = 1;
origin = (0,8);
target = (0,9);
type = Stem;
},
{
horizontal = 1;
origin = (0,5);
target = down;
type = TopGhost;
},
{
origin = (0,11);
target = (0,0);
type = Stem;
}
);
layerId = "67A5D7A9-2C6D-4B81-A947-AF9C36497881";
name = Regular;
shapes = (
{
closed = 1;
nodes = (
(340,-216,l),
(340,434,l),
(535,434,l),
(545,515,l),
(340,515,l),
(340,732,l),
(250,722,l),
(250,515,l),
(65,515,l),
(55,434,l),
(250,434,l),
(250,-226,l)
);
}
);
width = 600;
}
);
unicode = 8224;
},
{
glyphname = daggerdbl;
lastChange = "2023-04-05 13:05:38 +0000";
layers = (
{
hints = (
{
horizontal = 1;
origin = (0,19);
target = up;
type = BottomGhost;
},
{
horizontal = 1;
origin = (0,17);
target = (0,16);
type = Stem;
},
{
horizontal = 1;
origin = (0,12);
target = (0,13);
type = Stem;
},
{
horizontal = 1;
origin = (0,9);
target = down;
type = TopGhost;
},
{
origin = (0,19);
target = (0,0);
type = Stem;
}
);
layerId = "67A5D7A9-2C6D-4B81-A947-AF9C36497881";
name = Regular;
shapes = (
{
closed = 1;
nodes = (
(350,-216,l),
(350,-9,l),
(535,-9,l),
(545,72,l),
(350,72,l),
(350,434,l),
(545,434,l),
(555,515,l),
(350,515,l),
(350,732,l),
(260,722,l),
(260,515,l),
(75,515,l),
(65,434,l),
(260,434,l),
(260,72,l),
(65,72,l),
(55,-9,l),
(260,-9,l),
(260,-226,l)
);
}
);
width = 610;
}
);
unicode = 8225;
},
{
glyphname = estimated;
lastChange = "2023-04-05 13:05:38 +0000";
layers = (
{
hints = (
{
horizontal = 1;
origin = (0,23);
target = (0,6);
type = Stem;
},
{
horizontal = 1;
origin = (0,10);
target = (1,8);
type = Stem;
},
{
horizontal = 1;
origin = (0,17);
target = (1,3);
type = Stem;
},
{
origin = (0,20);
target = (0,9);
type = Stem;
},
{
origin = (1,7);
target = (0,14);
type = Stem;
},
{
horizontal = 1;
origin = (0,3);
target = down;
type = TopGhost;
}
);
layerId = "67A5D7A9-2C6D-4B81-A947-AF9C36497881";
name = Regular;
shapes = (
{
closed = 1;
nodes = (
(389,-15,o),
(457,1,o),
(510,29,c),
(487,142,l),
(447,121,o),
(390,107,o),
(340,107,cs),
(287,107,o),
(247,123,o),
(223,154,c),
(223,215,l),
(537,215,l),
(538,226,o),
(538,237,o),
(538,249,cs),
(538,430,o),
(455,529,o),
(306,529,cs),
(153,529,o),
(55,425,o),
(55,257,cs),
(55,86,o),
(157,-15,o),
(323,-15,cs)
);
},
{
closed = 1;
nodes = (
(223,388,l),
(241,409,o),
(268,420,o),
(301,420,cs),
(334,420,o),
(360,409,o),
(377,390,c),
(377,321,l),
(223,321,l)
);
}
);
width = 593;
}
);
unicode = 8494;
},
{
glyphname = cent;
lastChange = "2023-04-05 13:05:38 +0000";
layers = (
{
hints = (
{
horizontal = 1;
origin = (0,3);
target = (0,10);
type = Stem;
},
{
horizontal = 1;
origin = (0,25);
target = down;
type = TopGhost;
},
{
horizontal = 1;
origin = (0,23);
target = down;
type = TopGhost;
},
{
horizontal = 1;
origin = (0,21);
target = up;
type = BottomGhost;
},
{
origin = (0,28);
target = (1,2);
type = Stem;
},
{
horizontal = 1;
origin = (0,25);
target = (1,5);
type = Stem;
},
{
horizontal = 1;
origin = (0,3);
target = (0,13);
type = Stem;
},
{
horizontal = 1;
origin = (0,7);
target = down;
type = TopGhost;
},
{
horizontal = 1;
origin = (0,17);
target = up;
type = BottomGhost;
},
{
horizontal = 1;
origin = (0,33);
target = up;
type = BottomGhost;
}
);
layerId = "67A5D7A9-2C6D-4B81-A947-AF9C36497881";
name = Regular;
shapes = (
{
closed = 1;
nodes = (
(268,-13,l),
(280,-14,o),
(292,-15,o),
(305,-15,cs),
(354,-15,o),
(400,-7,o),
(445,11,c),
(424,125,l),
(388,113,o),
(355,107,o),
(323,107,cs),
(314,107,o),
(306,107,o),
(298,108,c),
(367,399,l),
(384,394,o),
(400,389,o),
(414,382,c),
(441,501,l),
(430,507,o),
(414,512,o),
(396,517,c),
(445,720,l),
(358,730,l),
(310,529,l),
(301,529,ls),
(142,529,o),
(36,415,o),
(36,245,cs),
(36,124,o),
(89,41,o),
(184,5,c),
(135,-199,l),
(221,-209,l)
);
},
{
closed = 1;
nodes = (
(190,167,o),
(175,205,o),
(175,253,cs),
(175,332,o),
(216,388,o),
(279,403,c),
(217,142,l)
);
}
);
width = 531;
}
);
unicode = 162;
},
{
glyphname = currency;
lastChange = "2023-04-05 13:05:38 +0000";
layers = (
{
hints = (
{
horizontal = 1;
origin = (0,35);
target = (1,11);
type = Stem;
},
{
horizontal = 1;
origin = (0,12);
target = up;
type = BottomGhost;
},
{
horizontal = 1;
origin = (0,3);
target = up;
type = BottomGhost;
},
{
horizontal = 1;
origin = (0,31);
target = down;
type = TopGhost;
},
{
horizontal = 1;
origin = (0,14);
target = up;
type = BottomGhost;
},
{
horizontal = 1;
origin = (1,5);
target = (0,17);
type = Stem;
},
{
horizontal = 1;
origin = (0,22);
target = down;
type = TopGhost;
},
{
origin = (0,26);
target = (1,2);
type = Stem;
},
{
origin = (1,8);
target = (0,8);
type = Stem;
}
);
layerId = "67A5D7A9-2C6D-4B81-A947-AF9C36497881";
name = Regular;
shapes = (
{
closed = 1;
nodes = (
(423,-17,o),
(487,5,o),
(536,43,c),
(589,-10,l),
(638,55,l),
(592,101,l),
(625,149,o),
(643,209,o),
(643,277,cs),
(643,349,o),
(623,411,o),
(587,460,c),
(650,523,l),
(585,573,l),
(528,517,l),
(480,552,o),
(419,571,o),
(349,571,cs),
(281,571,o),
(221,553,o),
(174,520,c),
(113,581,l),
(63,516,l),
(115,464,l),
(77,415,o),
(55,351,o),
(55,277,cs),
(55,207,o),
(74,146,o),
(108,98,c),
(56,46,l),
(121,-4,l),
(165,40,l),
(214,4,o),
(277,-17,o),
(349,-17,cs)
);
},
{
closed = 1;
nodes = (
(227,63,o),
(143,151,o),
(143,277,cs),
(143,403,o),
(227,491,o),
(349,491,cs),
(471,491,o),
(555,403,o),
(555,277,cs),
(555,151,o),
(471,63,o),
(349,63,cs)
);
}
);
width = 705;
}
);
unicode = 164;
},
{
glyphname = dollar;
lastChange = "2023-04-05 13:05:38 +0000";
layers = (
{
hints = (
{
horizontal = 1;
origin = (0,0);
target = (1,6);
type = Stem;
},
{
horizontal = 1;
origin = (0,21);
target = (2,5);
type = Stem;
},
{
horizontal = 1;
origin = (0,16);
target = down;
type = TopGhost;
},
{
horizontal = 1;
origin = (0,35);
target = down;
type = TopGhost;
},
{
origin = (0,24);
target = (2,2);
type = Stem;
},
{
origin = (1,3);
target = (0,4);
type = Stem;
},
{
horizontal = 1;
origin = (0,31);
target = down;
type = TopGhost;
},
{
horizontal = 1;
origin = (0,11);
target = up;
type = BottomGhost;
}
);
layerId = "67A5D7A9-2C6D-4B81-A947-AF9C36497881";
name = Regular;
shapes = (
{
closed = 1;
nodes = (
(245,-13,l),
(266,-13,ls),
(424,-13,o),
(516,63,o),
(516,192,cs),
(516,312,o),
(435,356,o),
(357,387,c),
(400,541,l),
(424,534,o),
(448,523,o),
(470,511,c),
(492,643,l),
(472,651,o),
(453,657,o),
(433,662,c),
(455,740,l),
(379,751,l),
(358,677,l),
(343,678,o),
(327,679,o),
(312,679,cs),
(157,679,o),
(66,600,o),
(66,473,cs),
(66,343,o),
(162,306,o),
(246,273,c),
(203,117,l),
(161,126,o),
(117,144,o),
(77,169,c),
(65,35,l),
(93,18,o),
(129,5,o),
(170,-3,c),
(146,-88,l),
(221,-99,l)
);
},
{
closed = 1;
nodes = (
(317,245,l),
(349,230,o),
(371,213,o),
(371,183,cs),
(371,143,o),
(334,115,o),
(279,111,c)
);
},
{
closed = 1;
nodes = (
(242,433,o),
(211,449,o),
(211,488,cs),
(211,529,o),
(247,556,o),
(310,556,cs),
(325,556,l),
(286,415,l)
);
}
);
width = 581;
}
);
unicode = 36;
},
{
glyphname = euro;
lastChange = "2023-04-05 13:05:38 +0000";
layers = (
{
hints = (
{
horizontal = 1;
origin = (0,47);
target = (0,6);
type = Stem;
},
{
horizontal = 1;
origin = (0,43);
target = (0,42);
type = Stem;
},
{
horizontal = 1;
origin = (0,36);
target = (0,35);
type = Stem;
},
{
horizontal = 1;
origin = (0,31);
target = (0,24);
type = Stem;
},
{
origin = (0,41);
target = (0,15);
type = Stem;
},
{
horizontal = 1;
origin = (0,27);
target = up;
type = BottomGhost;
},
{
horizontal = 1;
origin = (0,3);
target = down;
type = TopGhost;
}
);
layerId = "67A5D7A9-2C6D-4B81-A947-AF9C36497881";
name = Regular;
shapes = (
{
closed = 1;
nodes = (
(514,-13,o),
(570,-4,o),
(618,14,c),
(597,133,l),
(556,120,o),
(510,114,o),
(473,114,cs),
(376,114,o),
(308,155,o),
(278,230,c),
(523,230,l),
(537,295,l),
(262,295,l),
(261,306,o),
(260,317,o),
(260,329,cs),
(260,336,o),
(260,343,o),
(261,350,c),
(548,350,l),
(561,415,l),
(272,415,l),
(298,497,o),
(363,548,o),
(457,548,cs),
(499,548,o),
(541,538,o),
(583,520,c),
(610,648,l),
(563,666,o),
(511,676,o),
(456,676,cs),
(282,676,o),
(159,575,o),
(123,415,c),
(30,415,l),
(20,350,l),
(114,350,l),
(113,339,o),
(113,328,o),
(113,316,cs),
(113,295,l),
(30,295,l),
(20,230,l),
(121,230,l),
(152,74,o),
(271,-13,o),
(455,-13,cs)
);
}
);
width = 673;
}
);
unicode = 8364;
},
{
glyphname = liraTurkish;
lastChange = "2023-04-05 13:17:38 +0000";
layers = (
{
hints = (
{
horizontal = 1;
origin = (0,23);
target = (0,2);
type = Stem;
},
{
horizontal = 1;
origin = (0,10);
target = up;
type = BottomGhost;
},
{
horizontal = 1;
origin = (0,12);
target = (0,13);
type = Stem;
},
{
origin = (0,23);
target = (0,2);
type = Stem;
},
{
horizontal = 1;
origin = (0,22);
target = down;
type = TopGhost;
},
{
horizontal = 1;
origin = (0,21);
target = down;
type = TopGhost;
},
{
horizontal = 1;
origin = (0,17);
target = down;
type = TopGhost;
},
{
horizontal = 1;
origin = (0,16);
target = down;
type = TopGhost;
},
{
horizontal = 1;
origin = (0,9);
target = up;
type = BottomGhost;
},
{
horizontal = 1;
origin = (0,8);
target = up;
type = BottomGhost;
},
{
horizontal = 1;
origin = (0,5);
target = up;
type = BottomGhost;
},
{
horizontal = 1;
origin = (0,4);
target = up;
type = BottomGhost;
}
);
layerId = "67A5D7A9-2C6D-4B81-A947-AF9C36497881";
name = Regular;
shapes = (
{
closed = 1;
nodes = (
(435,0,l),
(435,121,l),
(313,121,l),
(313,315,l),
(445,389,l),
(455,468,l),
(314,388,l),
(314,456,l),
(445,530,l),
(455,608,l),
(314,529,l),
(314,730,l),
(87,730,l),
(87,610,l),
(173,610,l),
(173,449,l),
(55,383,l),
(45,304,l),
(173,376,l),
(173,309,l),
(55,242,l),
(45,164,l),
(173,236,l),
(173,0,l)
);
}
);
width = 520;
}
);
unicode = 8378;
},
{
glyphname = ruble;
lastChange = "2023-04-05 13:05:38 +0000";
layers = (
{
hints = (
{
horizontal = 1;
origin = (0,27);
target = (0,24);
type = Stem;
},
{
horizontal = 1;
origin = (0,21);
target = (0,20);
type = Stem;
},
{
horizontal = 1;
origin = (0,18);
target = (1,0);
type = Stem;
},
{
horizontal = 1;
origin = (0,24);
target = (0,25);
type = Stem;
},
{
origin = (0,27);
target = (0,0);
type = Stem;
},
{
origin = (1,4);
target = (0,9);
type = Stem;
}
);
layerId = "67A5D7A9-2C6D-4B81-A947-AF9C36497881";
name = Regular;
shapes = (
{
closed = 1;
nodes = (
(276,0,l),
(276,90,l),
(413,90,l),
(433,155,l),
(276,155,l),
(276,238,l),
(341,238,ls),
(481,238,o),
(579,328,o),
(579,464,cs),
(579,591,o),
(494,663,o),
(358,666,cs),
(329,667,o),
(288,667,o),
(247,667,cs),
(206,667,o),
(166,667,o),
(137,666,c),
(137,356,l),
(50,356,l),
(30,238,l),
(137,238,l),
(137,155,l),
(50,155,l),
(30,90,l),
(137,90,l),
(137,0,l)
);
},
{
closed = 1;
nodes = (
(276,548,l),
(342,548,ls),
(406,548,o),
(439,518,o),
(439,460,cs),
(439,396,o),
(400,356,o),
(335,356,cs),
(276,356,l)
);
}
);
width = 619;
}
);
unicode = 8381;
},
{
glyphname = sheqel;
lastChange = "2023-04-05 13:05:38 +0000";
layers = (
{
hints = (
{
horizontal = 1;
origin = (0,42);
target = (0,15);
type = Stem;
},
{
horizontal = 1;
origin = (0,20);
target = down;
type = TopGhost;
},
{
horizontal = 1;
origin = (0,32);
target = up;
type = BottomGhost;
},
{
horizontal = 1;
origin = (0,34);
target = (0,31);
type = Stem;
},
{
origin = (0,32);
target = (0,33);
type = Stem;
},
{
origin = (0,23);
target = (0,19);
type = Stem;
},
{
origin = (0,9);
target = (0,2);
type = Stem;
},
{
horizontal = 1;
origin = (0,5);
target = down;
type = TopGhost;
}
);
layerId = "67A5D7A9-2C6D-4B81-A947-AF9C36497881";
name = Regular;
shapes = (
{
closed = 1;
nodes = (
(886,-15,o),
(1036,118,o),
(1036,461,cs),
(1036,486,o),
(1036,512,o),
(1034,539,c),
(896,528,l),
(896,514,o),
(897,500,o),
(897,487,cs),
(897,468,o),
(896,449,o),
(895,428,cs),
(881,169,o),
(789,111,o),
(566,112,c),
(559,213,l),
(740,236,o),
(794,313,o),
(790,539,c),
(656,528,l),
(656,517,o),
(656,506,o),
(656,496,cs),
(656,352,o),
(641,327,o),
(552,306,c),
(545,388,ls),
(537,481,o),
(473,535,o),
(372,535,cs),
(75,535,l),
(75,0,l),
(212,0,l),
(212,411,l),
(349,411,ls),
(384,411,o),
(407,391,o),
(409,358,cs),
(436,-14,l),
(460,-15,o),
(482,-15,o),
(504,-15,cs)
);
}
);
width = 1091;
}
);
unicode = 8362;
},
{
glyphname = sterling;
lastChange = "2023-04-05 13:05:38 +0000";
layers = (
{
hints = (
{
horizontal = 1;
origin = (0,25);
target = (0,2);
type = Stem;
},
{
horizontal = 1;
origin = (0,23);
target = (0,22);
type = Stem;
},
{
horizontal = 1;
origin = (0,17);
target = (0,10);
type = Stem;
},
{
origin = (0,25);
target = (0,2);
type = Stem;
},
{
horizontal = 1;
origin = (0,13);
target = up;
type = BottomGhost;
}
);
layerId = "67A5D7A9-2C6D-4B81-A947-AF9C36497881";
name = Regular;
shapes = (
{
closed = 1;
nodes = (
(516,0,l),
(516,121,l),
(259,121,l),
(259,316,l),
(432,316,l),
(432,431,l),
(259,431,l),
(259,527,ls),
(259,589,o),
(288,618,o),
(338,618,cs),
(372,618,o),
(416,605,o),
(465,579,c),
(508,693,l),
(443,727,o),
(376,744,o),
(319,744,cs),
(204,744,o),
(118,675,o),
(118,545,cs),
(118,431,l),
(30,431,l),
(30,316,l),
(118,316,l),
(118,0,l)
);
}
);
width = 596;
}
);
unicode = 163;
},
{
glyphname = yen;
lastChange = "2023-04-05 13:05:38 +0000";
layers = (
{
hints = (
{
horizontal = 1;
origin = (0,22);
target = (0,19);
type = Stem;
},
{
horizontal = 1;
origin = (0,16);
target = (0,15);
type = Stem;
},
{
horizontal = 1;
origin = (0,13);
target = down;
type = TopGhost;
},
{
horizontal = 1;
origin = (0,19);
target = (0,20);
type = Stem;
},
{
origin = (0,22);
target = (0,0);
type = Stem;
}
);
layerId = "67A5D7A9-2C6D-4B81-A947-AF9C36497881";
name = Regular;
shapes = (
{
closed = 1;
nodes = (
(378,0,l),
(378,153,l),
(505,153,l),
(515,218,l),
(378,218,l),
(378,273,l),
(505,273,l),
(515,338,l),
(413,338,l),
(602,666,l),
(442,666,l),
(308,403,l),
(173,666,l),
(10,666,l),
(198,338,l),
(115,338,l),
(105,273,l),
(233,273,l),
(233,218,l),
(115,218,l),
(105,153,l),
(233,153,l),
(233,0,l)
);
}
);
width = 612;
}
);
unicode = 165;
},
{
glyphname = bulletoperator;
lastChange = "2023-04-05 13:05:38 +0000";
layers = (
{
hints = (
{
horizontal = 1;
origin = (0,11);
target = (0,5);
type = Stem;
},
{
origin = (0,8);
target = (0,2);
type = Stem;
}
);
layerId = "67A5D7A9-2C6D-4B81-A947-AF9C36497881";
name = Regular;
shapes = (
{
closed = 1;
nodes = (
(217,224,o),
(253,261,o),
(253,304,cs),
(253,347,o),
(217,383,o),
(173,383,cs),
(130,383,o),
(94,347,o),
(94,304,cs),
(94,261,o),
(130,224,o),
(173,224,cs)
);
}
);
width = 347;
}
);
unicode = 8729;
},
{
glyphname = plus;
lastChange = "2023-04-05 13:06:20 +0000";
layers = (
{
hints = (
{
horizontal = 1;
origin = (0,9);
target = (0,8);
type = Stem;
},
{
origin = (0,11);
target = (0,0);
type = Stem;
}
);
layerId = "67A5D7A9-2C6D-4B81-A947-AF9C36497881";
name = Regular;
shapes = (
{
closed = 1;
nodes = (
(364,16,l),
(364,213,l),
(560,213,l),
(570,288,l),
(364,288,l),
(364,496,l),
(289,486,l),
(289,288,l),
(90,288,l),
(80,213,l),
(289,213,l),
(289,6,l)
);
}
);
width = 650;
}
);
unicode = 43;
},
{
glyphname = minus;
lastChange = "2023-04-05 13:05:38 +0000";
layers = (
{
hints = (
{
horizontal = 1;
origin = (0,3);
target = (0,2);
type = Stem;
}
);
layerId = "67A5D7A9-2C6D-4B81-A947-AF9C36497881";
name = Regular;
shapes = (
{
closed = 1;
nodes = (
(560,213,l),
(570,288,l),
(90,288,l),
(80,213,l)
);
}
);
width = 650;
}
);
unicode = 8722;
},
{
glyphname = multiply;
lastChange = "2023-04-05 13:06:20 +0000";
layers = (
{
hints = (
{
origin = (0,8);
target = (0,2);
type = Stem;
},
{
horizontal = 1;
origin = (0,5);
target = down;
type = TopGhost;
},
{
horizontal = 1;
origin = (0,9);
target = up;
type = BottomGhost;
}
);
layerId = "67A5D7A9-2C6D-4B81-A947-AF9C36497881";
name = Regular;
shapes = (
{
closed = 1;
nodes = (
(516,111,l),
(378,250,l),
(525,397,l),
(465,443,l),
(325,303,l),
(177,450,l),
(131,390,l),
(272,250,l),
(125,103,l),
(185,57,l),
(325,197,l),
(470,51,l)
);
}
);
width = 650;
}
);
unicode = 215;
},
{
glyphname = divide;
lastChange = "2023-04-05 13:06:20 +0000";
layers = (
{
hints = (
{
horizontal = 1;
origin = (1,11);
target = (1,5);
type = Stem;
},
{
horizontal = 1;
origin = (0,3);
target = (0,2);
type = Stem;
},
{
horizontal = 1;
origin = (2,11);
target = (2,5);
type = Stem;
},
{
origin = (1,8);
target = (1,2);
type = Stem;
}
);
layerId = "67A5D7A9-2C6D-4B81-A947-AF9C36497881";
name = Regular;
shapes = (
{
closed = 1;
nodes = (
(560,213,l),
(570,288,l),
(90,288,l),
(80,213,l)
);
},
{
closed = 1;
nodes = (
(370,-34,o),
(408,5,o),
(408,51,cs),
(408,98,o),
(370,137,o),
(323,137,cs),
(277,137,o),
(238,98,o),
(238,51,cs),
(238,5,o),
(277,-34,o),
(323,-34,cs)
);
},
{
closed = 1;
nodes = (
(370,360,o),
(408,399,o),
(408,446,cs),
(408,492,o),
(370,531,o),
(323,531,cs),
(277,531,o),
(238,492,o),
(238,446,cs),
(238,399,o),
(277,360,o),
(323,360,cs)
);
}
);
width = 650;
}
);
unicode = 247;
},
{
glyphname = equal;
lastChange = "2023-04-05 13:05:38 +0000";
layers = (
{
hints = (
{
horizontal = 1;
origin = (1,3);
target = (1,2);
type = Stem;
},
{
horizontal = 1;
origin = (0,3);
target = (0,2);
type = Stem;
}
);
layerId = "67A5D7A9-2C6D-4B81-A947-AF9C36497881";
name = Regular;
shapes = (
{
closed = 1;
nodes = (
(560,310,l),
(570,385,l),
(90,385,l),
(80,310,l)
);
},
{
closed = 1;
nodes = (
(560,140,l),
(570,215,l),
(90,215,l),
(80,140,l)
);
}
);
width = 650;
}
);
unicode = 61;
},
{
glyphname = notequal;
lastChange = "2023-04-05 13:05:38 +0000";
layers = (
{
hints = (
{
horizontal = 1;
origin = (0,19);
target = up;
type = BottomGhost;
},
{
horizontal = 1;
origin = (0,16);
target = (0,15);
type = Stem;
},
{
horizontal = 1;
origin = (0,12);
target = (0,11);
type = Stem;
},
{
horizontal = 1;
origin = (0,8);
target = down;
type = TopGhost;
},
{
horizontal = 1;
origin = (0,18);
target = up;
type = BottomGhost;
}
);
layerId = "67A5D7A9-2C6D-4B81-A947-AF9C36497881";
name = Regular;
shapes = (
{
closed = 1;
nodes = (
(316,140,l),
(560,140,l),
(570,215,l),
(352,215,l),
(398,310,l),
(560,310,l),
(570,385,l),
(435,385,l),
(504,528,l),
(422,535,l),
(349,385,l),
(90,385,l),
(80,310,l),
(313,310,l),
(267,215,l),
(90,215,l),
(80,140,l),
(230,140,l),
(161,-3,l),
(243,-10,l)
);
}
);
width = 650;
}
);
unicode = 8800;
},
{
glyphname = greater;
lastChange = "2023-04-05 13:06:20 +0000";
layers = (
{
hints = (
{
horizontal = 1;
origin = (0,6);
target = up;
type = BottomGhost;
},
{
horizontal = 1;
origin = (0,2);
target = down;
type = TopGhost;
},
{
horizontal = 1;
origin = (0,0);
target = (0,1);
type = Stem;
}
);
layerId = "67A5D7A9-2C6D-4B81-A947-AF9C36497881";
name = Regular;
shapes = (
{
closed = 1;
nodes = (
(597,190,l),
(588,313,l),
(62,537,l),
(62,381,l),
(411,252,l),
(53,116,l),
(62,-37,l)
);
}
);
width = 650;
}
);
unicode = 62;
},
{
glyphname = less;
lastChange = "2023-04-05 13:06:20 +0000";
layers = (
{
hints = (
{
horizontal = 1;
origin = (0,5);
target = (0,4);
type = Stem;
},
{
horizontal = 1;
origin = (0,3);
target = down;
type = TopGhost;
},
{
horizontal = 1;
origin = (0,6);
target = up;
type = BottomGhost;
}
);
layerId = "67A5D7A9-2C6D-4B81-A947-AF9C36497881";
name = Regular;
shapes = (
{
closed = 1;
nodes = (
(597,116,l),
(239,252,l),
(588,381,l),
(588,537,l),
(62,313,l),
(53,190,l),
(588,-37,l)
);
}
);
width = 650;
}
);
unicode = 60;
},
{
glyphname = greaterequal;
lastChange = "2023-04-05 13:06:20 +0000";
layers = (
{
hints = (
{
horizontal = 1;
origin = (1,3);
target = (1,2);
type = Stem;
},
{
origin = (0,5);
target = (1,0);
type = Stem;
},
{
horizontal = 1;
origin = (0,2);
target = down;
type = TopGhost;
},
{
horizontal = 1;
origin = (0,6);
target = up;
type = BottomGhost;
}
);
layerId = "67A5D7A9-2C6D-4B81-A947-AF9C36497881";
name = Regular;
shapes = (
{
closed = 1;
nodes = (
(517,316,l),
(510,411,l),
(132,572,l),
(132,446,l),
(346,364,l),
(125,277,l),
(132,153,l)
);
},
{
closed = 1;
nodes = (
(525,0,l),
(517,110,l),
(134,110,l),
(142,0,l)
);
}
);
width = 650;
}
);
unicode = 8805;
},
